<?xml version="1.0" encoding="UTF-8" standalone="no"?>
<!DOCTYPE svg PUBLIC "-//W3C//DTD SVG 1.1//EN"
 "http://www.w3.org/Graphics/SVG/1.1/DTD/svg11.dtd">
<!-- Generated by graphviz version 2.40.1 (20161225.0304)
 -->
<!-- Title: dependencies Pages: 1 -->
<svg width="532pt" height="284pt"
 viewBox="0.00 0.00 532.00 284.00" xmlns="http://www.w3.org/2000/svg" xmlns:xlink="http://www.w3.org/1999/xlink">
<g id="graph0" class="graph" transform="scale(1 1) rotate(0) translate(4 280)">
<title>dependencies</title>
<polygon fill="#ffffff" stroke="transparent" points="-4,4 -4,-280 528,-280 528,4 -4,4"/>
<text text-anchor="start" x="241.0091" y="-42.4" font-family="sans-serif" font-weight="bold" font-size="14.00" fill="#000000">Legend</text>
<polygon fill="#ffffb3" stroke="transparent" points="28,-10 28,-30 48,-30 48,-10 28,-10"/>
<text text-anchor="start" x="51.629" y="-15.4" font-family="sans-serif" font-size="14.00" fill="#000000"> &#160;Declarations</text>
<polygon fill="#8dd3c7" stroke="transparent" points="141,-10 141,-30 161,-30 161,-10 141,-10"/>
<text text-anchor="start" x="164.7251" y="-15.4" font-family="sans-serif" font-size="14.00" fill="#000000"> &#160;Module</text>
<polygon fill="#80b1d3" stroke="transparent" points="227,-10 227,-30 247,-30 247,-10 227,-10"/>
<text text-anchor="start" x="250.7812" y="-15.4" font-family="sans-serif" font-size="14.00" fill="#000000"> &#160;Bootstrap</text>
<polygon fill="#fdb462" stroke="transparent" points="324,-10 324,-30 344,-30 344,-10 324,-10"/>
<text text-anchor="start" x="347.6732" y="-15.4" font-family="sans-serif" font-size="14.00" fill="#000000"> &#160;Providers</text>
<polygon fill="#fb8072" stroke="transparent" points="420,-10 420,-30 440,-30 440,-10 420,-10"/>
<text text-anchor="start" x="443.7258" y="-15.4" font-family="sans-serif" font-size="14.00" fill="#000000"> &#160;Exports</text>
<g id="clust1" class="cluster">
<title>cluster_SharedModule</title>
<polygon fill="none" stroke="#000000" stroke-dasharray="1,5" points="8,-70 8,-268 516,-268 516,-70 8,-70"/>
</g>
<g id="clust2" class="cluster">
<title>cluster_SharedModule_declarations</title>
<polygon fill="none" stroke="#000000" points="16,-78 16,-130 508,-130 508,-78 16,-78"/>
</g>
<g id="clust7" class="cluster">
<title>cluster_SharedModule_exports</title>
<polygon fill="none" stroke="#000000" points="90,-208 90,-260 434,-260 434,-208 90,-208"/>
</g>
<!-- HomeArtistCardComponent -->
<g id="node1" class="node">
<title>HomeArtistCardComponent</title>
<polygon fill="#ffffb3" stroke="#000000" points="500.14,-122 325.86,-122 325.86,-86 500.14,-86 500.14,-122"/>
<text text-anchor="middle" x="413" y="-99.8" font-family="Times,serif" font-size="14.00" fill="#000000">HomeArtistCardComponent</text>
</g>
<!-- SharedModule -->
<g id="node4" class="node">
<title>SharedModule</title>
<polygon fill="#8dd3c7" stroke="#000000" points="293.4231,-187 290.4231,-191 269.4231,-191 266.4231,-187 194.5769,-187 194.5769,-151 293.4231,-151 293.4231,-187"/>
<text text-anchor="middle" x="244" y="-164.8" font-family="Times,serif" font-size="14.00" fill="#000000">SharedModule</text>
</g>
<!-- HomeArtistCardComponent&#45;&gt;SharedModule -->
<g id="edge1" class="edge">
<title>HomeArtistCardComponent&#45;&gt;SharedModule</title>
<path fill="none" stroke="#000000" d="M375.875,-122.1061C375.875,-141.3391 375.875,-169 375.875,-169 375.875,-169 303.4806,-169 303.4806,-169"/>
<polygon fill="#000000" stroke="#000000" points="303.4806,-165.5001 293.4806,-169 303.4805,-172.5001 303.4806,-165.5001"/>
</g>
<!-- LoadingComponent -->
<g id="node2" class="node">
<title>LoadingComponent</title>
<polygon fill="#ffffb3" stroke="#000000" points="307.9902,-122 180.0098,-122 180.0098,-86 307.9902,-86 307.9902,-122"/>
<text text-anchor="middle" x="244" y="-99.8" font-family="Times,serif" font-size="14.00" fill="#000000">LoadingComponent</text>
</g>
<!-- LoadingComponent&#45;&gt;SharedModule -->
<g id="edge2" class="edge">
<title>LoadingComponent&#45;&gt;SharedModule</title>
<path fill="none" stroke="#000000" d="M244,-122.1061C244,-122.1061 244,-140.991 244,-140.991"/>
<polygon fill="#000000" stroke="#000000" points="240.5001,-140.9909 244,-150.991 247.5001,-140.991 240.5001,-140.9909"/>
</g>
<!-- NotFoundComponent -->
<g id="node3" class="node">
<title>NotFoundComponent</title>
<polygon fill="#ffffb3" stroke="#000000" points="162.1122,-122 23.8878,-122 23.8878,-86 162.1122,-86 162.1122,-122"/>
<text text-anchor="middle" x="93" y="-99.8" font-family="Times,serif" font-size="14.00" fill="#000000">NotFoundComponent</text>
</g>
<!-- NotFoundComponent&#45;&gt;SharedModule -->
<g id="edge3" class="edge">
<title>NotFoundComponent&#45;&gt;SharedModule</title>
<path fill="none" stroke="#000000" d="M130.1555,-122.1061C130.1555,-141.3391 130.1555,-169 130.1555,-169 130.1555,-169 184.7283,-169 184.7283,-169"/>
<polygon fill="#000000" stroke="#000000" points="184.7283,-172.5001 194.7283,-169 184.7282,-165.5001 184.7283,-172.5001"/>
</g>
<!-- HomeArtistCardComponent  -->
<g id="node5" class="node">
<title>HomeArtistCardComponent </title>
<polygon fill="#fb8072" stroke="#000000" points="426.1397,-252 247.8603,-252 247.8603,-216 426.1397,-216 426.1397,-252"/>
<text text-anchor="middle" x="337" y="-229.8" font-family="Times,serif" font-size="14.00" fill="#000000">HomeArtistCardComponent </text>
</g>
<!-- SharedModule&#45;&gt;HomeArtistCardComponent  -->
<g id="edge4" class="edge">
<title>SharedModule&#45;&gt;HomeArtistCardComponent </title>
<path fill="none" stroke="#000000" stroke-dasharray="5,2" d="M270.5707,-187.1061C270.5707,-187.1061 270.5707,-205.991 270.5707,-205.991"/>
<polygon fill="#000000" stroke="#000000" points="267.0707,-205.9909 270.5707,-215.991 274.0707,-205.991 267.0707,-205.9909"/>
</g>
<!-- LoadingComponent  -->
<g id="node6" class="node">
<title>LoadingComponent </title>
<polygon fill="#fb8072" stroke="#000000" points="229.9911,-252 98.0089,-252 98.0089,-216 229.9911,-216 229.9911,-252"/>
<text text-anchor="middle" x="164" y="-229.8" font-family="Times,serif" font-size="14.00" fill="#000000">LoadingComponent </text>
</g>
<!-- SharedModule&#45;&gt;LoadingComponent  -->
<g id="edge5" class="edge">
<title>SharedModule&#45;&gt;LoadingComponent </title>
<path fill="none" stroke="#000000" stroke-dasharray="5,2" d="M212.267,-187.1061C212.267,-187.1061 212.267,-205.991 212.267,-205.991"/>
<polygon fill="#000000" stroke="#000000" points="208.7671,-205.9909 212.267,-215.991 215.7671,-205.991 208.7671,-205.9909"/>
</g>
</g>
</svg>
