<?xml version="1.0" encoding="UTF-8" standalone="no"?>
<!DOCTYPE svg PUBLIC "-//W3C//DTD SVG 1.1//EN"
 "http://www.w3.org/Graphics/SVG/1.1/DTD/svg11.dtd">
<!-- Generated by graphviz version 2.40.1 (20161225.0304)
 -->
<!-- Title: dependencies Pages: 1 -->
<svg width="504pt" height="284pt"
 viewBox="0.00 0.00 504.00 284.00" xmlns="http://www.w3.org/2000/svg" xmlns:xlink="http://www.w3.org/1999/xlink">
<g id="graph0" class="graph" transform="scale(1 1) rotate(0) translate(4 280)">
<title>dependencies</title>
<polygon fill="#ffffff" stroke="transparent" points="-4,4 -4,-280 500,-280 500,4 -4,4"/>
<text text-anchor="start" x="227.0091" y="-42.4" font-family="sans-serif" font-weight="bold" font-size="14.00" fill="#000000">Legend</text>
<polygon fill="#ffffb3" stroke="transparent" points="14,-10 14,-30 34,-30 34,-10 14,-10"/>
<text text-anchor="start" x="37.629" y="-15.4" font-family="sans-serif" font-size="14.00" fill="#000000"> &#160;Declarations</text>
<polygon fill="#8dd3c7" stroke="transparent" points="127,-10 127,-30 147,-30 147,-10 127,-10"/>
<text text-anchor="start" x="150.7251" y="-15.4" font-family="sans-serif" font-size="14.00" fill="#000000"> &#160;Module</text>
<polygon fill="#80b1d3" stroke="transparent" points="213,-10 213,-30 233,-30 233,-10 213,-10"/>
<text text-anchor="start" x="236.7812" y="-15.4" font-family="sans-serif" font-size="14.00" fill="#000000"> &#160;Bootstrap</text>
<polygon fill="#fdb462" stroke="transparent" points="310,-10 310,-30 330,-30 330,-10 310,-10"/>
<text text-anchor="start" x="333.6732" y="-15.4" font-family="sans-serif" font-size="14.00" fill="#000000"> &#160;Providers</text>
<polygon fill="#fb8072" stroke="transparent" points="406,-10 406,-30 426,-30 426,-10 406,-10"/>
<text text-anchor="start" x="429.7258" y="-15.4" font-family="sans-serif" font-size="14.00" fill="#000000"> &#160;Exports</text>
<g id="clust1" class="cluster">
<title>cluster_SharedModule</title>
<polygon fill="none" stroke="#000000" stroke-dasharray="1,5" points="67,-70 67,-268 429,-268 429,-70 67,-70"/>
</g>
<g id="clust2" class="cluster">
<title>cluster_SharedModule_declarations</title>
<polygon fill="none" stroke="#000000" points="75,-78 75,-130 421,-130 421,-78 75,-78"/>
</g>
<g id="clust6" class="cluster">
<title>cluster_SharedModule_exports</title>
<polygon fill="none" stroke="#000000" points="151,-208 151,-260 345,-260 345,-208 151,-208"/>
</g>
<!-- HomeArtistCardComponent -->
<g id="node1" class="node">
<title>HomeArtistCardComponent</title>
<polygon fill="#ffffb3" stroke="#000000" points="413.14,-122 238.86,-122 238.86,-86 413.14,-86 413.14,-122"/>
<text text-anchor="middle" x="326" y="-99.8" font-family="Times,serif" font-size="14.00" fill="#000000">HomeArtistCardComponent</text>
</g>
<!-- SharedModule -->
<g id="node3" class="node">
<title>SharedModule</title>
<polygon fill="#8dd3c7" stroke="#000000" points="297.4231,-187 294.4231,-191 273.4231,-191 270.4231,-187 198.5769,-187 198.5769,-151 297.4231,-151 297.4231,-187"/>
<text text-anchor="middle" x="248" y="-164.8" font-family="Times,serif" font-size="14.00" fill="#000000">SharedModule</text>
</g>
<!-- HomeArtistCardComponent&#45;&gt;SharedModule -->
<g id="edge1" class="edge">
<title>HomeArtistCardComponent&#45;&gt;SharedModule</title>
<path fill="none" stroke="#000000" d="M267.9457,-122.1061C267.9457,-122.1061 267.9457,-140.991 267.9457,-140.991"/>
<polygon fill="#000000" stroke="#000000" points="264.4457,-140.9909 267.9457,-150.991 271.4457,-140.991 264.4457,-140.9909"/>
</g>
<!-- NotFoundComponent -->
<g id="node2" class="node">
<title>NotFoundComponent</title>
<polygon fill="#ffffb3" stroke="#000000" points="221.1122,-122 82.8878,-122 82.8878,-86 221.1122,-86 221.1122,-122"/>
<text text-anchor="middle" x="152" y="-99.8" font-family="Times,serif" font-size="14.00" fill="#000000">NotFoundComponent</text>
</g>
<!-- NotFoundComponent&#45;&gt;SharedModule -->
<g id="edge2" class="edge">
<title>NotFoundComponent&#45;&gt;SharedModule</title>
<path fill="none" stroke="#000000" d="M209.9225,-122.1061C209.9225,-122.1061 209.9225,-140.991 209.9225,-140.991"/>
<polygon fill="#000000" stroke="#000000" points="206.4226,-140.9909 209.9225,-150.991 213.4226,-140.991 206.4226,-140.9909"/>
</g>
<!-- HomeArtistCardComponent  -->
<g id="node4" class="node">
<title>HomeArtistCardComponent </title>
<polygon fill="#fb8072" stroke="#000000" points="337.1397,-252 158.8603,-252 158.8603,-216 337.1397,-216 337.1397,-252"/>
<text text-anchor="middle" x="248" y="-229.8" font-family="Times,serif" font-size="14.00" fill="#000000">HomeArtistCardComponent </text>
</g>
<!-- SharedModule&#45;&gt;HomeArtistCardComponent  -->
<g id="edge3" class="edge">
<title>SharedModule&#45;&gt;HomeArtistCardComponent </title>
<path fill="none" stroke="#000000" stroke-dasharray="5,2" d="M248,-187.1061C248,-187.1061 248,-205.991 248,-205.991"/>
<polygon fill="#000000" stroke="#000000" points="244.5001,-205.9909 248,-215.991 251.5001,-205.991 244.5001,-205.9909"/>
</g>
</g>
</svg>
