<?xml version="1.0" encoding="UTF-8" standalone="no"?>
<!DOCTYPE svg PUBLIC "-//W3C//DTD SVG 1.1//EN"
 "http://www.w3.org/Graphics/SVG/1.1/DTD/svg11.dtd">
<!-- Generated by graphviz version 2.40.1 (20161225.0304)
 -->
<!-- Title: dependencies Pages: 1 -->
<svg width="1597pt" height="211pt"
 viewBox="0.00 0.00 1597.00 211.00" xmlns="http://www.w3.org/2000/svg" xmlns:xlink="http://www.w3.org/1999/xlink">
<g id="graph0" class="graph" transform="scale(1 1) rotate(0) translate(4 207)">
<title>dependencies</title>
<polygon fill="#ffffff" stroke="transparent" points="-4,4 -4,-207 1593,-207 1593,4 -4,4"/>
<text text-anchor="start" x="773.5091" y="-42.4" font-family="sans-serif" font-weight="bold" font-size="14.00" fill="#000000">Legend</text>
<polygon fill="#ffffb3" stroke="transparent" points="560.5,-10 560.5,-30 580.5,-30 580.5,-10 560.5,-10"/>
<text text-anchor="start" x="584.129" y="-15.4" font-family="sans-serif" font-size="14.00" fill="#000000"> &#160;Declarations</text>
<polygon fill="#8dd3c7" stroke="transparent" points="673.5,-10 673.5,-30 693.5,-30 693.5,-10 673.5,-10"/>
<text text-anchor="start" x="697.2251" y="-15.4" font-family="sans-serif" font-size="14.00" fill="#000000"> &#160;Module</text>
<polygon fill="#80b1d3" stroke="transparent" points="759.5,-10 759.5,-30 779.5,-30 779.5,-10 759.5,-10"/>
<text text-anchor="start" x="783.2812" y="-15.4" font-family="sans-serif" font-size="14.00" fill="#000000"> &#160;Bootstrap</text>
<polygon fill="#fdb462" stroke="transparent" points="856.5,-10 856.5,-30 876.5,-30 876.5,-10 856.5,-10"/>
<text text-anchor="start" x="880.1732" y="-15.4" font-family="sans-serif" font-size="14.00" fill="#000000"> &#160;Providers</text>
<polygon fill="#fb8072" stroke="transparent" points="952.5,-10 952.5,-30 972.5,-30 972.5,-10 952.5,-10"/>
<text text-anchor="start" x="976.2258" y="-15.4" font-family="sans-serif" font-size="14.00" fill="#000000"> &#160;Exports</text>
<g id="clust1" class="cluster">
<title>cluster_ArtistModule</title>
<polygon fill="none" stroke="#000000" stroke-dasharray="1,5" points="8,-70 8,-195 1581,-195 1581,-70 8,-70"/>
</g>
<g id="clust2" class="cluster">
<title>cluster_ArtistModule_declarations</title>
<polygon fill="none" stroke="#000000" points="422,-78 422,-130 1573,-130 1573,-78 422,-78"/>
</g>
<g id="clust10" class="cluster">
<title>cluster_ArtistModule_imports</title>
<polygon fill="none" stroke="#000000" points="16,-78 16,-130 414,-130 414,-78 16,-78"/>
</g>
<!-- AboutArtistComponent -->
<g id="node1" class="node">
<title>AboutArtistComponent</title>
<polygon fill="#ffffb3" stroke="#000000" points="1565.2134,-122 1416.7866,-122 1416.7866,-86 1565.2134,-86 1565.2134,-122"/>
<text text-anchor="middle" x="1491" y="-99.8" font-family="Times,serif" font-size="14.00" fill="#000000">AboutArtistComponent</text>
</g>
<!-- ArtistModule -->
<g id="node8" class="node">
<title>ArtistModule</title>
<polygon fill="#8dd3c7" stroke="#000000" points="812.9344,-187 809.9344,-191 788.9344,-191 785.9344,-187 721.0656,-187 721.0656,-151 812.9344,-151 812.9344,-187"/>
<text text-anchor="middle" x="767" y="-164.8" font-family="Times,serif" font-size="14.00" fill="#000000">ArtistModule</text>
</g>
<!-- AboutArtistComponent&#45;&gt;ArtistModule -->
<g id="edge1" class="edge">
<title>AboutArtistComponent&#45;&gt;ArtistModule</title>
<path fill="none" stroke="#000000" d="M1491,-122.0109C1491,-144.4852 1491,-180 1491,-180 1491,-180 822.8387,-180 822.8387,-180"/>
<polygon fill="#000000" stroke="#000000" points="822.8387,-176.5001 812.8387,-180 822.8387,-183.5001 822.8387,-176.5001"/>
</g>
<!-- ArtistCardComponent -->
<g id="node2" class="node">
<title>ArtistCardComponent</title>
<polygon fill="#ffffb3" stroke="#000000" points="1399.4285,-122 1258.5715,-122 1258.5715,-86 1399.4285,-86 1399.4285,-122"/>
<text text-anchor="middle" x="1329" y="-99.8" font-family="Times,serif" font-size="14.00" fill="#000000">ArtistCardComponent</text>
</g>
<!-- ArtistCardComponent&#45;&gt;ArtistModule -->
<g id="edge2" class="edge">
<title>ArtistCardComponent&#45;&gt;ArtistModule</title>
<path fill="none" stroke="#000000" d="M1329,-122.1289C1329,-142.5724 1329,-173 1329,-173 1329,-173 822.9908,-173 822.9908,-173"/>
<polygon fill="#000000" stroke="#000000" points="822.9909,-169.5001 812.9908,-173 822.9908,-176.5001 822.9909,-169.5001"/>
</g>
<!-- ArtistComponent -->
<g id="node3" class="node">
<title>ArtistComponent</title>
<polygon fill="#ffffb3" stroke="#000000" points="1240.7162,-122 1127.2838,-122 1127.2838,-86 1240.7162,-86 1240.7162,-122"/>
<text text-anchor="middle" x="1184" y="-99.8" font-family="Times,serif" font-size="14.00" fill="#000000">ArtistComponent</text>
</g>
<!-- ArtistComponent&#45;&gt;ArtistModule -->
<g id="edge3" class="edge">
<title>ArtistComponent&#45;&gt;ArtistModule</title>
<path fill="none" stroke="#000000" d="M1184,-122.2667C1184,-140.5552 1184,-166 1184,-166 1184,-166 822.8191,-166 822.8191,-166"/>
<polygon fill="#000000" stroke="#000000" points="822.8192,-162.5001 812.8191,-166 822.8191,-169.5001 822.8192,-162.5001"/>
</g>
<!-- ArtistHeaderComponent -->
<g id="node4" class="node">
<title>ArtistHeaderComponent</title>
<polygon fill="#ffffb3" stroke="#000000" points="1109.6275,-122 956.3725,-122 956.3725,-86 1109.6275,-86 1109.6275,-122"/>
<text text-anchor="middle" x="1033" y="-99.8" font-family="Times,serif" font-size="14.00" fill="#000000">ArtistHeaderComponent</text>
</g>
<!-- ArtistHeaderComponent&#45;&gt;ArtistModule -->
<g id="edge4" class="edge">
<title>ArtistHeaderComponent&#45;&gt;ArtistModule</title>
<path fill="none" stroke="#000000" d="M1033,-122.0091C1033,-138.0494 1033,-159 1033,-159 1033,-159 822.727,-159 822.727,-159"/>
<polygon fill="#000000" stroke="#000000" points="822.7271,-155.5001 812.727,-159 822.727,-162.5001 822.7271,-155.5001"/>
</g>
<!-- ArtistOverviewComponent -->
<g id="node5" class="node">
<title>ArtistOverviewComponent</title>
<polygon fill="#ffffb3" stroke="#000000" points="938.4101,-122 769.5899,-122 769.5899,-86 938.4101,-86 938.4101,-122"/>
<text text-anchor="middle" x="854" y="-99.8" font-family="Times,serif" font-size="14.00" fill="#000000">ArtistOverviewComponent</text>
</g>
<!-- ArtistOverviewComponent&#45;&gt;ArtistModule -->
<g id="edge5" class="edge">
<title>ArtistOverviewComponent&#45;&gt;ArtistModule</title>
<path fill="none" stroke="#000000" d="M791.256,-122.1061C791.256,-122.1061 791.256,-140.991 791.256,-140.991"/>
<polygon fill="#000000" stroke="#000000" points="787.756,-140.9909 791.256,-150.991 794.756,-140.991 787.756,-140.9909"/>
</g>
<!-- ArtistSongComponent -->
<g id="node6" class="node">
<title>ArtistSongComponent</title>
<polygon fill="#ffffb3" stroke="#000000" points="751.9986,-122 610.0014,-122 610.0014,-86 751.9986,-86 751.9986,-122"/>
<text text-anchor="middle" x="681" y="-99.8" font-family="Times,serif" font-size="14.00" fill="#000000">ArtistSongComponent</text>
</g>
<!-- ArtistSongComponent&#45;&gt;ArtistModule -->
<g id="edge6" class="edge">
<title>ArtistSongComponent&#45;&gt;ArtistModule</title>
<path fill="none" stroke="#000000" d="M736.6413,-122.1061C736.6413,-122.1061 736.6413,-140.991 736.6413,-140.991"/>
<polygon fill="#000000" stroke="#000000" points="733.1414,-140.9909 736.6413,-150.991 740.1414,-140.991 733.1414,-140.9909"/>
</g>
<!-- RelatedArtistsComponent -->
<g id="node7" class="node">
<title>RelatedArtistsComponent</title>
<polygon fill="#ffffb3" stroke="#000000" points="591.9228,-122 430.0772,-122 430.0772,-86 591.9228,-86 591.9228,-122"/>
<text text-anchor="middle" x="511" y="-99.8" font-family="Times,serif" font-size="14.00" fill="#000000">RelatedArtistsComponent</text>
</g>
<!-- RelatedArtistsComponent&#45;&gt;ArtistModule -->
<g id="edge7" class="edge">
<title>RelatedArtistsComponent&#45;&gt;ArtistModule</title>
<path fill="none" stroke="#000000" d="M511,-122.0091C511,-138.0494 511,-159 511,-159 511,-159 711.2323,-159 711.2323,-159"/>
<polygon fill="#000000" stroke="#000000" points="711.2324,-162.5001 721.2323,-159 711.2323,-155.5001 711.2324,-162.5001"/>
</g>
<!-- ArtistRoutingModule -->
<g id="node9" class="node">
<title>ArtistRoutingModule</title>
<polygon fill="#8dd3c7" stroke="#000000" points="406.0519,-122 403.0519,-126 382.0519,-126 379.0519,-122 269.9481,-122 269.9481,-86 406.0519,-86 406.0519,-122"/>
<text text-anchor="middle" x="338" y="-99.8" font-family="Times,serif" font-size="14.00" fill="#000000">ArtistRoutingModule</text>
</g>
<!-- ArtistRoutingModule&#45;&gt;ArtistModule -->
<g id="edge8" class="edge">
<title>ArtistRoutingModule&#45;&gt;ArtistModule</title>
<path fill="none" stroke="#000000" d="M338,-122.2667C338,-140.5552 338,-166 338,-166 338,-166 711.0895,-166 711.0895,-166"/>
<polygon fill="#000000" stroke="#000000" points="711.0895,-169.5001 721.0895,-166 711.0895,-162.5001 711.0895,-169.5001"/>
</g>
<!-- MayestroModule -->
<g id="node10" class="node">
<title>MayestroModule</title>
<polygon fill="#8dd3c7" stroke="#000000" points="252.4202,-122 249.4202,-126 228.4202,-126 225.4202,-122 139.5798,-122 139.5798,-86 252.4202,-86 252.4202,-122"/>
<text text-anchor="middle" x="196" y="-99.8" font-family="Times,serif" font-size="14.00" fill="#000000">MayestroModule</text>
</g>
<!-- MayestroModule&#45;&gt;ArtistModule -->
<g id="edge9" class="edge">
<title>MayestroModule&#45;&gt;ArtistModule</title>
<path fill="none" stroke="#000000" d="M196,-122.1289C196,-142.5724 196,-173 196,-173 196,-173 711.2379,-173 711.2379,-173"/>
<polygon fill="#000000" stroke="#000000" points="711.2379,-176.5001 721.2379,-173 711.2379,-169.5001 711.2379,-176.5001"/>
</g>
<!-- SharedModule -->
<g id="node11" class="node">
<title>SharedModule</title>
<polygon fill="#8dd3c7" stroke="#000000" points="122.4231,-122 119.4231,-126 98.4231,-126 95.4231,-122 23.5769,-122 23.5769,-86 122.4231,-86 122.4231,-122"/>
<text text-anchor="middle" x="73" y="-99.8" font-family="Times,serif" font-size="14.00" fill="#000000">SharedModule</text>
</g>
<!-- SharedModule&#45;&gt;ArtistModule -->
<g id="edge10" class="edge">
<title>SharedModule&#45;&gt;ArtistModule</title>
<path fill="none" stroke="#000000" d="M73,-122.0109C73,-144.4852 73,-180 73,-180 73,-180 711.1963,-180 711.1963,-180"/>
<polygon fill="#000000" stroke="#000000" points="711.1964,-183.5001 721.1963,-180 711.1963,-176.5001 711.1964,-183.5001"/>
</g>
</g>
</svg>
