<?xml version="1.0" encoding="UTF-8" standalone="no"?>
<!DOCTYPE svg PUBLIC "-//W3C//DTD SVG 1.1//EN"
 "http://www.w3.org/Graphics/SVG/1.1/DTD/svg11.dtd">
<!-- Generated by graphviz version 2.40.1 (20161225.0304)
 -->
<!-- Title: dependencies Pages: 1 -->
<svg width="1223pt" height="211pt"
 viewBox="0.00 0.00 1223.00 211.00" xmlns="http://www.w3.org/2000/svg" xmlns:xlink="http://www.w3.org/1999/xlink">
<g id="graph0" class="graph" transform="scale(1 1) rotate(0) translate(4 207)">
<title>dependencies</title>
<polygon fill="#ffffff" stroke="transparent" points="-4,4 -4,-207 1219,-207 1219,4 -4,4"/>
<text text-anchor="start" x="586.5091" y="-42.4" font-family="sans-serif" font-weight="bold" font-size="14.00" fill="#000000">Legend</text>
<polygon fill="#ffffb3" stroke="transparent" points="373.5,-10 373.5,-30 393.5,-30 393.5,-10 373.5,-10"/>
<text text-anchor="start" x="397.129" y="-15.4" font-family="sans-serif" font-size="14.00" fill="#000000"> &#160;Declarations</text>
<polygon fill="#8dd3c7" stroke="transparent" points="486.5,-10 486.5,-30 506.5,-30 506.5,-10 486.5,-10"/>
<text text-anchor="start" x="510.2251" y="-15.4" font-family="sans-serif" font-size="14.00" fill="#000000"> &#160;Module</text>
<polygon fill="#80b1d3" stroke="transparent" points="572.5,-10 572.5,-30 592.5,-30 592.5,-10 572.5,-10"/>
<text text-anchor="start" x="596.2812" y="-15.4" font-family="sans-serif" font-size="14.00" fill="#000000"> &#160;Bootstrap</text>
<polygon fill="#fdb462" stroke="transparent" points="669.5,-10 669.5,-30 689.5,-30 689.5,-10 669.5,-10"/>
<text text-anchor="start" x="693.1732" y="-15.4" font-family="sans-serif" font-size="14.00" fill="#000000"> &#160;Providers</text>
<polygon fill="#fb8072" stroke="transparent" points="765.5,-10 765.5,-30 785.5,-30 785.5,-10 765.5,-10"/>
<text text-anchor="start" x="789.2258" y="-15.4" font-family="sans-serif" font-size="14.00" fill="#000000"> &#160;Exports</text>
<g id="clust1" class="cluster">
<title>cluster_MayestroModule</title>
<polygon fill="none" stroke="#000000" stroke-dasharray="1,5" points="8,-70 8,-195 1207,-195 1207,-70 8,-70"/>
</g>
<g id="clust2" class="cluster">
<title>cluster_MayestroModule_declarations</title>
<polygon fill="none" stroke="#000000" points="314,-78 314,-130 1199,-130 1199,-78 314,-78"/>
</g>
<g id="clust9" class="cluster">
<title>cluster_MayestroModule_imports</title>
<polygon fill="none" stroke="#000000" points="16,-78 16,-130 306,-130 306,-78 16,-78"/>
</g>
<!-- CardComponent -->
<g id="node1" class="node">
<title>CardComponent</title>
<polygon fill="#ffffb3" stroke="#000000" points="1191.0452,-122 1082.9548,-122 1082.9548,-86 1191.0452,-86 1191.0452,-122"/>
<text text-anchor="middle" x="1137" y="-99.8" font-family="Times,serif" font-size="14.00" fill="#000000">CardComponent</text>
</g>
<!-- MayestroModule -->
<g id="node7" class="node">
<title>MayestroModule</title>
<polygon fill="#8dd3c7" stroke="#000000" points="663.4202,-187 660.4202,-191 639.4202,-191 636.4202,-187 550.5798,-187 550.5798,-151 663.4202,-151 663.4202,-187"/>
<text text-anchor="middle" x="607" y="-164.8" font-family="Times,serif" font-size="14.00" fill="#000000">MayestroModule</text>
</g>
<!-- CardComponent&#45;&gt;MayestroModule -->
<g id="edge1" class="edge">
<title>CardComponent&#45;&gt;MayestroModule</title>
<path fill="none" stroke="#000000" d="M1137,-122.2921C1137,-144.2057 1137,-178 1137,-178 1137,-178 673.2175,-178 673.2175,-178"/>
<polygon fill="#000000" stroke="#000000" points="673.2176,-174.5001 663.2175,-178 673.2175,-181.5001 673.2176,-174.5001"/>
</g>
<!-- HomeComponent -->
<g id="node2" class="node">
<title>HomeComponent</title>
<polygon fill="#ffffb3" stroke="#000000" points="1064.5451,-122 949.4549,-122 949.4549,-86 1064.5451,-86 1064.5451,-122"/>
<text text-anchor="middle" x="1007" y="-99.8" font-family="Times,serif" font-size="14.00" fill="#000000">HomeComponent</text>
</g>
<!-- HomeComponent&#45;&gt;MayestroModule -->
<g id="edge2" class="edge">
<title>HomeComponent&#45;&gt;MayestroModule</title>
<path fill="none" stroke="#000000" d="M1007,-122.1061C1007,-141.3391 1007,-169 1007,-169 1007,-169 673.4619,-169 673.4619,-169"/>
<polygon fill="#000000" stroke="#000000" points="673.4619,-165.5001 663.4619,-169 673.4618,-172.5001 673.4619,-165.5001"/>
</g>
<!-- MayestroComponent -->
<g id="node3" class="node">
<title>MayestroComponent</title>
<polygon fill="#ffffb3" stroke="#000000" points="931.2022,-122 796.7978,-122 796.7978,-86 931.2022,-86 931.2022,-122"/>
<text text-anchor="middle" x="864" y="-99.8" font-family="Times,serif" font-size="14.00" fill="#000000">MayestroComponent</text>
</g>
<!-- MayestroComponent&#45;&gt;MayestroModule -->
<g id="edge3" class="edge">
<title>MayestroComponent&#45;&gt;MayestroModule</title>
<path fill="none" stroke="#000000" d="M864,-122.027C864,-138.3976 864,-160 864,-160 864,-160 673.3997,-160 673.3997,-160"/>
<polygon fill="#000000" stroke="#000000" points="673.3998,-156.5001 663.3997,-160 673.3997,-163.5001 673.3998,-156.5001"/>
</g>
<!-- MiniCardViewerComponent -->
<g id="node4" class="node">
<title>MiniCardViewerComponent</title>
<polygon fill="#ffffb3" stroke="#000000" points="778.4636,-122 601.5364,-122 601.5364,-86 778.4636,-86 778.4636,-122"/>
<text text-anchor="middle" x="690" y="-99.8" font-family="Times,serif" font-size="14.00" fill="#000000">MiniCardViewerComponent</text>
</g>
<!-- MiniCardViewerComponent&#45;&gt;MayestroModule -->
<g id="edge4" class="edge">
<title>MiniCardViewerComponent&#45;&gt;MayestroModule</title>
<path fill="none" stroke="#000000" d="M632.3639,-122.1061C632.3639,-122.1061 632.3639,-140.991 632.3639,-140.991"/>
<polygon fill="#000000" stroke="#000000" points="628.864,-140.9909 632.3639,-150.991 635.864,-140.991 628.864,-140.9909"/>
</g>
<!-- PlayerComponent -->
<g id="node5" class="node">
<title>PlayerComponent</title>
<polygon fill="#ffffb3" stroke="#000000" points="583.5954,-122 466.4046,-122 466.4046,-86 583.5954,-86 583.5954,-122"/>
<text text-anchor="middle" x="525" y="-99.8" font-family="Times,serif" font-size="14.00" fill="#000000">PlayerComponent</text>
</g>
<!-- PlayerComponent&#45;&gt;MayestroModule -->
<g id="edge5" class="edge">
<title>PlayerComponent&#45;&gt;MayestroModule</title>
<path fill="none" stroke="#000000" d="M567.169,-122.1061C567.169,-122.1061 567.169,-140.991 567.169,-140.991"/>
<polygon fill="#000000" stroke="#000000" points="563.6691,-140.9909 567.169,-150.991 570.6691,-140.991 563.6691,-140.9909"/>
</g>
<!-- SideBarComponent -->
<g id="node6" class="node">
<title>SideBarComponent</title>
<polygon fill="#ffffb3" stroke="#000000" points="448.4327,-122 321.5673,-122 321.5673,-86 448.4327,-86 448.4327,-122"/>
<text text-anchor="middle" x="385" y="-99.8" font-family="Times,serif" font-size="14.00" fill="#000000">SideBarComponent</text>
</g>
<!-- SideBarComponent&#45;&gt;MayestroModule -->
<g id="edge6" class="edge">
<title>SideBarComponent&#45;&gt;MayestroModule</title>
<path fill="none" stroke="#000000" d="M385,-122.027C385,-138.3976 385,-160 385,-160 385,-160 540.693,-160 540.693,-160"/>
<polygon fill="#000000" stroke="#000000" points="540.6931,-163.5001 550.693,-160 540.693,-156.5001 540.6931,-163.5001"/>
</g>
<!-- MayestroRoutingModule -->
<g id="node8" class="node">
<title>MayestroRoutingModule</title>
<polygon fill="#8dd3c7" stroke="#000000" points="297.5379,-122 294.5379,-126 273.5379,-126 270.5379,-122 140.4621,-122 140.4621,-86 297.5379,-86 297.5379,-122"/>
<text text-anchor="middle" x="219" y="-99.8" font-family="Times,serif" font-size="14.00" fill="#000000">MayestroRoutingModule</text>
</g>
<!-- MayestroRoutingModule&#45;&gt;MayestroModule -->
<g id="edge7" class="edge">
<title>MayestroRoutingModule&#45;&gt;MayestroModule</title>
<path fill="none" stroke="#000000" d="M219,-122.1061C219,-141.3391 219,-169 219,-169 219,-169 540.5815,-169 540.5815,-169"/>
<polygon fill="#000000" stroke="#000000" points="540.5815,-172.5001 550.5815,-169 540.5814,-165.5001 540.5815,-172.5001"/>
</g>
<!-- SharedModule -->
<g id="node9" class="node">
<title>SharedModule</title>
<polygon fill="#8dd3c7" stroke="#000000" points="122.4231,-122 119.4231,-126 98.4231,-126 95.4231,-122 23.5769,-122 23.5769,-86 122.4231,-86 122.4231,-122"/>
<text text-anchor="middle" x="73" y="-99.8" font-family="Times,serif" font-size="14.00" fill="#000000">SharedModule</text>
</g>
<!-- SharedModule&#45;&gt;MayestroModule -->
<g id="edge8" class="edge">
<title>SharedModule&#45;&gt;MayestroModule</title>
<path fill="none" stroke="#000000" d="M73,-122.2921C73,-144.2057 73,-178 73,-178 73,-178 540.6103,-178 540.6103,-178"/>
<polygon fill="#000000" stroke="#000000" points="540.6103,-181.5001 550.6103,-178 540.6103,-174.5001 540.6103,-181.5001"/>
</g>
</g>
</svg>
