<?xml version="1.0" encoding="UTF-8" standalone="no"?>
<!DOCTYPE svg PUBLIC "-//W3C//DTD SVG 1.1//EN"
 "http://www.w3.org/Graphics/SVG/1.1/DTD/svg11.dtd">
<!-- Generated by graphviz version 2.40.1 (20161225.0304)
 -->
<!-- Title: dependencies Pages: 1 -->
<svg width="1636pt" height="211pt"
 viewBox="0.00 0.00 1636.00 211.00" xmlns="http://www.w3.org/2000/svg" xmlns:xlink="http://www.w3.org/1999/xlink">
<g id="graph0" class="graph" transform="scale(1 1) rotate(0) translate(4 207)">
<title>dependencies</title>
<polygon fill="#ffffff" stroke="transparent" points="-4,4 -4,-207 1632,-207 1632,4 -4,4"/>
<text text-anchor="start" x="793.0091" y="-42.4" font-family="sans-serif" font-weight="bold" font-size="14.00" fill="#000000">Legend</text>
<polygon fill="#ffffb3" stroke="transparent" points="580,-10 580,-30 600,-30 600,-10 580,-10"/>
<text text-anchor="start" x="603.629" y="-15.4" font-family="sans-serif" font-size="14.00" fill="#000000"> &#160;Declarations</text>
<polygon fill="#8dd3c7" stroke="transparent" points="693,-10 693,-30 713,-30 713,-10 693,-10"/>
<text text-anchor="start" x="716.7251" y="-15.4" font-family="sans-serif" font-size="14.00" fill="#000000"> &#160;Module</text>
<polygon fill="#80b1d3" stroke="transparent" points="779,-10 779,-30 799,-30 799,-10 779,-10"/>
<text text-anchor="start" x="802.7812" y="-15.4" font-family="sans-serif" font-size="14.00" fill="#000000"> &#160;Bootstrap</text>
<polygon fill="#fdb462" stroke="transparent" points="876,-10 876,-30 896,-30 896,-10 876,-10"/>
<text text-anchor="start" x="899.6732" y="-15.4" font-family="sans-serif" font-size="14.00" fill="#000000"> &#160;Providers</text>
<polygon fill="#fb8072" stroke="transparent" points="972,-10 972,-30 992,-30 992,-10 972,-10"/>
<text text-anchor="start" x="995.7258" y="-15.4" font-family="sans-serif" font-size="14.00" fill="#000000"> &#160;Exports</text>
<g id="clust1" class="cluster">
<title>cluster_OpenMayestroModule</title>
<polygon fill="none" stroke="#000000" stroke-dasharray="1,5" points="8,-70 8,-195 1620,-195 1620,-70 8,-70"/>
</g>
<g id="clust2" class="cluster">
<title>cluster_OpenMayestroModule_declarations</title>
<polygon fill="none" stroke="#000000" points="484,-78 484,-130 1612,-130 1612,-78 484,-78"/>
</g>
<g id="clust10" class="cluster">
<title>cluster_OpenMayestroModule_imports</title>
<polygon fill="none" stroke="#000000" points="156,-78 156,-130 476,-130 476,-78 156,-78"/>
</g>
<g id="clust13" class="cluster">
<title>cluster_OpenMayestroModule_providers</title>
<polygon fill="none" stroke="#000000" points="16,-78 16,-130 148,-130 148,-78 16,-78"/>
</g>
<!-- FooterComponent -->
<g id="node1" class="node">
<title>FooterComponent</title>
<polygon fill="#ffffb3" stroke="#000000" points="1603.8809,-122 1486.1191,-122 1486.1191,-86 1603.8809,-86 1603.8809,-122"/>
<text text-anchor="middle" x="1545" y="-99.8" font-family="Times,serif" font-size="14.00" fill="#000000">FooterComponent</text>
</g>
<!-- OpenMayestroModule -->
<g id="node8" class="node">
<title>OpenMayestroModule</title>
<polygon fill="#8dd3c7" stroke="#000000" points="888.2408,-187 885.2408,-191 864.2408,-191 861.2408,-187 745.7592,-187 745.7592,-151 888.2408,-151 888.2408,-187"/>
<text text-anchor="middle" x="817" y="-164.8" font-family="Times,serif" font-size="14.00" fill="#000000">OpenMayestroModule</text>
</g>
<!-- FooterComponent&#45;&gt;OpenMayestroModule -->
<g id="edge1" class="edge">
<title>FooterComponent&#45;&gt;OpenMayestroModule</title>
<path fill="none" stroke="#000000" d="M1545,-122.0109C1545,-144.4852 1545,-180 1545,-180 1545,-180 898.4622,-180 898.4622,-180"/>
<polygon fill="#000000" stroke="#000000" points="898.4622,-176.5001 888.4622,-180 898.4622,-183.5001 898.4622,-176.5001"/>
</g>
<!-- NotificationComponent -->
<g id="node2" class="node">
<title>NotificationComponent</title>
<polygon fill="#ffffb3" stroke="#000000" points="1468.4818,-122 1319.5182,-122 1319.5182,-86 1468.4818,-86 1468.4818,-122"/>
<text text-anchor="middle" x="1394" y="-99.8" font-family="Times,serif" font-size="14.00" fill="#000000">NotificationComponent</text>
</g>
<!-- NotificationComponent&#45;&gt;OpenMayestroModule -->
<g id="edge2" class="edge">
<title>NotificationComponent&#45;&gt;OpenMayestroModule</title>
<path fill="none" stroke="#000000" d="M1394,-122.1289C1394,-142.5724 1394,-173 1394,-173 1394,-173 898.3302,-173 898.3302,-173"/>
<polygon fill="#000000" stroke="#000000" points="898.3303,-169.5001 888.3302,-173 898.3302,-176.5001 898.3303,-169.5001"/>
</g>
<!-- OpenMayestroComponent -->
<g id="node3" class="node">
<title>OpenMayestroComponent</title>
<polygon fill="#ffffb3" stroke="#000000" points="1301.0239,-122 1136.9761,-122 1136.9761,-86 1301.0239,-86 1301.0239,-122"/>
<text text-anchor="middle" x="1219" y="-99.8" font-family="Times,serif" font-size="14.00" fill="#000000">OpenMayestroComponent</text>
</g>
<!-- OpenMayestroComponent&#45;&gt;OpenMayestroModule -->
<g id="edge3" class="edge">
<title>OpenMayestroComponent&#45;&gt;OpenMayestroModule</title>
<path fill="none" stroke="#000000" d="M1219,-122.2667C1219,-140.5552 1219,-166 1219,-166 1219,-166 898.4063,-166 898.4063,-166"/>
<polygon fill="#000000" stroke="#000000" points="898.4064,-162.5001 888.4063,-166 898.4063,-169.5001 898.4064,-162.5001"/>
</g>
<!-- OverviewComponent -->
<g id="node4" class="node">
<title>OverviewComponent</title>
<polygon fill="#ffffb3" stroke="#000000" points="1118.0268,-122 981.9732,-122 981.9732,-86 1118.0268,-86 1118.0268,-122"/>
<text text-anchor="middle" x="1050" y="-99.8" font-family="Times,serif" font-size="14.00" fill="#000000">OverviewComponent</text>
</g>
<!-- OverviewComponent&#45;&gt;OpenMayestroModule -->
<g id="edge4" class="edge">
<title>OverviewComponent&#45;&gt;OpenMayestroModule</title>
<path fill="none" stroke="#000000" d="M1050,-122.0091C1050,-138.0494 1050,-159 1050,-159 1050,-159 898.4911,-159 898.4911,-159"/>
<polygon fill="#000000" stroke="#000000" points="898.4912,-155.5001 888.4911,-159 898.4911,-162.5001 898.4912,-155.5001"/>
</g>
<!-- ProfileComponent -->
<g id="node5" class="node">
<title>ProfileComponent</title>
<polygon fill="#ffffb3" stroke="#000000" points="963.9328,-122 844.0672,-122 844.0672,-86 963.9328,-86 963.9328,-122"/>
<text text-anchor="middle" x="904" y="-99.8" font-family="Times,serif" font-size="14.00" fill="#000000">ProfileComponent</text>
</g>
<!-- ProfileComponent&#45;&gt;OpenMayestroModule -->
<g id="edge5" class="edge">
<title>ProfileComponent&#45;&gt;OpenMayestroModule</title>
<path fill="none" stroke="#000000" d="M866.3272,-122.1061C866.3272,-122.1061 866.3272,-140.991 866.3272,-140.991"/>
<polygon fill="#000000" stroke="#000000" points="862.8272,-140.9909 866.3272,-150.991 869.8272,-140.991 862.8272,-140.9909"/>
</g>
<!-- SetDevicePasswordComponent -->
<g id="node6" class="node">
<title>SetDevicePasswordComponent</title>
<polygon fill="#ffffb3" stroke="#000000" points="826.0154,-122 633.9846,-122 633.9846,-86 826.0154,-86 826.0154,-122"/>
<text text-anchor="middle" x="730" y="-99.8" font-family="Times,serif" font-size="14.00" fill="#000000">SetDevicePasswordComponent</text>
</g>
<!-- SetDevicePasswordComponent&#45;&gt;OpenMayestroModule -->
<g id="edge6" class="edge">
<title>SetDevicePasswordComponent&#45;&gt;OpenMayestroModule</title>
<path fill="none" stroke="#000000" d="M785.9436,-122.1061C785.9436,-122.1061 785.9436,-140.991 785.9436,-140.991"/>
<polygon fill="#000000" stroke="#000000" points="782.4436,-140.9909 785.9436,-150.991 789.4436,-140.991 782.4436,-140.9909"/>
</g>
<!-- SidebarComponent -->
<g id="node7" class="node">
<title>SidebarComponent</title>
<polygon fill="#ffffb3" stroke="#000000" points="616.0954,-122 491.9046,-122 491.9046,-86 616.0954,-86 616.0954,-122"/>
<text text-anchor="middle" x="554" y="-99.8" font-family="Times,serif" font-size="14.00" fill="#000000">SidebarComponent</text>
</g>
<!-- SidebarComponent&#45;&gt;OpenMayestroModule -->
<g id="edge7" class="edge">
<title>SidebarComponent&#45;&gt;OpenMayestroModule</title>
<path fill="none" stroke="#000000" d="M554,-122.0091C554,-138.0494 554,-159 554,-159 554,-159 735.4815,-159 735.4815,-159"/>
<polygon fill="#000000" stroke="#000000" points="735.4815,-162.5001 745.4815,-159 735.4815,-155.5001 735.4815,-162.5001"/>
</g>
<!-- OpenMayestroRoutingModule -->
<g id="node9" class="node">
<title>OpenMayestroRoutingModule</title>
<polygon fill="#8dd3c7" stroke="#000000" points="467.8585,-122 464.8585,-126 443.8585,-126 440.8585,-122 280.1415,-122 280.1415,-86 467.8585,-86 467.8585,-122"/>
<text text-anchor="middle" x="374" y="-99.8" font-family="Times,serif" font-size="14.00" fill="#000000">OpenMayestroRoutingModule</text>
</g>
<!-- OpenMayestroRoutingModule&#45;&gt;OpenMayestroModule -->
<g id="edge8" class="edge">
<title>OpenMayestroRoutingModule&#45;&gt;OpenMayestroModule</title>
<path fill="none" stroke="#000000" d="M374,-122.2667C374,-140.5552 374,-166 374,-166 374,-166 735.332,-166 735.332,-166"/>
<polygon fill="#000000" stroke="#000000" points="735.3321,-169.5001 745.332,-166 735.332,-162.5001 735.3321,-169.5001"/>
</g>
<!-- SharedModule -->
<g id="node10" class="node">
<title>SharedModule</title>
<polygon fill="#8dd3c7" stroke="#000000" points="262.4231,-122 259.4231,-126 238.4231,-126 235.4231,-122 163.5769,-122 163.5769,-86 262.4231,-86 262.4231,-122"/>
<text text-anchor="middle" x="213" y="-99.8" font-family="Times,serif" font-size="14.00" fill="#000000">SharedModule</text>
</g>
<!-- SharedModule&#45;&gt;OpenMayestroModule -->
<g id="edge9" class="edge">
<title>SharedModule&#45;&gt;OpenMayestroModule</title>
<path fill="none" stroke="#000000" d="M213,-122.1289C213,-142.5724 213,-173 213,-173 213,-173 735.6396,-173 735.6396,-173"/>
<polygon fill="#000000" stroke="#000000" points="735.6397,-176.5001 745.6396,-173 735.6396,-169.5001 735.6397,-176.5001"/>
</g>
<!-- UserService -->
<g id="node11" class="node">
<title>UserService</title>
<ellipse fill="#fdb462" stroke="#000000" cx="82" cy="-104" rx="58.4415" ry="18"/>
<text text-anchor="middle" x="82" y="-99.8" font-family="Times,serif" font-size="14.00" fill="#000000">UserService</text>
</g>
<!-- UserService&#45;&gt;OpenMayestroModule -->
<g id="edge10" class="edge">
<title>UserService&#45;&gt;OpenMayestroModule</title>
<path fill="none" stroke="#000000" d="M82,-122.0109C82,-144.4852 82,-180 82,-180 82,-180 735.5224,-180 735.5224,-180"/>
<polygon fill="#000000" stroke="#000000" points="735.5224,-183.5001 745.5224,-180 735.5224,-176.5001 735.5224,-183.5001"/>
</g>
</g>
</svg>
