<?xml version="1.0" encoding="UTF-8" standalone="no"?>
<!DOCTYPE svg PUBLIC "-//W3C//DTD SVG 1.1//EN"
 "http://www.w3.org/Graphics/SVG/1.1/DTD/svg11.dtd">
<!-- Generated by graphviz version 2.40.1 (20161225.0304)
 -->
<!-- Title: dependencies Pages: 1 -->
<svg width="2467pt" height="211pt"
 viewBox="0.00 0.00 2467.00 211.00" xmlns="http://www.w3.org/2000/svg" xmlns:xlink="http://www.w3.org/1999/xlink">
<g id="graph0" class="graph" transform="scale(1 1) rotate(0) translate(4 207)">
<title>dependencies</title>
<polygon fill="#ffffff" stroke="transparent" points="-4,4 -4,-207 2463,-207 2463,4 -4,4"/>
<text text-anchor="start" x="1208.5091" y="-42.4" font-family="sans-serif" font-weight="bold" font-size="14.00" fill="#000000">Legend</text>
<polygon fill="#ffffb3" stroke="transparent" points="995.5,-10 995.5,-30 1015.5,-30 1015.5,-10 995.5,-10"/>
<text text-anchor="start" x="1019.129" y="-15.4" font-family="sans-serif" font-size="14.00" fill="#000000"> &#160;Declarations</text>
<polygon fill="#8dd3c7" stroke="transparent" points="1108.5,-10 1108.5,-30 1128.5,-30 1128.5,-10 1108.5,-10"/>
<text text-anchor="start" x="1132.2251" y="-15.4" font-family="sans-serif" font-size="14.00" fill="#000000"> &#160;Module</text>
<polygon fill="#80b1d3" stroke="transparent" points="1194.5,-10 1194.5,-30 1214.5,-30 1214.5,-10 1194.5,-10"/>
<text text-anchor="start" x="1218.2812" y="-15.4" font-family="sans-serif" font-size="14.00" fill="#000000"> &#160;Bootstrap</text>
<polygon fill="#fdb462" stroke="transparent" points="1291.5,-10 1291.5,-30 1311.5,-30 1311.5,-10 1291.5,-10"/>
<text text-anchor="start" x="1315.1732" y="-15.4" font-family="sans-serif" font-size="14.00" fill="#000000"> &#160;Providers</text>
<polygon fill="#fb8072" stroke="transparent" points="1387.5,-10 1387.5,-30 1407.5,-30 1407.5,-10 1387.5,-10"/>
<text text-anchor="start" x="1411.2258" y="-15.4" font-family="sans-serif" font-size="14.00" fill="#000000"> &#160;Exports</text>
<g id="clust1" class="cluster">
<title>cluster_OpenMayestroModule</title>
<polygon fill="none" stroke="#000000" stroke-dasharray="1,5" points="8,-70 8,-195 2451,-195 2451,-70 8,-70"/>
</g>
<g id="clust2" class="cluster">
<title>cluster_OpenMayestroModule_declarations</title>
<polygon fill="none" stroke="#000000" points="484,-78 484,-130 2443,-130 2443,-78 484,-78"/>
</g>
<g id="clust15" class="cluster">
<title>cluster_OpenMayestroModule_imports</title>
<polygon fill="none" stroke="#000000" points="156,-78 156,-130 476,-130 476,-78 156,-78"/>
</g>
<g id="clust18" class="cluster">
<title>cluster_OpenMayestroModule_providers</title>
<polygon fill="none" stroke="#000000" points="16,-78 16,-130 148,-130 148,-78 16,-78"/>
</g>
<!-- ChangePlanComponent -->
<g id="node1" class="node">
<title>ChangePlanComponent</title>
<polygon fill="#ffffb3" stroke="#000000" points="2435.486,-122 2286.514,-122 2286.514,-86 2435.486,-86 2435.486,-122"/>
<text text-anchor="middle" x="2361" y="-99.8" font-family="Times,serif" font-size="14.00" fill="#000000">ChangePlanComponent</text>
</g>
<!-- OpenMayestroModule -->
<g id="node13" class="node">
<title>OpenMayestroModule</title>
<polygon fill="#8dd3c7" stroke="#000000" points="1251.2408,-187 1248.2408,-191 1227.2408,-191 1224.2408,-187 1108.7592,-187 1108.7592,-151 1251.2408,-151 1251.2408,-187"/>
<text text-anchor="middle" x="1180" y="-164.8" font-family="Times,serif" font-size="14.00" fill="#000000">OpenMayestroModule</text>
</g>
<!-- ChangePlanComponent&#45;&gt;OpenMayestroModule -->
<g id="edge1" class="edge">
<title>ChangePlanComponent&#45;&gt;OpenMayestroModule</title>
<path fill="none" stroke="#000000" d="M2361,-122.3228C2361,-145.6602 2361,-183 2361,-183 2361,-183 1261.6575,-183 1261.6575,-183"/>
<polygon fill="#000000" stroke="#000000" points="1261.6576,-179.5001 1251.6575,-183 1261.6575,-186.5001 1261.6576,-179.5001"/>
</g>
<!-- FooterComponent -->
<g id="node2" class="node">
<title>FooterComponent</title>
<polygon fill="#ffffb3" stroke="#000000" points="2268.8809,-122 2151.1191,-122 2151.1191,-86 2268.8809,-86 2268.8809,-122"/>
<text text-anchor="middle" x="2210" y="-99.8" font-family="Times,serif" font-size="14.00" fill="#000000">FooterComponent</text>
</g>
<!-- FooterComponent&#45;&gt;OpenMayestroModule -->
<g id="edge2" class="edge">
<title>FooterComponent&#45;&gt;OpenMayestroModule</title>
<path fill="none" stroke="#000000" d="M2210,-122.2921C2210,-144.2057 2210,-178 2210,-178 2210,-178 1261.6098,-178 1261.6098,-178"/>
<polygon fill="#000000" stroke="#000000" points="1261.6099,-174.5001 1251.6098,-178 1261.6098,-181.5001 1261.6099,-174.5001"/>
</g>
<!-- GetPremiumComponent -->
<g id="node3" class="node">
<title>GetPremiumComponent</title>
<polygon fill="#ffffb3" stroke="#000000" points="2133.3739,-122 1980.6261,-122 1980.6261,-86 2133.3739,-86 2133.3739,-122"/>
<text text-anchor="middle" x="2057" y="-99.8" font-family="Times,serif" font-size="14.00" fill="#000000">GetPremiumComponent</text>
</g>
<!-- GetPremiumComponent&#45;&gt;OpenMayestroModule -->
<g id="edge3" class="edge">
<title>GetPremiumComponent&#45;&gt;OpenMayestroModule</title>
<path fill="none" stroke="#000000" d="M2057,-122.0267C2057,-142.7672 2057,-174 2057,-174 2057,-174 1261.3967,-174 1261.3967,-174"/>
<polygon fill="#000000" stroke="#000000" points="1261.3968,-170.5001 1251.3967,-174 1261.3967,-177.5001 1261.3968,-170.5001"/>
</g>
<!-- GetPremiumHeaderComponent -->
<g id="node4" class="node">
<title>GetPremiumHeaderComponent</title>
<polygon fill="#ffffb3" stroke="#000000" points="1962.785,-122 1769.215,-122 1769.215,-86 1962.785,-86 1962.785,-122"/>
<text text-anchor="middle" x="1866" y="-99.8" font-family="Times,serif" font-size="14.00" fill="#000000">GetPremiumHeaderComponent</text>
</g>
<!-- GetPremiumHeaderComponent&#45;&gt;OpenMayestroModule -->
<g id="edge4" class="edge">
<title>GetPremiumHeaderComponent&#45;&gt;OpenMayestroModule</title>
<path fill="none" stroke="#000000" d="M1866,-122.1061C1866,-141.3391 1866,-169 1866,-169 1866,-169 1261.4727,-169 1261.4727,-169"/>
<polygon fill="#000000" stroke="#000000" points="1261.4727,-165.5001 1251.4727,-169 1261.4726,-172.5001 1261.4727,-165.5001"/>
</g>
<!-- NotificationComponent -->
<g id="node5" class="node">
<title>NotificationComponent</title>
<polygon fill="#ffffb3" stroke="#000000" points="1751.4818,-122 1602.5182,-122 1602.5182,-86 1751.4818,-86 1751.4818,-122"/>
<text text-anchor="middle" x="1677" y="-99.8" font-family="Times,serif" font-size="14.00" fill="#000000">NotificationComponent</text>
</g>
<!-- NotificationComponent&#45;&gt;OpenMayestroModule -->
<g id="edge5" class="edge">
<title>NotificationComponent&#45;&gt;OpenMayestroModule</title>
<path fill="none" stroke="#000000" d="M1677,-122.302C1677,-140.2699 1677,-165 1677,-165 1677,-165 1261.4724,-165 1261.4724,-165"/>
<polygon fill="#000000" stroke="#000000" points="1261.4725,-161.5001 1251.4724,-165 1261.4724,-168.5001 1261.4725,-161.5001"/>
</g>
<!-- OpenMayestroComponent -->
<g id="node6" class="node">
<title>OpenMayestroComponent</title>
<polygon fill="#ffffb3" stroke="#000000" points="1584.0239,-122 1419.9761,-122 1419.9761,-86 1584.0239,-86 1584.0239,-122"/>
<text text-anchor="middle" x="1502" y="-99.8" font-family="Times,serif" font-size="14.00" fill="#000000">OpenMayestroComponent</text>
</g>
<!-- OpenMayestroComponent&#45;&gt;OpenMayestroModule -->
<g id="edge6" class="edge">
<title>OpenMayestroComponent&#45;&gt;OpenMayestroModule</title>
<path fill="none" stroke="#000000" d="M1502,-122.027C1502,-138.3976 1502,-160 1502,-160 1502,-160 1261.4622,-160 1261.4622,-160"/>
<polygon fill="#000000" stroke="#000000" points="1261.4623,-156.5001 1251.4622,-160 1261.4622,-163.5001 1261.4623,-156.5001"/>
</g>
<!-- OverviewComponent -->
<g id="node7" class="node">
<title>OverviewComponent</title>
<polygon fill="#ffffb3" stroke="#000000" points="1401.0268,-122 1264.9732,-122 1264.9732,-86 1401.0268,-86 1401.0268,-122"/>
<text text-anchor="middle" x="1333" y="-99.8" font-family="Times,serif" font-size="14.00" fill="#000000">OverviewComponent</text>
</g>
<!-- OverviewComponent&#45;&gt;OpenMayestroModule -->
<g id="edge7" class="edge">
<title>OverviewComponent&#45;&gt;OpenMayestroModule</title>
<path fill="none" stroke="#000000" d="M1333,-122.1871C1333,-137.1824 1333,-156 1333,-156 1333,-156 1261.5724,-156 1261.5724,-156"/>
<polygon fill="#000000" stroke="#000000" points="1261.5724,-152.5001 1251.5724,-156 1261.5723,-159.5001 1261.5724,-152.5001"/>
</g>
<!-- PremiumComponent -->
<g id="node8" class="node">
<title>PremiumComponent</title>
<polygon fill="#ffffb3" stroke="#000000" points="1246.1624,-122 1113.8376,-122 1113.8376,-86 1246.1624,-86 1246.1624,-122"/>
<text text-anchor="middle" x="1180" y="-99.8" font-family="Times,serif" font-size="14.00" fill="#000000">PremiumComponent</text>
</g>
<!-- PremiumComponent&#45;&gt;OpenMayestroModule -->
<g id="edge8" class="edge">
<title>PremiumComponent&#45;&gt;OpenMayestroModule</title>
<path fill="none" stroke="#000000" d="M1180,-122.1061C1180,-122.1061 1180,-140.991 1180,-140.991"/>
<polygon fill="#000000" stroke="#000000" points="1176.5001,-140.9909 1180,-150.991 1183.5001,-140.991 1176.5001,-140.9909"/>
</g>
<!-- ProfileComponent -->
<g id="node9" class="node">
<title>ProfileComponent</title>
<polygon fill="#ffffb3" stroke="#000000" points="1095.9328,-122 976.0672,-122 976.0672,-86 1095.9328,-86 1095.9328,-122"/>
<text text-anchor="middle" x="1036" y="-99.8" font-family="Times,serif" font-size="14.00" fill="#000000">ProfileComponent</text>
</g>
<!-- ProfileComponent&#45;&gt;OpenMayestroModule -->
<g id="edge9" class="edge">
<title>ProfileComponent&#45;&gt;OpenMayestroModule</title>
<path fill="none" stroke="#000000" d="M1036,-122.1871C1036,-137.1824 1036,-156 1036,-156 1036,-156 1098.4219,-156 1098.4219,-156"/>
<polygon fill="#000000" stroke="#000000" points="1098.4219,-159.5001 1108.4219,-156 1098.4218,-152.5001 1098.4219,-159.5001"/>
</g>
<!-- SetDevicePasswordComponent -->
<g id="node10" class="node">
<title>SetDevicePasswordComponent</title>
<polygon fill="#ffffb3" stroke="#000000" points="958.0154,-122 765.9846,-122 765.9846,-86 958.0154,-86 958.0154,-122"/>
<text text-anchor="middle" x="862" y="-99.8" font-family="Times,serif" font-size="14.00" fill="#000000">SetDevicePasswordComponent</text>
</g>
<!-- SetDevicePasswordComponent&#45;&gt;OpenMayestroModule -->
<g id="edge10" class="edge">
<title>SetDevicePasswordComponent&#45;&gt;OpenMayestroModule</title>
<path fill="none" stroke="#000000" d="M862,-122.027C862,-138.3976 862,-160 862,-160 862,-160 1098.6346,-160 1098.6346,-160"/>
<polygon fill="#000000" stroke="#000000" points="1098.6346,-163.5001 1108.6346,-160 1098.6346,-156.5001 1098.6346,-163.5001"/>
</g>
<!-- SidebarComponent -->
<g id="node11" class="node">
<title>SidebarComponent</title>
<polygon fill="#ffffb3" stroke="#000000" points="748.0954,-122 623.9046,-122 623.9046,-86 748.0954,-86 748.0954,-122"/>
<text text-anchor="middle" x="686" y="-99.8" font-family="Times,serif" font-size="14.00" fill="#000000">SidebarComponent</text>
</g>
<!-- SidebarComponent&#45;&gt;OpenMayestroModule -->
<g id="edge11" class="edge">
<title>SidebarComponent&#45;&gt;OpenMayestroModule</title>
<path fill="none" stroke="#000000" d="M686,-122.302C686,-140.2699 686,-165 686,-165 686,-165 1098.6957,-165 1098.6957,-165"/>
<polygon fill="#000000" stroke="#000000" points="1098.6958,-168.5001 1108.6957,-165 1098.6957,-161.5001 1098.6958,-168.5001"/>
</g>
<!-- TrackComponent -->
<g id="node12" class="node">
<title>TrackComponent</title>
<polygon fill="#ffffb3" stroke="#000000" points="605.9748,-122 492.0252,-122 492.0252,-86 605.9748,-86 605.9748,-122"/>
<text text-anchor="middle" x="549" y="-99.8" font-family="Times,serif" font-size="14.00" fill="#000000">TrackComponent</text>
</g>
<!-- TrackComponent&#45;&gt;OpenMayestroModule -->
<g id="edge12" class="edge">
<title>TrackComponent&#45;&gt;OpenMayestroModule</title>
<path fill="none" stroke="#000000" d="M549,-122.1061C549,-141.3391 549,-169 549,-169 549,-169 1098.537,-169 1098.537,-169"/>
<polygon fill="#000000" stroke="#000000" points="1098.537,-172.5001 1108.537,-169 1098.537,-165.5001 1098.537,-172.5001"/>
</g>
<!-- OpenMayestroRoutingModule -->
<g id="node14" class="node">
<title>OpenMayestroRoutingModule</title>
<polygon fill="#8dd3c7" stroke="#000000" points="467.8585,-122 464.8585,-126 443.8585,-126 440.8585,-122 280.1415,-122 280.1415,-86 467.8585,-86 467.8585,-122"/>
<text text-anchor="middle" x="374" y="-99.8" font-family="Times,serif" font-size="14.00" fill="#000000">OpenMayestroRoutingModule</text>
</g>
<!-- OpenMayestroRoutingModule&#45;&gt;OpenMayestroModule -->
<g id="edge13" class="edge">
<title>OpenMayestroRoutingModule&#45;&gt;OpenMayestroModule</title>
<path fill="none" stroke="#000000" d="M374,-122.0267C374,-142.7672 374,-174 374,-174 374,-174 1098.4729,-174 1098.4729,-174"/>
<polygon fill="#000000" stroke="#000000" points="1098.4729,-177.5001 1108.4729,-174 1098.4728,-170.5001 1098.4729,-177.5001"/>
</g>
<!-- SharedModule -->
<g id="node15" class="node">
<title>SharedModule</title>
<polygon fill="#8dd3c7" stroke="#000000" points="262.4231,-122 259.4231,-126 238.4231,-126 235.4231,-122 163.5769,-122 163.5769,-86 262.4231,-86 262.4231,-122"/>
<text text-anchor="middle" x="213" y="-99.8" font-family="Times,serif" font-size="14.00" fill="#000000">SharedModule</text>
</g>
<!-- SharedModule&#45;&gt;OpenMayestroModule -->
<g id="edge14" class="edge">
<title>SharedModule&#45;&gt;OpenMayestroModule</title>
<path fill="none" stroke="#000000" d="M213,-122.2921C213,-144.2057 213,-178 213,-178 213,-178 1098.5015,-178 1098.5015,-178"/>
<polygon fill="#000000" stroke="#000000" points="1098.5015,-181.5001 1108.5015,-178 1098.5014,-174.5001 1098.5015,-181.5001"/>
</g>
<!-- UserService -->
<g id="node16" class="node">
<title>UserService</title>
<ellipse fill="#fdb462" stroke="#000000" cx="82" cy="-104" rx="58.4415" ry="18"/>
<text text-anchor="middle" x="82" y="-99.8" font-family="Times,serif" font-size="14.00" fill="#000000">UserService</text>
</g>
<!-- UserService&#45;&gt;OpenMayestroModule -->
<g id="edge15" class="edge">
<title>UserService&#45;&gt;OpenMayestroModule</title>
<path fill="none" stroke="#000000" d="M82,-122.3228C82,-145.6602 82,-183 82,-183 82,-183 1098.3807,-183 1098.3807,-183"/>
<polygon fill="#000000" stroke="#000000" points="1098.3807,-186.5001 1108.3807,-183 1098.3807,-179.5001 1098.3807,-186.5001"/>
</g>
</g>
</svg>
