<?xml version="1.0" encoding="UTF-8" standalone="no"?>
<!DOCTYPE svg PUBLIC "-//W3C//DTD SVG 1.1//EN"
 "http://www.w3.org/Graphics/SVG/1.1/DTD/svg11.dtd">
<!-- Generated by graphviz version 2.40.1 (20161225.0304)
 -->
<!-- Title: dependencies Pages: 1 -->
<svg width="1768pt" height="211pt"
 viewBox="0.00 0.00 1768.00 211.00" xmlns="http://www.w3.org/2000/svg" xmlns:xlink="http://www.w3.org/1999/xlink">
<g id="graph0" class="graph" transform="scale(1 1) rotate(0) translate(4 207)">
<title>dependencies</title>
<polygon fill="#ffffff" stroke="transparent" points="-4,4 -4,-207 1764,-207 1764,4 -4,4"/>
<text text-anchor="start" x="859.0091" y="-42.4" font-family="sans-serif" font-weight="bold" font-size="14.00" fill="#000000">Legend</text>
<polygon fill="#ffffb3" stroke="transparent" points="646,-10 646,-30 666,-30 666,-10 646,-10"/>
<text text-anchor="start" x="669.629" y="-15.4" font-family="sans-serif" font-size="14.00" fill="#000000"> &#160;Declarations</text>
<polygon fill="#8dd3c7" stroke="transparent" points="759,-10 759,-30 779,-30 779,-10 759,-10"/>
<text text-anchor="start" x="782.7251" y="-15.4" font-family="sans-serif" font-size="14.00" fill="#000000"> &#160;Module</text>
<polygon fill="#80b1d3" stroke="transparent" points="845,-10 845,-30 865,-30 865,-10 845,-10"/>
<text text-anchor="start" x="868.7812" y="-15.4" font-family="sans-serif" font-size="14.00" fill="#000000"> &#160;Bootstrap</text>
<polygon fill="#fdb462" stroke="transparent" points="942,-10 942,-30 962,-30 962,-10 942,-10"/>
<text text-anchor="start" x="965.6732" y="-15.4" font-family="sans-serif" font-size="14.00" fill="#000000"> &#160;Providers</text>
<polygon fill="#fb8072" stroke="transparent" points="1038,-10 1038,-30 1058,-30 1058,-10 1038,-10"/>
<text text-anchor="start" x="1061.7258" y="-15.4" font-family="sans-serif" font-size="14.00" fill="#000000"> &#160;Exports</text>
<g id="clust1" class="cluster">
<title>cluster_OpenMayestroModule</title>
<polygon fill="none" stroke="#000000" stroke-dasharray="1,5" points="8,-70 8,-195 1752,-195 1752,-70 8,-70"/>
</g>
<g id="clust2" class="cluster">
<title>cluster_OpenMayestroModule_declarations</title>
<polygon fill="none" stroke="#000000" points="484,-78 484,-130 1744,-130 1744,-78 484,-78"/>
</g>
<g id="clust11" class="cluster">
<title>cluster_OpenMayestroModule_imports</title>
<polygon fill="none" stroke="#000000" points="156,-78 156,-130 476,-130 476,-78 156,-78"/>
</g>
<g id="clust14" class="cluster">
<title>cluster_OpenMayestroModule_providers</title>
<polygon fill="none" stroke="#000000" points="16,-78 16,-130 148,-130 148,-78 16,-78"/>
</g>
<!-- FooterComponent -->
<g id="node1" class="node">
<title>FooterComponent</title>
<polygon fill="#ffffb3" stroke="#000000" points="1735.8809,-122 1618.1191,-122 1618.1191,-86 1735.8809,-86 1735.8809,-122"/>
<text text-anchor="middle" x="1677" y="-99.8" font-family="Times,serif" font-size="14.00" fill="#000000">FooterComponent</text>
</g>
<!-- OpenMayestroModule -->
<g id="node9" class="node">
<title>OpenMayestroModule</title>
<polygon fill="#8dd3c7" stroke="#000000" points="933.2408,-187 930.2408,-191 909.2408,-191 906.2408,-187 790.7592,-187 790.7592,-151 933.2408,-151 933.2408,-187"/>
<text text-anchor="middle" x="862" y="-164.8" font-family="Times,serif" font-size="14.00" fill="#000000">OpenMayestroModule</text>
</g>
<!-- FooterComponent&#45;&gt;OpenMayestroModule -->
<g id="edge1" class="edge">
<title>FooterComponent&#45;&gt;OpenMayestroModule</title>
<path fill="none" stroke="#000000" d="M1677,-122.0908C1677,-145.1328 1677,-182 1677,-182 1677,-182 943.2555,-182 943.2555,-182"/>
<polygon fill="#000000" stroke="#000000" points="943.2555,-178.5001 933.2555,-182 943.2554,-185.5001 943.2555,-178.5001"/>
</g>
<!-- NotificationComponent -->
<g id="node2" class="node">
<title>NotificationComponent</title>
<polygon fill="#ffffb3" stroke="#000000" points="1600.4818,-122 1451.5182,-122 1451.5182,-86 1600.4818,-86 1600.4818,-122"/>
<text text-anchor="middle" x="1526" y="-99.8" font-family="Times,serif" font-size="14.00" fill="#000000">NotificationComponent</text>
</g>
<!-- NotificationComponent&#45;&gt;OpenMayestroModule -->
<g id="edge2" class="edge">
<title>NotificationComponent&#45;&gt;OpenMayestroModule</title>
<path fill="none" stroke="#000000" d="M1526,-122.2843C1526,-143.3211 1526,-175 1526,-175 1526,-175 943.3748,-175 943.3748,-175"/>
<polygon fill="#000000" stroke="#000000" points="943.3748,-171.5001 933.3748,-175 943.3748,-178.5001 943.3748,-171.5001"/>
</g>
<!-- OpenMayestroComponent -->
<g id="node3" class="node">
<title>OpenMayestroComponent</title>
<polygon fill="#ffffb3" stroke="#000000" points="1433.0239,-122 1268.9761,-122 1268.9761,-86 1433.0239,-86 1433.0239,-122"/>
<text text-anchor="middle" x="1351" y="-99.8" font-family="Times,serif" font-size="14.00" fill="#000000">OpenMayestroComponent</text>
</g>
<!-- OpenMayestroComponent&#45;&gt;OpenMayestroModule -->
<g id="edge3" class="edge">
<title>OpenMayestroComponent&#45;&gt;OpenMayestroModule</title>
<path fill="none" stroke="#000000" d="M1351,-122.1061C1351,-141.3391 1351,-169 1351,-169 1351,-169 943.3665,-169 943.3665,-169"/>
<polygon fill="#000000" stroke="#000000" points="943.3665,-165.5001 933.3665,-169 943.3664,-172.5001 943.3665,-165.5001"/>
</g>
<!-- OverviewComponent -->
<g id="node4" class="node">
<title>OverviewComponent</title>
<polygon fill="#ffffb3" stroke="#000000" points="1250.0268,-122 1113.9732,-122 1113.9732,-86 1250.0268,-86 1250.0268,-122"/>
<text text-anchor="middle" x="1182" y="-99.8" font-family="Times,serif" font-size="14.00" fill="#000000">OverviewComponent</text>
</g>
<!-- OverviewComponent&#45;&gt;OpenMayestroModule -->
<g id="edge4" class="edge">
<title>OverviewComponent&#45;&gt;OpenMayestroModule</title>
<path fill="none" stroke="#000000" d="M1182,-122.0225C1182,-139.3734 1182,-163 1182,-163 1182,-163 943.416,-163 943.416,-163"/>
<polygon fill="#000000" stroke="#000000" points="943.416,-159.5001 933.416,-163 943.4159,-166.5001 943.416,-159.5001"/>
</g>
<!-- ProfileComponent -->
<g id="node5" class="node">
<title>ProfileComponent</title>
<polygon fill="#ffffb3" stroke="#000000" points="1095.9328,-122 976.0672,-122 976.0672,-86 1095.9328,-86 1095.9328,-122"/>
<text text-anchor="middle" x="1036" y="-99.8" font-family="Times,serif" font-size="14.00" fill="#000000">ProfileComponent</text>
</g>
<!-- ProfileComponent&#45;&gt;OpenMayestroModule -->
<g id="edge5" class="edge">
<title>ProfileComponent&#45;&gt;OpenMayestroModule</title>
<path fill="none" stroke="#000000" d="M1036,-122.2396C1036,-137.5706 1036,-157 1036,-157 1036,-157 943.2745,-157 943.2745,-157"/>
<polygon fill="#000000" stroke="#000000" points="943.2745,-153.5001 933.2745,-157 943.2745,-160.5001 943.2745,-153.5001"/>
</g>
<!-- SetDevicePasswordComponent -->
<g id="node6" class="node">
<title>SetDevicePasswordComponent</title>
<polygon fill="#ffffb3" stroke="#000000" points="958.0154,-122 765.9846,-122 765.9846,-86 958.0154,-86 958.0154,-122"/>
<text text-anchor="middle" x="862" y="-99.8" font-family="Times,serif" font-size="14.00" fill="#000000">SetDevicePasswordComponent</text>
</g>
<!-- SetDevicePasswordComponent&#45;&gt;OpenMayestroModule -->
<g id="edge6" class="edge">
<title>SetDevicePasswordComponent&#45;&gt;OpenMayestroModule</title>
<path fill="none" stroke="#000000" d="M862,-122.1061C862,-122.1061 862,-140.991 862,-140.991"/>
<polygon fill="#000000" stroke="#000000" points="858.5001,-140.9909 862,-150.991 865.5001,-140.991 858.5001,-140.9909"/>
</g>
<!-- SidebarComponent -->
<g id="node7" class="node">
<title>SidebarComponent</title>
<polygon fill="#ffffb3" stroke="#000000" points="748.0954,-122 623.9046,-122 623.9046,-86 748.0954,-86 748.0954,-122"/>
<text text-anchor="middle" x="686" y="-99.8" font-family="Times,serif" font-size="14.00" fill="#000000">SidebarComponent</text>
</g>
<!-- SidebarComponent&#45;&gt;OpenMayestroModule -->
<g id="edge7" class="edge">
<title>SidebarComponent&#45;&gt;OpenMayestroModule</title>
<path fill="none" stroke="#000000" d="M686,-122.2396C686,-137.5706 686,-157 686,-157 686,-157 780.6678,-157 780.6678,-157"/>
<polygon fill="#000000" stroke="#000000" points="780.6678,-160.5001 790.6678,-157 780.6677,-153.5001 780.6678,-160.5001"/>
</g>
<!-- TrackComponent -->
<g id="node8" class="node">
<title>TrackComponent</title>
<polygon fill="#ffffb3" stroke="#000000" points="605.9748,-122 492.0252,-122 492.0252,-86 605.9748,-86 605.9748,-122"/>
<text text-anchor="middle" x="549" y="-99.8" font-family="Times,serif" font-size="14.00" fill="#000000">TrackComponent</text>
</g>
<!-- TrackComponent&#45;&gt;OpenMayestroModule -->
<g id="edge8" class="edge">
<title>TrackComponent&#45;&gt;OpenMayestroModule</title>
<path fill="none" stroke="#000000" d="M549,-122.0225C549,-139.3734 549,-163 549,-163 549,-163 780.5838,-163 780.5838,-163"/>
<polygon fill="#000000" stroke="#000000" points="780.5838,-166.5001 790.5838,-163 780.5838,-159.5001 780.5838,-166.5001"/>
</g>
<!-- OpenMayestroRoutingModule -->
<g id="node10" class="node">
<title>OpenMayestroRoutingModule</title>
<polygon fill="#8dd3c7" stroke="#000000" points="467.8585,-122 464.8585,-126 443.8585,-126 440.8585,-122 280.1415,-122 280.1415,-86 467.8585,-86 467.8585,-122"/>
<text text-anchor="middle" x="374" y="-99.8" font-family="Times,serif" font-size="14.00" fill="#000000">OpenMayestroRoutingModule</text>
</g>
<!-- OpenMayestroRoutingModule&#45;&gt;OpenMayestroModule -->
<g id="edge9" class="edge">
<title>OpenMayestroRoutingModule&#45;&gt;OpenMayestroModule</title>
<path fill="none" stroke="#000000" d="M374,-122.1061C374,-141.3391 374,-169 374,-169 374,-169 780.518,-169 780.518,-169"/>
<polygon fill="#000000" stroke="#000000" points="780.518,-172.5001 790.518,-169 780.518,-165.5001 780.518,-172.5001"/>
</g>
<!-- SharedModule -->
<g id="node11" class="node">
<title>SharedModule</title>
<polygon fill="#8dd3c7" stroke="#000000" points="262.4231,-122 259.4231,-126 238.4231,-126 235.4231,-122 163.5769,-122 163.5769,-86 262.4231,-86 262.4231,-122"/>
<text text-anchor="middle" x="213" y="-99.8" font-family="Times,serif" font-size="14.00" fill="#000000">SharedModule</text>
</g>
<!-- SharedModule&#45;&gt;OpenMayestroModule -->
<g id="edge10" class="edge">
<title>SharedModule&#45;&gt;OpenMayestroModule</title>
<path fill="none" stroke="#000000" d="M213,-122.2843C213,-143.3211 213,-175 213,-175 213,-175 780.6892,-175 780.6892,-175"/>
<polygon fill="#000000" stroke="#000000" points="780.6892,-178.5001 790.6892,-175 780.6891,-171.5001 780.6892,-178.5001"/>
</g>
<!-- UserService -->
<g id="node12" class="node">
<title>UserService</title>
<ellipse fill="#fdb462" stroke="#000000" cx="82" cy="-104" rx="58.4415" ry="18"/>
<text text-anchor="middle" x="82" y="-99.8" font-family="Times,serif" font-size="14.00" fill="#000000">UserService</text>
</g>
<!-- UserService&#45;&gt;OpenMayestroModule -->
<g id="edge11" class="edge">
<title>UserService&#45;&gt;OpenMayestroModule</title>
<path fill="none" stroke="#000000" d="M82,-122.0908C82,-145.1328 82,-182 82,-182 82,-182 780.7124,-182 780.7124,-182"/>
<polygon fill="#000000" stroke="#000000" points="780.7125,-185.5001 790.7124,-182 780.7124,-178.5001 780.7125,-185.5001"/>
</g>
</g>
</svg>
