<?xml version="1.0" encoding="UTF-8" standalone="no"?>
<!DOCTYPE svg PUBLIC "-//W3C//DTD SVG 1.1//EN"
 "http://www.w3.org/Graphics/SVG/1.1/DTD/svg11.dtd">
<!-- Generated by graphviz version 2.40.1 (20161225.0304)
 -->
<!-- Title: dependencies Pages: 1 -->
<svg width="2195pt" height="211pt"
 viewBox="0.00 0.00 2195.00 211.00" xmlns="http://www.w3.org/2000/svg" xmlns:xlink="http://www.w3.org/1999/xlink">
<g id="graph0" class="graph" transform="scale(1 1) rotate(0) translate(4 207)">
<title>dependencies</title>
<polygon fill="#ffffff" stroke="transparent" points="-4,4 -4,-207 2191,-207 2191,4 -4,4"/>
<text text-anchor="start" x="1072.5091" y="-42.4" font-family="sans-serif" font-weight="bold" font-size="14.00" fill="#000000">Legend</text>
<polygon fill="#ffffb3" stroke="transparent" points="859.5,-10 859.5,-30 879.5,-30 879.5,-10 859.5,-10"/>
<text text-anchor="start" x="883.129" y="-15.4" font-family="sans-serif" font-size="14.00" fill="#000000"> &#160;Declarations</text>
<polygon fill="#8dd3c7" stroke="transparent" points="972.5,-10 972.5,-30 992.5,-30 992.5,-10 972.5,-10"/>
<text text-anchor="start" x="996.2251" y="-15.4" font-family="sans-serif" font-size="14.00" fill="#000000"> &#160;Module</text>
<polygon fill="#80b1d3" stroke="transparent" points="1058.5,-10 1058.5,-30 1078.5,-30 1078.5,-10 1058.5,-10"/>
<text text-anchor="start" x="1082.2812" y="-15.4" font-family="sans-serif" font-size="14.00" fill="#000000"> &#160;Bootstrap</text>
<polygon fill="#fdb462" stroke="transparent" points="1155.5,-10 1155.5,-30 1175.5,-30 1175.5,-10 1155.5,-10"/>
<text text-anchor="start" x="1179.1732" y="-15.4" font-family="sans-serif" font-size="14.00" fill="#000000"> &#160;Providers</text>
<polygon fill="#fb8072" stroke="transparent" points="1251.5,-10 1251.5,-30 1271.5,-30 1271.5,-10 1251.5,-10"/>
<text text-anchor="start" x="1275.2258" y="-15.4" font-family="sans-serif" font-size="14.00" fill="#000000"> &#160;Exports</text>
<g id="clust1" class="cluster">
<title>cluster_OpenMayestroModule</title>
<polygon fill="none" stroke="#000000" stroke-dasharray="1,5" points="8,-70 8,-195 2179,-195 2179,-70 8,-70"/>
</g>
<g id="clust2" class="cluster">
<title>cluster_OpenMayestroModule_declarations</title>
<polygon fill="none" stroke="#000000" points="344,-78 344,-130 2171,-130 2171,-78 344,-78"/>
</g>
<g id="clust14" class="cluster">
<title>cluster_OpenMayestroModule_imports</title>
<polygon fill="none" stroke="#000000" points="16,-78 16,-130 336,-130 336,-78 16,-78"/>
</g>
<!-- ChangePlanComponent -->
<g id="node1" class="node">
<title>ChangePlanComponent</title>
<polygon fill="#ffffb3" stroke="#000000" points="2163.486,-122 2014.514,-122 2014.514,-86 2163.486,-86 2163.486,-122"/>
<text text-anchor="middle" x="2089" y="-99.8" font-family="Times,serif" font-size="14.00" fill="#000000">ChangePlanComponent</text>
</g>
<!-- OpenMayestroModule -->
<g id="node12" class="node">
<title>OpenMayestroModule</title>
<polygon fill="#8dd3c7" stroke="#000000" points="1132.2408,-187 1129.2408,-191 1108.2408,-191 1105.2408,-187 989.7592,-187 989.7592,-151 1132.2408,-151 1132.2408,-187"/>
<text text-anchor="middle" x="1061" y="-164.8" font-family="Times,serif" font-size="14.00" fill="#000000">OpenMayestroModule</text>
</g>
<!-- ChangePlanComponent&#45;&gt;OpenMayestroModule -->
<g id="edge1" class="edge">
<title>ChangePlanComponent&#45;&gt;OpenMayestroModule</title>
<path fill="none" stroke="#000000" d="M2089,-122.0908C2089,-145.1328 2089,-182 2089,-182 2089,-182 1142.4708,-182 1142.4708,-182"/>
<polygon fill="#000000" stroke="#000000" points="1142.4708,-178.5001 1132.4708,-182 1142.4708,-185.5001 1142.4708,-178.5001"/>
</g>
<!-- FooterComponent -->
<g id="node2" class="node">
<title>FooterComponent</title>
<polygon fill="#ffffb3" stroke="#000000" points="1996.8809,-122 1879.1191,-122 1879.1191,-86 1996.8809,-86 1996.8809,-122"/>
<text text-anchor="middle" x="1938" y="-99.8" font-family="Times,serif" font-size="14.00" fill="#000000">FooterComponent</text>
</g>
<!-- FooterComponent&#45;&gt;OpenMayestroModule -->
<g id="edge2" class="edge">
<title>FooterComponent&#45;&gt;OpenMayestroModule</title>
<path fill="none" stroke="#000000" d="M1938,-122.0449C1938,-143.6623 1938,-177 1938,-177 1938,-177 1142.3967,-177 1142.3967,-177"/>
<polygon fill="#000000" stroke="#000000" points="1142.3968,-173.5001 1132.3967,-177 1142.3967,-180.5001 1142.3968,-173.5001"/>
</g>
<!-- GetPremiumComponent -->
<g id="node3" class="node">
<title>GetPremiumComponent</title>
<polygon fill="#ffffb3" stroke="#000000" points="1861.3739,-122 1708.6261,-122 1708.6261,-86 1861.3739,-86 1861.3739,-122"/>
<text text-anchor="middle" x="1785" y="-99.8" font-family="Times,serif" font-size="14.00" fill="#000000">GetPremiumComponent</text>
</g>
<!-- GetPremiumComponent&#45;&gt;OpenMayestroModule -->
<g id="edge3" class="edge">
<title>GetPremiumComponent&#45;&gt;OpenMayestroModule</title>
<path fill="none" stroke="#000000" d="M1785,-122.2228C1785,-142.3652 1785,-172 1785,-172 1785,-172 1142.4013,-172 1142.4013,-172"/>
<polygon fill="#000000" stroke="#000000" points="1142.4014,-168.5001 1132.4013,-172 1142.4013,-175.5001 1142.4014,-168.5001"/>
</g>
<!-- GetPremiumHeaderComponent -->
<g id="node4" class="node">
<title>GetPremiumHeaderComponent</title>
<polygon fill="#ffffb3" stroke="#000000" points="1690.785,-122 1497.215,-122 1497.215,-86 1690.785,-86 1690.785,-122"/>
<text text-anchor="middle" x="1594" y="-99.8" font-family="Times,serif" font-size="14.00" fill="#000000">GetPremiumHeaderComponent</text>
</g>
<!-- GetPremiumHeaderComponent&#45;&gt;OpenMayestroModule -->
<g id="edge4" class="edge">
<title>GetPremiumHeaderComponent&#45;&gt;OpenMayestroModule</title>
<path fill="none" stroke="#000000" d="M1594,-122.2222C1594,-140.8285 1594,-167 1594,-167 1594,-167 1142.3297,-167 1142.3297,-167"/>
<polygon fill="#000000" stroke="#000000" points="1142.3297,-163.5001 1132.3297,-167 1142.3297,-170.5001 1142.3297,-163.5001"/>
</g>
<!-- NotificationComponent -->
<g id="node5" class="node">
<title>NotificationComponent</title>
<polygon fill="#ffffb3" stroke="#000000" points="1479.4818,-122 1330.5182,-122 1330.5182,-86 1479.4818,-86 1479.4818,-122"/>
<text text-anchor="middle" x="1405" y="-99.8" font-family="Times,serif" font-size="14.00" fill="#000000">NotificationComponent</text>
</g>
<!-- NotificationComponent&#45;&gt;OpenMayestroModule -->
<g id="edge5" class="edge">
<title>NotificationComponent&#45;&gt;OpenMayestroModule</title>
<path fill="none" stroke="#000000" d="M1405,-122.0336C1405,-139.0597 1405,-162 1405,-162 1405,-162 1142.277,-162 1142.277,-162"/>
<polygon fill="#000000" stroke="#000000" points="1142.2771,-158.5001 1132.277,-162 1142.277,-165.5001 1142.2771,-158.5001"/>
</g>
<!-- OpenMayestroComponent -->
<g id="node6" class="node">
<title>OpenMayestroComponent</title>
<polygon fill="#ffffb3" stroke="#000000" points="1312.0239,-122 1147.9761,-122 1147.9761,-86 1312.0239,-86 1312.0239,-122"/>
<text text-anchor="middle" x="1230" y="-99.8" font-family="Times,serif" font-size="14.00" fill="#000000">OpenMayestroComponent</text>
</g>
<!-- OpenMayestroComponent&#45;&gt;OpenMayestroModule -->
<g id="edge6" class="edge">
<title>OpenMayestroComponent&#45;&gt;OpenMayestroModule</title>
<path fill="none" stroke="#000000" d="M1230,-122.2396C1230,-137.5706 1230,-157 1230,-157 1230,-157 1142.6712,-157 1142.6712,-157"/>
<polygon fill="#000000" stroke="#000000" points="1142.6712,-153.5001 1132.6712,-157 1142.6712,-160.5001 1142.6712,-153.5001"/>
</g>
<!-- OverviewComponent -->
<g id="node7" class="node">
<title>OverviewComponent</title>
<polygon fill="#ffffb3" stroke="#000000" points="1129.0268,-122 992.9732,-122 992.9732,-86 1129.0268,-86 1129.0268,-122"/>
<text text-anchor="middle" x="1061" y="-99.8" font-family="Times,serif" font-size="14.00" fill="#000000">OverviewComponent</text>
</g>
<!-- OverviewComponent&#45;&gt;OpenMayestroModule -->
<g id="edge7" class="edge">
<title>OverviewComponent&#45;&gt;OpenMayestroModule</title>
<path fill="none" stroke="#000000" d="M1061,-122.1061C1061,-122.1061 1061,-140.991 1061,-140.991"/>
<polygon fill="#000000" stroke="#000000" points="1057.5001,-140.9909 1061,-150.991 1064.5001,-140.991 1057.5001,-140.9909"/>
</g>
<!-- PremiumComponent -->
<g id="node8" class="node">
<title>PremiumComponent</title>
<polygon fill="#ffffb3" stroke="#000000" points="974.1624,-122 841.8376,-122 841.8376,-86 974.1624,-86 974.1624,-122"/>
<text text-anchor="middle" x="908" y="-99.8" font-family="Times,serif" font-size="14.00" fill="#000000">PremiumComponent</text>
</g>
<!-- PremiumComponent&#45;&gt;OpenMayestroModule -->
<g id="edge8" class="edge">
<title>PremiumComponent&#45;&gt;OpenMayestroModule</title>
<path fill="none" stroke="#000000" d="M908,-122.2396C908,-137.5706 908,-157 908,-157 908,-157 979.4276,-157 979.4276,-157"/>
<polygon fill="#000000" stroke="#000000" points="979.4277,-160.5001 989.4276,-157 979.4276,-153.5001 979.4277,-160.5001"/>
</g>
<!-- ProfileComponent -->
<g id="node9" class="node">
<title>ProfileComponent</title>
<polygon fill="#ffffb3" stroke="#000000" points="823.9328,-122 704.0672,-122 704.0672,-86 823.9328,-86 823.9328,-122"/>
<text text-anchor="middle" x="764" y="-99.8" font-family="Times,serif" font-size="14.00" fill="#000000">ProfileComponent</text>
</g>
<!-- ProfileComponent&#45;&gt;OpenMayestroModule -->
<g id="edge9" class="edge">
<title>ProfileComponent&#45;&gt;OpenMayestroModule</title>
<path fill="none" stroke="#000000" d="M764,-122.0336C764,-139.0597 764,-162 764,-162 764,-162 979.4831,-162 979.4831,-162"/>
<polygon fill="#000000" stroke="#000000" points="979.4832,-165.5001 989.4831,-162 979.4831,-158.5001 979.4832,-165.5001"/>
</g>
<!-- SetDevicePasswordComponent -->
<g id="node10" class="node">
<title>SetDevicePasswordComponent</title>
<polygon fill="#ffffb3" stroke="#000000" points="686.0154,-122 493.9846,-122 493.9846,-86 686.0154,-86 686.0154,-122"/>
<text text-anchor="middle" x="590" y="-99.8" font-family="Times,serif" font-size="14.00" fill="#000000">SetDevicePasswordComponent</text>
</g>
<!-- SetDevicePasswordComponent&#45;&gt;OpenMayestroModule -->
<g id="edge10" class="edge">
<title>SetDevicePasswordComponent&#45;&gt;OpenMayestroModule</title>
<path fill="none" stroke="#000000" d="M590,-122.2222C590,-140.8285 590,-167 590,-167 590,-167 979.7211,-167 979.7211,-167"/>
<polygon fill="#000000" stroke="#000000" points="979.7211,-170.5001 989.7211,-167 979.721,-163.5001 979.7211,-170.5001"/>
</g>
<!-- SidebarComponent -->
<g id="node11" class="node">
<title>SidebarComponent</title>
<polygon fill="#ffffb3" stroke="#000000" points="476.0954,-122 351.9046,-122 351.9046,-86 476.0954,-86 476.0954,-122"/>
<text text-anchor="middle" x="414" y="-99.8" font-family="Times,serif" font-size="14.00" fill="#000000">SidebarComponent</text>
</g>
<!-- SidebarComponent&#45;&gt;OpenMayestroModule -->
<g id="edge11" class="edge">
<title>SidebarComponent&#45;&gt;OpenMayestroModule</title>
<path fill="none" stroke="#000000" d="M414,-122.2228C414,-142.3652 414,-172 414,-172 414,-172 979.5985,-172 979.5985,-172"/>
<polygon fill="#000000" stroke="#000000" points="979.5986,-175.5001 989.5985,-172 979.5985,-168.5001 979.5986,-175.5001"/>
</g>
<!-- OpenMayestroRoutingModule -->
<g id="node13" class="node">
<title>OpenMayestroRoutingModule</title>
<polygon fill="#8dd3c7" stroke="#000000" points="327.8585,-122 324.8585,-126 303.8585,-126 300.8585,-122 140.1415,-122 140.1415,-86 327.8585,-86 327.8585,-122"/>
<text text-anchor="middle" x="234" y="-99.8" font-family="Times,serif" font-size="14.00" fill="#000000">OpenMayestroRoutingModule</text>
</g>
<!-- OpenMayestroRoutingModule&#45;&gt;OpenMayestroModule -->
<g id="edge12" class="edge">
<title>OpenMayestroRoutingModule&#45;&gt;OpenMayestroModule</title>
<path fill="none" stroke="#000000" d="M234,-122.0449C234,-143.6623 234,-177 234,-177 234,-177 979.4157,-177 979.4157,-177"/>
<polygon fill="#000000" stroke="#000000" points="979.4157,-180.5001 989.4157,-177 979.4156,-173.5001 979.4157,-180.5001"/>
</g>
<!-- SharedModule -->
<g id="node14" class="node">
<title>SharedModule</title>
<polygon fill="#8dd3c7" stroke="#000000" points="122.4231,-122 119.4231,-126 98.4231,-126 95.4231,-122 23.5769,-122 23.5769,-86 122.4231,-86 122.4231,-122"/>
<text text-anchor="middle" x="73" y="-99.8" font-family="Times,serif" font-size="14.00" fill="#000000">SharedModule</text>
</g>
<!-- SharedModule&#45;&gt;OpenMayestroModule -->
<g id="edge13" class="edge">
<title>SharedModule&#45;&gt;OpenMayestroModule</title>
<path fill="none" stroke="#000000" d="M73,-122.0908C73,-145.1328 73,-182 73,-182 73,-182 979.548,-182 979.548,-182"/>
<polygon fill="#000000" stroke="#000000" points="979.5481,-185.5001 989.548,-182 979.548,-178.5001 979.5481,-185.5001"/>
</g>
</g>
</svg>
