<?xml version="1.0" encoding="UTF-8" standalone="no"?>
<!DOCTYPE svg PUBLIC "-//W3C//DTD SVG 1.1//EN"
 "http://www.w3.org/Graphics/SVG/1.1/DTD/svg11.dtd">
<!-- Generated by graphviz version 2.40.1 (20161225.0304)
 -->
<!-- Title: dependencies Pages: 1 -->
<svg width="3830pt" height="211pt"
 viewBox="0.00 0.00 3830.00 211.00" xmlns="http://www.w3.org/2000/svg" xmlns:xlink="http://www.w3.org/1999/xlink">
<g id="graph0" class="graph" transform="scale(1 1) rotate(0) translate(4 207)">
<title>dependencies</title>
<polygon fill="#ffffff" stroke="transparent" points="-4,4 -4,-207 3826,-207 3826,4 -4,4"/>
<text text-anchor="start" x="1890.0091" y="-42.4" font-family="sans-serif" font-weight="bold" font-size="14.00" fill="#000000">Legend</text>
<polygon fill="#ffffb3" stroke="transparent" points="1677,-10 1677,-30 1697,-30 1697,-10 1677,-10"/>
<text text-anchor="start" x="1700.629" y="-15.4" font-family="sans-serif" font-size="14.00" fill="#000000"> &#160;Declarations</text>
<polygon fill="#8dd3c7" stroke="transparent" points="1790,-10 1790,-30 1810,-30 1810,-10 1790,-10"/>
<text text-anchor="start" x="1813.7251" y="-15.4" font-family="sans-serif" font-size="14.00" fill="#000000"> &#160;Module</text>
<polygon fill="#80b1d3" stroke="transparent" points="1876,-10 1876,-30 1896,-30 1896,-10 1876,-10"/>
<text text-anchor="start" x="1899.7812" y="-15.4" font-family="sans-serif" font-size="14.00" fill="#000000"> &#160;Bootstrap</text>
<polygon fill="#fdb462" stroke="transparent" points="1973,-10 1973,-30 1993,-30 1993,-10 1973,-10"/>
<text text-anchor="start" x="1996.6732" y="-15.4" font-family="sans-serif" font-size="14.00" fill="#000000"> &#160;Providers</text>
<polygon fill="#fb8072" stroke="transparent" points="2069,-10 2069,-30 2089,-30 2089,-10 2069,-10"/>
<text text-anchor="start" x="2092.7258" y="-15.4" font-family="sans-serif" font-size="14.00" fill="#000000"> &#160;Exports</text>
<g id="clust1" class="cluster">
<title>cluster_OpenMayestroModule</title>
<polygon fill="none" stroke="#000000" stroke-dasharray="1,5" points="8,-70 8,-195 3814,-195 3814,-70 8,-70"/>
</g>
<g id="clust2" class="cluster">
<title>cluster_OpenMayestroModule_declarations</title>
<polygon fill="none" stroke="#000000" points="484,-78 484,-130 3806,-130 3806,-78 484,-78"/>
</g>
<g id="clust22" class="cluster">
<title>cluster_OpenMayestroModule_imports</title>
<polygon fill="none" stroke="#000000" points="156,-78 156,-130 476,-130 476,-78 156,-78"/>
</g>
<g id="clust25" class="cluster">
<title>cluster_OpenMayestroModule_providers</title>
<polygon fill="none" stroke="#000000" points="16,-78 16,-130 148,-130 148,-78 16,-78"/>
</g>
<!-- AccountHelpComponent -->
<g id="node1" class="node">
<title>AccountHelpComponent</title>
<polygon fill="#ffffb3" stroke="#000000" points="3797.9706,-122 3642.0294,-122 3642.0294,-86 3797.9706,-86 3797.9706,-122"/>
<text text-anchor="middle" x="3720" y="-99.8" font-family="Times,serif" font-size="14.00" fill="#000000">AccountHelpComponent</text>
</g>
<!-- OpenMayestroModule -->
<g id="node20" class="node">
<title>OpenMayestroModule</title>
<polygon fill="#8dd3c7" stroke="#000000" points="1922.2408,-187 1919.2408,-191 1898.2408,-191 1895.2408,-187 1779.7592,-187 1779.7592,-151 1922.2408,-151 1922.2408,-187"/>
<text text-anchor="middle" x="1851" y="-164.8" font-family="Times,serif" font-size="14.00" fill="#000000">OpenMayestroModule</text>
</g>
<!-- AccountHelpComponent&#45;&gt;OpenMayestroModule -->
<g id="edge1" class="edge">
<title>AccountHelpComponent&#45;&gt;OpenMayestroModule</title>
<path fill="none" stroke="#000000" d="M3720,-122.1532C3720,-145.7566 3720,-184 3720,-184 3720,-184 1932.2683,-184 1932.2683,-184"/>
<polygon fill="#000000" stroke="#000000" points="1932.2683,-180.5001 1922.2683,-184 1932.2682,-187.5001 1932.2683,-180.5001"/>
</g>
<!-- ChangeEmailHelpComponent -->
<g id="node2" class="node">
<title>ChangeEmailHelpComponent</title>
<polygon fill="#ffffb3" stroke="#000000" points="3624.2492,-122 3439.7508,-122 3439.7508,-86 3624.2492,-86 3624.2492,-122"/>
<text text-anchor="middle" x="3532" y="-99.8" font-family="Times,serif" font-size="14.00" fill="#000000">ChangeEmailHelpComponent</text>
</g>
<!-- ChangeEmailHelpComponent&#45;&gt;OpenMayestroModule -->
<g id="edge2" class="edge">
<title>ChangeEmailHelpComponent&#45;&gt;OpenMayestroModule</title>
<path fill="none" stroke="#000000" d="M3532,-122.2479C3532,-145.0179 3532,-181 3532,-181 3532,-181 1932.4245,-181 1932.4245,-181"/>
<polygon fill="#000000" stroke="#000000" points="1932.4246,-177.5001 1922.4245,-181 1932.4245,-184.5001 1932.4246,-177.5001"/>
</g>
<!-- ChangePlanComponent -->
<g id="node3" class="node">
<title>ChangePlanComponent</title>
<polygon fill="#ffffb3" stroke="#000000" points="3421.486,-122 3272.514,-122 3272.514,-86 3421.486,-86 3421.486,-122"/>
<text text-anchor="middle" x="3347" y="-99.8" font-family="Times,serif" font-size="14.00" fill="#000000">ChangePlanComponent</text>
</g>
<!-- ChangePlanComponent&#45;&gt;OpenMayestroModule -->
<g id="edge3" class="edge">
<title>ChangePlanComponent&#45;&gt;OpenMayestroModule</title>
<path fill="none" stroke="#000000" d="M3347,-122.2921C3347,-144.2057 3347,-178 3347,-178 3347,-178 1932.3998,-178 1932.3998,-178"/>
<polygon fill="#000000" stroke="#000000" points="1932.3998,-174.5001 1922.3998,-178 1932.3997,-181.5001 1932.3998,-174.5001"/>
</g>
<!-- EditAccountHelpComponent -->
<g id="node4" class="node">
<title>EditAccountHelpComponent</title>
<polygon fill="#ffffb3" stroke="#000000" points="3254.8047,-122 3075.1953,-122 3075.1953,-86 3254.8047,-86 3254.8047,-122"/>
<text text-anchor="middle" x="3165" y="-99.8" font-family="Times,serif" font-size="14.00" fill="#000000">EditAccountHelpComponent</text>
</g>
<!-- EditAccountHelpComponent&#45;&gt;OpenMayestroModule -->
<g id="edge4" class="edge">
<title>EditAccountHelpComponent&#45;&gt;OpenMayestroModule</title>
<path fill="none" stroke="#000000" d="M3165,-122.0267C3165,-142.7672 3165,-174 3165,-174 3165,-174 1932.5795,-174 1932.5795,-174"/>
<polygon fill="#000000" stroke="#000000" points="1932.5795,-170.5001 1922.5795,-174 1932.5795,-177.5001 1932.5795,-170.5001"/>
</g>
<!-- FooterComponent -->
<g id="node5" class="node">
<title>FooterComponent</title>
<polygon fill="#ffffb3" stroke="#000000" points="3056.8809,-122 2939.1191,-122 2939.1191,-86 3056.8809,-86 3056.8809,-122"/>
<text text-anchor="middle" x="2998" y="-99.8" font-family="Times,serif" font-size="14.00" fill="#000000">FooterComponent</text>
</g>
<!-- FooterComponent&#45;&gt;OpenMayestroModule -->
<g id="edge5" class="edge">
<title>FooterComponent&#45;&gt;OpenMayestroModule</title>
<path fill="none" stroke="#000000" d="M2998,-122.308C2998,-142.1455 2998,-171 2998,-171 2998,-171 1932.3166,-171 1932.3166,-171"/>
<polygon fill="#000000" stroke="#000000" points="1932.3167,-167.5001 1922.3166,-171 1932.3166,-174.5001 1932.3167,-167.5001"/>
</g>
<!-- GetPremiumComponent -->
<g id="node6" class="node">
<title>GetPremiumComponent</title>
<polygon fill="#ffffb3" stroke="#000000" points="2921.3739,-122 2768.6261,-122 2768.6261,-86 2921.3739,-86 2921.3739,-122"/>
<text text-anchor="middle" x="2845" y="-99.8" font-family="Times,serif" font-size="14.00" fill="#000000">GetPremiumComponent</text>
</g>
<!-- GetPremiumComponent&#45;&gt;OpenMayestroModule -->
<g id="edge6" class="edge">
<title>GetPremiumComponent&#45;&gt;OpenMayestroModule</title>
<path fill="none" stroke="#000000" d="M2845,-122.1686C2845,-141.0898 2845,-168 2845,-168 2845,-168 1932.486,-168 1932.486,-168"/>
<polygon fill="#000000" stroke="#000000" points="1932.4861,-164.5001 1922.486,-168 1932.486,-171.5001 1932.4861,-164.5001"/>
</g>
<!-- GetPremiumHeaderComponent -->
<g id="node7" class="node">
<title>GetPremiumHeaderComponent</title>
<polygon fill="#ffffb3" stroke="#000000" points="2750.785,-122 2557.215,-122 2557.215,-86 2750.785,-86 2750.785,-122"/>
<text text-anchor="middle" x="2654" y="-99.8" font-family="Times,serif" font-size="14.00" fill="#000000">GetPremiumHeaderComponent</text>
</g>
<!-- GetPremiumHeaderComponent&#45;&gt;OpenMayestroModule -->
<g id="edge7" class="edge">
<title>GetPremiumHeaderComponent&#45;&gt;OpenMayestroModule</title>
<path fill="none" stroke="#000000" d="M2654,-122.302C2654,-140.2699 2654,-165 2654,-165 2654,-165 1932.2609,-165 1932.2609,-165"/>
<polygon fill="#000000" stroke="#000000" points="1932.2609,-161.5001 1922.2609,-165 1932.2609,-168.5001 1932.2609,-161.5001"/>
</g>
<!-- LoginHelpComponent -->
<g id="node8" class="node">
<title>LoginHelpComponent</title>
<polygon fill="#ffffb3" stroke="#000000" points="2538.9874,-122 2397.0126,-122 2397.0126,-86 2538.9874,-86 2538.9874,-122"/>
<text text-anchor="middle" x="2468" y="-99.8" font-family="Times,serif" font-size="14.00" fill="#000000">LoginHelpComponent</text>
</g>
<!-- LoginHelpComponent&#45;&gt;OpenMayestroModule -->
<g id="edge8" class="edge">
<title>LoginHelpComponent&#45;&gt;OpenMayestroModule</title>
<path fill="none" stroke="#000000" d="M2468,-122.0352C2468,-138.7344 2468,-161 2468,-161 2468,-161 1932.3805,-161 1932.3805,-161"/>
<polygon fill="#000000" stroke="#000000" points="1932.3805,-157.5001 1922.3805,-161 1932.3805,-164.5001 1932.3805,-157.5001"/>
</g>
<!-- NotificationComponent -->
<g id="node9" class="node">
<title>NotificationComponent</title>
<polygon fill="#ffffb3" stroke="#000000" points="2379.4818,-122 2230.5182,-122 2230.5182,-86 2379.4818,-86 2379.4818,-122"/>
<text text-anchor="middle" x="2305" y="-99.8" font-family="Times,serif" font-size="14.00" fill="#000000">NotificationComponent</text>
</g>
<!-- NotificationComponent&#45;&gt;OpenMayestroModule -->
<g id="edge9" class="edge">
<title>NotificationComponent&#45;&gt;OpenMayestroModule</title>
<path fill="none" stroke="#000000" d="M2305,-122.2819C2305,-137.9478 2305,-158 2305,-158 2305,-158 1932.4369,-158 1932.4369,-158"/>
<polygon fill="#000000" stroke="#000000" points="1932.437,-154.5001 1922.4369,-158 1932.4369,-161.5001 1932.437,-154.5001"/>
</g>
<!-- NotificationHelpComponent -->
<g id="node10" class="node">
<title>NotificationHelpComponent</title>
<polygon fill="#ffffb3" stroke="#000000" points="2212.1937,-122 2035.8063,-122 2035.8063,-86 2212.1937,-86 2212.1937,-122"/>
<text text-anchor="middle" x="2124" y="-99.8" font-family="Times,serif" font-size="14.00" fill="#000000">NotificationHelpComponent</text>
</g>
<!-- NotificationHelpComponent&#45;&gt;OpenMayestroModule -->
<g id="edge10" class="edge">
<title>NotificationHelpComponent&#45;&gt;OpenMayestroModule</title>
<path fill="none" stroke="#000000" d="M2124,-122.1243C2124,-136.7832 2124,-155 2124,-155 2124,-155 1932.3709,-155 1932.3709,-155"/>
<polygon fill="#000000" stroke="#000000" points="1932.371,-151.5001 1922.3709,-155 1932.3709,-158.5001 1932.371,-151.5001"/>
</g>
<!-- OpenMayestroComponent -->
<g id="node11" class="node">
<title>OpenMayestroComponent</title>
<polygon fill="#ffffb3" stroke="#000000" points="2018.0239,-122 1853.9761,-122 1853.9761,-86 2018.0239,-86 2018.0239,-122"/>
<text text-anchor="middle" x="1936" y="-99.8" font-family="Times,serif" font-size="14.00" fill="#000000">OpenMayestroComponent</text>
</g>
<!-- OpenMayestroComponent&#45;&gt;OpenMayestroModule -->
<g id="edge11" class="edge">
<title>OpenMayestroComponent&#45;&gt;OpenMayestroModule</title>
<path fill="none" stroke="#000000" d="M1888.0544,-122.1061C1888.0544,-122.1061 1888.0544,-140.991 1888.0544,-140.991"/>
<polygon fill="#000000" stroke="#000000" points="1884.5544,-140.9909 1888.0544,-150.991 1891.5544,-140.991 1884.5544,-140.9909"/>
</g>
<!-- OverviewComponent -->
<g id="node12" class="node">
<title>OverviewComponent</title>
<polygon fill="#ffffb3" stroke="#000000" points="1835.0268,-122 1698.9732,-122 1698.9732,-86 1835.0268,-86 1835.0268,-122"/>
<text text-anchor="middle" x="1767" y="-99.8" font-family="Times,serif" font-size="14.00" fill="#000000">OverviewComponent</text>
</g>
<!-- OverviewComponent&#45;&gt;OpenMayestroModule -->
<g id="edge12" class="edge">
<title>OverviewComponent&#45;&gt;OpenMayestroModule</title>
<path fill="none" stroke="#000000" d="M1807.4464,-122.1061C1807.4464,-122.1061 1807.4464,-140.991 1807.4464,-140.991"/>
<polygon fill="#000000" stroke="#000000" points="1803.9464,-140.9909 1807.4464,-150.991 1810.9464,-140.991 1803.9464,-140.9909"/>
</g>
<!-- PremiumComponent -->
<g id="node13" class="node">
<title>PremiumComponent</title>
<polygon fill="#ffffb3" stroke="#000000" points="1680.1624,-122 1547.8376,-122 1547.8376,-86 1680.1624,-86 1680.1624,-122"/>
<text text-anchor="middle" x="1614" y="-99.8" font-family="Times,serif" font-size="14.00" fill="#000000">PremiumComponent</text>
</g>
<!-- PremiumComponent&#45;&gt;OpenMayestroModule -->
<g id="edge13" class="edge">
<title>PremiumComponent&#45;&gt;OpenMayestroModule</title>
<path fill="none" stroke="#000000" d="M1614,-122.1243C1614,-136.7832 1614,-155 1614,-155 1614,-155 1769.5708,-155 1769.5708,-155"/>
<polygon fill="#000000" stroke="#000000" points="1769.5708,-158.5001 1779.5708,-155 1769.5708,-151.5001 1769.5708,-158.5001"/>
</g>
<!-- ProfileComponent -->
<g id="node14" class="node">
<title>ProfileComponent</title>
<polygon fill="#ffffb3" stroke="#000000" points="1529.9328,-122 1410.0672,-122 1410.0672,-86 1529.9328,-86 1529.9328,-122"/>
<text text-anchor="middle" x="1470" y="-99.8" font-family="Times,serif" font-size="14.00" fill="#000000">ProfileComponent</text>
</g>
<!-- ProfileComponent&#45;&gt;OpenMayestroModule -->
<g id="edge14" class="edge">
<title>ProfileComponent&#45;&gt;OpenMayestroModule</title>
<path fill="none" stroke="#000000" d="M1470,-122.2819C1470,-137.9478 1470,-158 1470,-158 1470,-158 1769.3368,-158 1769.3368,-158"/>
<polygon fill="#000000" stroke="#000000" points="1769.3368,-161.5001 1779.3368,-158 1769.3368,-154.5001 1769.3368,-161.5001"/>
</g>
<!-- ResetPasswordHelpComponent -->
<g id="node15" class="node">
<title>ResetPasswordHelpComponent</title>
<polygon fill="#ffffb3" stroke="#000000" points="1392.799,-122 1199.201,-122 1199.201,-86 1392.799,-86 1392.799,-122"/>
<text text-anchor="middle" x="1296" y="-99.8" font-family="Times,serif" font-size="14.00" fill="#000000">ResetPasswordHelpComponent</text>
</g>
<!-- ResetPasswordHelpComponent&#45;&gt;OpenMayestroModule -->
<g id="edge15" class="edge">
<title>ResetPasswordHelpComponent&#45;&gt;OpenMayestroModule</title>
<path fill="none" stroke="#000000" d="M1296,-122.0352C1296,-138.7344 1296,-161 1296,-161 1296,-161 1769.5797,-161 1769.5797,-161"/>
<polygon fill="#000000" stroke="#000000" points="1769.5797,-164.5001 1779.5797,-161 1769.5796,-157.5001 1769.5797,-164.5001"/>
</g>
<!-- SetDevicePasswordComponent -->
<g id="node16" class="node">
<title>SetDevicePasswordComponent</title>
<polygon fill="#ffffb3" stroke="#000000" points="1181.0154,-122 988.9846,-122 988.9846,-86 1181.0154,-86 1181.0154,-122"/>
<text text-anchor="middle" x="1085" y="-99.8" font-family="Times,serif" font-size="14.00" fill="#000000">SetDevicePasswordComponent</text>
</g>
<!-- SetDevicePasswordComponent&#45;&gt;OpenMayestroModule -->
<g id="edge16" class="edge">
<title>SetDevicePasswordComponent&#45;&gt;OpenMayestroModule</title>
<path fill="none" stroke="#000000" d="M1085,-122.302C1085,-140.2699 1085,-165 1085,-165 1085,-165 1769.6244,-165 1769.6244,-165"/>
<polygon fill="#000000" stroke="#000000" points="1769.6245,-168.5001 1779.6244,-165 1769.6244,-161.5001 1769.6245,-168.5001"/>
</g>
<!-- SidebarComponent -->
<g id="node17" class="node">
<title>SidebarComponent</title>
<polygon fill="#ffffb3" stroke="#000000" points="971.0954,-122 846.9046,-122 846.9046,-86 971.0954,-86 971.0954,-122"/>
<text text-anchor="middle" x="909" y="-99.8" font-family="Times,serif" font-size="14.00" fill="#000000">SidebarComponent</text>
</g>
<!-- SidebarComponent&#45;&gt;OpenMayestroModule -->
<g id="edge17" class="edge">
<title>SidebarComponent&#45;&gt;OpenMayestroModule</title>
<path fill="none" stroke="#000000" d="M909,-122.1686C909,-141.0898 909,-168 909,-168 909,-168 1769.4237,-168 1769.4237,-168"/>
<polygon fill="#000000" stroke="#000000" points="1769.4238,-171.5001 1779.4237,-168 1769.4237,-164.5001 1769.4238,-171.5001"/>
</g>
<!-- SidebarHelpComponent -->
<g id="node18" class="node">
<title>SidebarHelpComponent</title>
<polygon fill="#ffffb3" stroke="#000000" points="828.8075,-122 677.1925,-122 677.1925,-86 828.8075,-86 828.8075,-122"/>
<text text-anchor="middle" x="753" y="-99.8" font-family="Times,serif" font-size="14.00" fill="#000000">SidebarHelpComponent</text>
</g>
<!-- SidebarHelpComponent&#45;&gt;OpenMayestroModule -->
<g id="edge18" class="edge">
<title>SidebarHelpComponent&#45;&gt;OpenMayestroModule</title>
<path fill="none" stroke="#000000" d="M753,-122.308C753,-142.1455 753,-171 753,-171 753,-171 1769.3807,-171 1769.3807,-171"/>
<polygon fill="#000000" stroke="#000000" points="1769.3807,-174.5001 1779.3807,-171 1769.3807,-167.5001 1769.3807,-174.5001"/>
</g>
<!-- UsingMayestroComponent -->
<g id="node19" class="node">
<title>UsingMayestroComponent</title>
<polygon fill="#ffffb3" stroke="#000000" points="659.6442,-122 492.3558,-122 492.3558,-86 659.6442,-86 659.6442,-122"/>
<text text-anchor="middle" x="576" y="-99.8" font-family="Times,serif" font-size="14.00" fill="#000000">UsingMayestroComponent</text>
</g>
<!-- UsingMayestroComponent&#45;&gt;OpenMayestroModule -->
<g id="edge19" class="edge">
<title>UsingMayestroComponent&#45;&gt;OpenMayestroModule</title>
<path fill="none" stroke="#000000" d="M576,-122.0267C576,-142.7672 576,-174 576,-174 576,-174 1769.7184,-174 1769.7184,-174"/>
<polygon fill="#000000" stroke="#000000" points="1769.7185,-177.5001 1779.7184,-174 1769.7184,-170.5001 1769.7185,-177.5001"/>
</g>
<!-- OpenMayestroRoutingModule -->
<g id="node21" class="node">
<title>OpenMayestroRoutingModule</title>
<polygon fill="#8dd3c7" stroke="#000000" points="467.8585,-122 464.8585,-126 443.8585,-126 440.8585,-122 280.1415,-122 280.1415,-86 467.8585,-86 467.8585,-122"/>
<text text-anchor="middle" x="374" y="-99.8" font-family="Times,serif" font-size="14.00" fill="#000000">OpenMayestroRoutingModule</text>
</g>
<!-- OpenMayestroRoutingModule&#45;&gt;OpenMayestroModule -->
<g id="edge20" class="edge">
<title>OpenMayestroRoutingModule&#45;&gt;OpenMayestroModule</title>
<path fill="none" stroke="#000000" d="M374,-122.2921C374,-144.2057 374,-178 374,-178 374,-178 1769.5118,-178 1769.5118,-178"/>
<polygon fill="#000000" stroke="#000000" points="1769.5119,-181.5001 1779.5118,-178 1769.5118,-174.5001 1769.5119,-181.5001"/>
</g>
<!-- SharedModule -->
<g id="node22" class="node">
<title>SharedModule</title>
<polygon fill="#8dd3c7" stroke="#000000" points="262.4231,-122 259.4231,-126 238.4231,-126 235.4231,-122 163.5769,-122 163.5769,-86 262.4231,-86 262.4231,-122"/>
<text text-anchor="middle" x="213" y="-99.8" font-family="Times,serif" font-size="14.00" fill="#000000">SharedModule</text>
</g>
<!-- SharedModule&#45;&gt;OpenMayestroModule -->
<g id="edge21" class="edge">
<title>SharedModule&#45;&gt;OpenMayestroModule</title>
<path fill="none" stroke="#000000" d="M213,-122.2479C213,-145.0179 213,-181 213,-181 213,-181 1769.5639,-181 1769.5639,-181"/>
<polygon fill="#000000" stroke="#000000" points="1769.564,-184.5001 1779.5639,-181 1769.5639,-177.5001 1769.564,-184.5001"/>
</g>
<!-- UserService -->
<g id="node23" class="node">
<title>UserService</title>
<ellipse fill="#fdb462" stroke="#000000" cx="82" cy="-104" rx="58.4415" ry="18"/>
<text text-anchor="middle" x="82" y="-99.8" font-family="Times,serif" font-size="14.00" fill="#000000">UserService</text>
</g>
<!-- UserService&#45;&gt;OpenMayestroModule -->
<g id="edge22" class="edge">
<title>UserService&#45;&gt;OpenMayestroModule</title>
<path fill="none" stroke="#000000" d="M82,-122.1532C82,-145.7566 82,-184 82,-184 82,-184 1769.7377,-184 1769.7377,-184"/>
<polygon fill="#000000" stroke="#000000" points="1769.7377,-187.5001 1779.7377,-184 1769.7376,-180.5001 1769.7377,-187.5001"/>
</g>
</g>
</svg>
