<?xml version="1.0" encoding="UTF-8" standalone="no"?>
<!DOCTYPE svg PUBLIC "-//W3C//DTD SVG 1.1//EN"
 "http://www.w3.org/Graphics/SVG/1.1/DTD/svg11.dtd">
<!-- Generated by graphviz version 2.40.1 (20161225.0304)
 -->
<!-- Title: dependencies Pages: 1 -->
<svg width="1394pt" height="211pt"
 viewBox="0.00 0.00 1394.00 211.00" xmlns="http://www.w3.org/2000/svg" xmlns:xlink="http://www.w3.org/1999/xlink">
<g id="graph0" class="graph" transform="scale(1 1) rotate(0) translate(4 207)">
<title>dependencies</title>
<polygon fill="#ffffff" stroke="transparent" points="-4,4 -4,-207 1390,-207 1390,4 -4,4"/>
<text text-anchor="start" x="672.0091" y="-42.4" font-family="sans-serif" font-weight="bold" font-size="14.00" fill="#000000">Legend</text>
<polygon fill="#ffffb3" stroke="transparent" points="459,-10 459,-30 479,-30 479,-10 459,-10"/>
<text text-anchor="start" x="482.629" y="-15.4" font-family="sans-serif" font-size="14.00" fill="#000000"> &#160;Declarations</text>
<polygon fill="#8dd3c7" stroke="transparent" points="572,-10 572,-30 592,-30 592,-10 572,-10"/>
<text text-anchor="start" x="595.7251" y="-15.4" font-family="sans-serif" font-size="14.00" fill="#000000"> &#160;Module</text>
<polygon fill="#80b1d3" stroke="transparent" points="658,-10 658,-30 678,-30 678,-10 658,-10"/>
<text text-anchor="start" x="681.7812" y="-15.4" font-family="sans-serif" font-size="14.00" fill="#000000"> &#160;Bootstrap</text>
<polygon fill="#fdb462" stroke="transparent" points="755,-10 755,-30 775,-30 775,-10 755,-10"/>
<text text-anchor="start" x="778.6732" y="-15.4" font-family="sans-serif" font-size="14.00" fill="#000000"> &#160;Providers</text>
<polygon fill="#fb8072" stroke="transparent" points="851,-10 851,-30 871,-30 871,-10 851,-10"/>
<text text-anchor="start" x="874.7258" y="-15.4" font-family="sans-serif" font-size="14.00" fill="#000000"> &#160;Exports</text>
<g id="clust1" class="cluster">
<title>cluster_ArtistManagementModule</title>
<polygon fill="none" stroke="#000000" stroke-dasharray="1,5" points="8,-70 8,-195 1378,-195 1378,-70 8,-70"/>
</g>
<g id="clust2" class="cluster">
<title>cluster_ArtistManagementModule_declarations</title>
<polygon fill="none" stroke="#000000" points="250,-78 250,-130 1370,-130 1370,-78 250,-78"/>
</g>
<g id="clust10" class="cluster">
<title>cluster_ArtistManagementModule_imports</title>
<polygon fill="none" stroke="#000000" points="16,-78 16,-130 242,-130 242,-78 16,-78"/>
</g>
<!-- ArtistManagementComponent -->
<g id="node1" class="node">
<title>ArtistManagementComponent</title>
<polygon fill="#ffffb3" stroke="#000000" points="1362.3004,-122 1175.6996,-122 1175.6996,-86 1362.3004,-86 1362.3004,-122"/>
<text text-anchor="middle" x="1269" y="-99.8" font-family="Times,serif" font-size="14.00" fill="#000000">ArtistManagementComponent</text>
</g>
<!-- ArtistManagementModule -->
<g id="node8" class="node">
<title>ArtistManagementModule</title>
<polygon fill="#8dd3c7" stroke="#000000" points="793.0183,-187 790.0183,-191 769.0183,-191 766.0183,-187 628.9817,-187 628.9817,-151 793.0183,-151 793.0183,-187"/>
<text text-anchor="middle" x="711" y="-164.8" font-family="Times,serif" font-size="14.00" fill="#000000">ArtistManagementModule</text>
</g>
<!-- ArtistManagementComponent&#45;&gt;ArtistManagementModule -->
<g id="edge1" class="edge">
<title>ArtistManagementComponent&#45;&gt;ArtistManagementModule</title>
<path fill="none" stroke="#000000" d="M1269,-122.2921C1269,-144.2057 1269,-178 1269,-178 1269,-178 803.035,-178 803.035,-178"/>
<polygon fill="#000000" stroke="#000000" points="803.035,-174.5001 793.035,-178 803.035,-181.5001 803.035,-174.5001"/>
</g>
<!-- CardComponent -->
<g id="node2" class="node">
<title>CardComponent</title>
<polygon fill="#ffffb3" stroke="#000000" points="1158.0452,-122 1049.9548,-122 1049.9548,-86 1158.0452,-86 1158.0452,-122"/>
<text text-anchor="middle" x="1104" y="-99.8" font-family="Times,serif" font-size="14.00" fill="#000000">CardComponent</text>
</g>
<!-- CardComponent&#45;&gt;ArtistManagementModule -->
<g id="edge2" class="edge">
<title>CardComponent&#45;&gt;ArtistManagementModule</title>
<path fill="none" stroke="#000000" d="M1104,-122.1061C1104,-141.3391 1104,-169 1104,-169 1104,-169 803.3857,-169 803.3857,-169"/>
<polygon fill="#000000" stroke="#000000" points="803.3857,-165.5001 793.3857,-169 803.3856,-172.5001 803.3857,-165.5001"/>
</g>
<!-- CardsContainerComponent -->
<g id="node3" class="node">
<title>CardsContainerComponent</title>
<polygon fill="#ffffb3" stroke="#000000" points="1031.6965,-122 862.3035,-122 862.3035,-86 1031.6965,-86 1031.6965,-122"/>
<text text-anchor="middle" x="947" y="-99.8" font-family="Times,serif" font-size="14.00" fill="#000000">CardsContainerComponent</text>
</g>
<!-- CardsContainerComponent&#45;&gt;ArtistManagementModule -->
<g id="edge3" class="edge">
<title>CardsContainerComponent&#45;&gt;ArtistManagementModule</title>
<path fill="none" stroke="#000000" d="M947,-122.027C947,-138.3976 947,-160 947,-160 947,-160 803.21,-160 803.21,-160"/>
<polygon fill="#000000" stroke="#000000" points="803.2101,-156.5001 793.21,-160 803.21,-163.5001 803.2101,-156.5001"/>
</g>
<!-- ChartComponent -->
<g id="node4" class="node">
<title>ChartComponent</title>
<polygon fill="#ffffb3" stroke="#000000" points="844.4356,-122 731.5644,-122 731.5644,-86 844.4356,-86 844.4356,-122"/>
<text text-anchor="middle" x="788" y="-99.8" font-family="Times,serif" font-size="14.00" fill="#000000">ChartComponent</text>
</g>
<!-- ChartComponent&#45;&gt;ArtistManagementModule -->
<g id="edge4" class="edge">
<title>ChartComponent&#45;&gt;ArtistManagementModule</title>
<path fill="none" stroke="#000000" d="M762.5207,-122.1061C762.5207,-122.1061 762.5207,-140.991 762.5207,-140.991"/>
<polygon fill="#000000" stroke="#000000" points="759.0208,-140.9909 762.5207,-150.991 766.0208,-140.991 759.0208,-140.9909"/>
</g>
<!-- CreateAlbumComponent -->
<g id="node5" class="node">
<title>CreateAlbumComponent</title>
<polygon fill="#ffffb3" stroke="#000000" points="713.252,-122 556.748,-122 556.748,-86 713.252,-86 713.252,-122"/>
<text text-anchor="middle" x="635" y="-99.8" font-family="Times,serif" font-size="14.00" fill="#000000">CreateAlbumComponent</text>
</g>
<!-- CreateAlbumComponent&#45;&gt;ArtistManagementModule -->
<g id="edge5" class="edge">
<title>CreateAlbumComponent&#45;&gt;ArtistManagementModule</title>
<path fill="none" stroke="#000000" d="M671.0586,-122.1061C671.0586,-122.1061 671.0586,-140.991 671.0586,-140.991"/>
<polygon fill="#000000" stroke="#000000" points="667.5586,-140.9909 671.0586,-150.991 674.5586,-140.991 667.5586,-140.9909"/>
</g>
<!-- CreateSongComponent -->
<g id="node6" class="node">
<title>CreateSongComponent</title>
<polygon fill="#ffffb3" stroke="#000000" points="538.147,-122 391.853,-122 391.853,-86 538.147,-86 538.147,-122"/>
<text text-anchor="middle" x="465" y="-99.8" font-family="Times,serif" font-size="14.00" fill="#000000">CreateSongComponent</text>
</g>
<!-- CreateSongComponent&#45;&gt;ArtistManagementModule -->
<g id="edge6" class="edge">
<title>CreateSongComponent&#45;&gt;ArtistManagementModule</title>
<path fill="none" stroke="#000000" d="M465,-122.027C465,-138.3976 465,-160 465,-160 465,-160 618.7435,-160 618.7435,-160"/>
<polygon fill="#000000" stroke="#000000" points="618.7436,-163.5001 628.7435,-160 618.7435,-156.5001 618.7436,-163.5001"/>
</g>
<!-- HomeComponent -->
<g id="node7" class="node">
<title>HomeComponent</title>
<polygon fill="#ffffb3" stroke="#000000" points="373.5451,-122 258.4549,-122 258.4549,-86 373.5451,-86 373.5451,-122"/>
<text text-anchor="middle" x="316" y="-99.8" font-family="Times,serif" font-size="14.00" fill="#000000">HomeComponent</text>
</g>
<!-- HomeComponent&#45;&gt;ArtistManagementModule -->
<g id="edge7" class="edge">
<title>HomeComponent&#45;&gt;ArtistManagementModule</title>
<path fill="none" stroke="#000000" d="M316,-122.1061C316,-141.3391 316,-169 316,-169 316,-169 618.6759,-169 618.6759,-169"/>
<polygon fill="#000000" stroke="#000000" points="618.6759,-172.5001 628.6759,-169 618.6758,-165.5001 618.6759,-172.5001"/>
</g>
<!-- ArtistManagementRoutingModule -->
<g id="node9" class="node">
<title>ArtistManagementRoutingModule</title>
<polygon fill="#8dd3c7" stroke="#000000" points="233.6357,-122 230.6357,-126 209.6357,-126 206.6357,-122 24.3643,-122 24.3643,-86 233.6357,-86 233.6357,-122"/>
<text text-anchor="middle" x="129" y="-99.8" font-family="Times,serif" font-size="14.00" fill="#000000">ArtistManagementRoutingModule</text>
</g>
<!-- ArtistManagementRoutingModule&#45;&gt;ArtistManagementModule -->
<g id="edge8" class="edge">
<title>ArtistManagementRoutingModule&#45;&gt;ArtistManagementModule</title>
<path fill="none" stroke="#000000" d="M129,-122.2921C129,-144.2057 129,-178 129,-178 129,-178 618.848,-178 618.848,-178"/>
<polygon fill="#000000" stroke="#000000" points="618.848,-181.5001 628.848,-178 618.848,-174.5001 618.848,-181.5001"/>
</g>
</g>
</svg>
