<?xml version="1.0" encoding="UTF-8" standalone="no"?>
<!DOCTYPE svg PUBLIC "-//W3C//DTD SVG 1.1//EN"
 "http://www.w3.org/Graphics/SVG/1.1/DTD/svg11.dtd">
<!-- Generated by graphviz version 2.40.1 (20161225.0304)
 -->
<!-- Title: dependencies Pages: 1 -->
<svg width="1467pt" height="211pt"
 viewBox="0.00 0.00 1467.00 211.00" xmlns="http://www.w3.org/2000/svg" xmlns:xlink="http://www.w3.org/1999/xlink">
<g id="graph0" class="graph" transform="scale(1 1) rotate(0) translate(4 207)">
<title>dependencies</title>
<polygon fill="#ffffff" stroke="transparent" points="-4,4 -4,-207 1463,-207 1463,4 -4,4"/>
<text text-anchor="start" x="708.5091" y="-42.4" font-family="sans-serif" font-weight="bold" font-size="14.00" fill="#000000">Legend</text>
<polygon fill="#ffffb3" stroke="transparent" points="495.5,-10 495.5,-30 515.5,-30 515.5,-10 495.5,-10"/>
<text text-anchor="start" x="519.129" y="-15.4" font-family="sans-serif" font-size="14.00" fill="#000000"> &#160;Declarations</text>
<polygon fill="#8dd3c7" stroke="transparent" points="608.5,-10 608.5,-30 628.5,-30 628.5,-10 608.5,-10"/>
<text text-anchor="start" x="632.2251" y="-15.4" font-family="sans-serif" font-size="14.00" fill="#000000"> &#160;Module</text>
<polygon fill="#80b1d3" stroke="transparent" points="694.5,-10 694.5,-30 714.5,-30 714.5,-10 694.5,-10"/>
<text text-anchor="start" x="718.2812" y="-15.4" font-family="sans-serif" font-size="14.00" fill="#000000"> &#160;Bootstrap</text>
<polygon fill="#fdb462" stroke="transparent" points="791.5,-10 791.5,-30 811.5,-30 811.5,-10 791.5,-10"/>
<text text-anchor="start" x="815.1732" y="-15.4" font-family="sans-serif" font-size="14.00" fill="#000000"> &#160;Providers</text>
<polygon fill="#fb8072" stroke="transparent" points="887.5,-10 887.5,-30 907.5,-30 907.5,-10 887.5,-10"/>
<text text-anchor="start" x="911.2258" y="-15.4" font-family="sans-serif" font-size="14.00" fill="#000000"> &#160;Exports</text>
<g id="clust1" class="cluster">
<title>cluster_ArtistModule</title>
<polygon fill="none" stroke="#000000" stroke-dasharray="1,5" points="8,-70 8,-195 1451,-195 1451,-70 8,-70"/>
</g>
<g id="clust2" class="cluster">
<title>cluster_ArtistModule_declarations</title>
<polygon fill="none" stroke="#000000" points="292,-78 292,-130 1443,-130 1443,-78 292,-78"/>
</g>
<g id="clust10" class="cluster">
<title>cluster_ArtistModule_imports</title>
<polygon fill="none" stroke="#000000" points="16,-78 16,-130 284,-130 284,-78 16,-78"/>
</g>
<!-- AboutArtistComponent -->
<g id="node1" class="node">
<title>AboutArtistComponent</title>
<polygon fill="#ffffb3" stroke="#000000" points="1435.2134,-122 1286.7866,-122 1286.7866,-86 1435.2134,-86 1435.2134,-122"/>
<text text-anchor="middle" x="1361" y="-99.8" font-family="Times,serif" font-size="14.00" fill="#000000">AboutArtistComponent</text>
</g>
<!-- ArtistModule -->
<g id="node8" class="node">
<title>ArtistModule</title>
<polygon fill="#8dd3c7" stroke="#000000" points="769.9344,-187 766.9344,-191 745.9344,-191 742.9344,-187 678.0656,-187 678.0656,-151 769.9344,-151 769.9344,-187"/>
<text text-anchor="middle" x="724" y="-164.8" font-family="Times,serif" font-size="14.00" fill="#000000">ArtistModule</text>
</g>
<!-- AboutArtistComponent&#45;&gt;ArtistModule -->
<g id="edge1" class="edge">
<title>AboutArtistComponent&#45;&gt;ArtistModule</title>
<path fill="none" stroke="#000000" d="M1361,-122.0109C1361,-144.4852 1361,-180 1361,-180 1361,-180 779.8115,-180 779.8115,-180"/>
<polygon fill="#000000" stroke="#000000" points="779.8115,-176.5001 769.8115,-180 779.8114,-183.5001 779.8115,-176.5001"/>
</g>
<!-- ArtistCardComponent -->
<g id="node2" class="node">
<title>ArtistCardComponent</title>
<polygon fill="#ffffb3" stroke="#000000" points="1269.4285,-122 1128.5715,-122 1128.5715,-86 1269.4285,-86 1269.4285,-122"/>
<text text-anchor="middle" x="1199" y="-99.8" font-family="Times,serif" font-size="14.00" fill="#000000">ArtistCardComponent</text>
</g>
<!-- ArtistCardComponent&#45;&gt;ArtistModule -->
<g id="edge2" class="edge">
<title>ArtistCardComponent&#45;&gt;ArtistModule</title>
<path fill="none" stroke="#000000" d="M1199,-122.1289C1199,-142.5724 1199,-173 1199,-173 1199,-173 779.9766,-173 779.9766,-173"/>
<polygon fill="#000000" stroke="#000000" points="779.9766,-169.5001 769.9766,-173 779.9766,-176.5001 779.9766,-169.5001"/>
</g>
<!-- ArtistComponent -->
<g id="node3" class="node">
<title>ArtistComponent</title>
<polygon fill="#ffffb3" stroke="#000000" points="1110.7162,-122 997.2838,-122 997.2838,-86 1110.7162,-86 1110.7162,-122"/>
<text text-anchor="middle" x="1054" y="-99.8" font-family="Times,serif" font-size="14.00" fill="#000000">ArtistComponent</text>
</g>
<!-- ArtistComponent&#45;&gt;ArtistModule -->
<g id="edge3" class="edge">
<title>ArtistComponent&#45;&gt;ArtistModule</title>
<path fill="none" stroke="#000000" d="M1054,-122.2667C1054,-140.5552 1054,-166 1054,-166 1054,-166 779.8851,-166 779.8851,-166"/>
<polygon fill="#000000" stroke="#000000" points="779.8851,-162.5001 769.8851,-166 779.8851,-169.5001 779.8851,-162.5001"/>
</g>
<!-- ArtistHeaderComponent -->
<g id="node4" class="node">
<title>ArtistHeaderComponent</title>
<polygon fill="#ffffb3" stroke="#000000" points="979.6275,-122 826.3725,-122 826.3725,-86 979.6275,-86 979.6275,-122"/>
<text text-anchor="middle" x="903" y="-99.8" font-family="Times,serif" font-size="14.00" fill="#000000">ArtistHeaderComponent</text>
</g>
<!-- ArtistHeaderComponent&#45;&gt;ArtistModule -->
<g id="edge4" class="edge">
<title>ArtistHeaderComponent&#45;&gt;ArtistModule</title>
<path fill="none" stroke="#000000" d="M903,-122.0091C903,-138.0494 903,-159 903,-159 903,-159 780.0969,-159 780.0969,-159"/>
<polygon fill="#000000" stroke="#000000" points="780.097,-155.5001 770.0969,-159 780.0969,-162.5001 780.097,-155.5001"/>
</g>
<!-- ArtistOverviewComponent -->
<g id="node5" class="node">
<title>ArtistOverviewComponent</title>
<polygon fill="#ffffb3" stroke="#000000" points="808.4101,-122 639.5899,-122 639.5899,-86 808.4101,-86 808.4101,-122"/>
<text text-anchor="middle" x="724" y="-99.8" font-family="Times,serif" font-size="14.00" fill="#000000">ArtistOverviewComponent</text>
</g>
<!-- ArtistOverviewComponent&#45;&gt;ArtistModule -->
<g id="edge5" class="edge">
<title>ArtistOverviewComponent&#45;&gt;ArtistModule</title>
<path fill="none" stroke="#000000" d="M724,-122.1061C724,-122.1061 724,-140.991 724,-140.991"/>
<polygon fill="#000000" stroke="#000000" points="720.5001,-140.9909 724,-150.991 727.5001,-140.991 720.5001,-140.9909"/>
</g>
<!-- ArtistSongComponent -->
<g id="node6" class="node">
<title>ArtistSongComponent</title>
<polygon fill="#ffffb3" stroke="#000000" points="621.9986,-122 480.0014,-122 480.0014,-86 621.9986,-86 621.9986,-122"/>
<text text-anchor="middle" x="551" y="-99.8" font-family="Times,serif" font-size="14.00" fill="#000000">ArtistSongComponent</text>
</g>
<!-- ArtistSongComponent&#45;&gt;ArtistModule -->
<g id="edge6" class="edge">
<title>ArtistSongComponent&#45;&gt;ArtistModule</title>
<path fill="none" stroke="#000000" d="M551,-122.0091C551,-138.0494 551,-159 551,-159 551,-159 668.0934,-159 668.0934,-159"/>
<polygon fill="#000000" stroke="#000000" points="668.0934,-162.5001 678.0934,-159 668.0933,-155.5001 668.0934,-162.5001"/>
</g>
<!-- RelatedArtistsComponent -->
<g id="node7" class="node">
<title>RelatedArtistsComponent</title>
<polygon fill="#ffffb3" stroke="#000000" points="461.9228,-122 300.0772,-122 300.0772,-86 461.9228,-86 461.9228,-122"/>
<text text-anchor="middle" x="381" y="-99.8" font-family="Times,serif" font-size="14.00" fill="#000000">RelatedArtistsComponent</text>
</g>
<!-- RelatedArtistsComponent&#45;&gt;ArtistModule -->
<g id="edge7" class="edge">
<title>RelatedArtistsComponent&#45;&gt;ArtistModule</title>
<path fill="none" stroke="#000000" d="M381,-122.2667C381,-140.5552 381,-166 381,-166 381,-166 668.0974,-166 668.0974,-166"/>
<polygon fill="#000000" stroke="#000000" points="668.0974,-169.5001 678.0974,-166 668.0974,-162.5001 668.0974,-169.5001"/>
</g>
<!-- ArtistRoutingModule -->
<g id="node9" class="node">
<title>ArtistRoutingModule</title>
<polygon fill="#8dd3c7" stroke="#000000" points="276.0519,-122 273.0519,-126 252.0519,-126 249.0519,-122 139.9481,-122 139.9481,-86 276.0519,-86 276.0519,-122"/>
<text text-anchor="middle" x="208" y="-99.8" font-family="Times,serif" font-size="14.00" fill="#000000">ArtistRoutingModule</text>
</g>
<!-- ArtistRoutingModule&#45;&gt;ArtistModule -->
<g id="edge8" class="edge">
<title>ArtistRoutingModule&#45;&gt;ArtistModule</title>
<path fill="none" stroke="#000000" d="M208,-122.1289C208,-142.5724 208,-173 208,-173 208,-173 668.2084,-173 668.2084,-173"/>
<polygon fill="#000000" stroke="#000000" points="668.2085,-176.5001 678.2084,-173 668.2084,-169.5001 668.2085,-176.5001"/>
</g>
<!-- SharedModule -->
<g id="node10" class="node">
<title>SharedModule</title>
<polygon fill="#8dd3c7" stroke="#000000" points="122.4231,-122 119.4231,-126 98.4231,-126 95.4231,-122 23.5769,-122 23.5769,-86 122.4231,-86 122.4231,-122"/>
<text text-anchor="middle" x="73" y="-99.8" font-family="Times,serif" font-size="14.00" fill="#000000">SharedModule</text>
</g>
<!-- SharedModule&#45;&gt;ArtistModule -->
<g id="edge9" class="edge">
<title>SharedModule&#45;&gt;ArtistModule</title>
<path fill="none" stroke="#000000" d="M73,-122.0109C73,-144.4852 73,-180 73,-180 73,-180 668.2229,-180 668.2229,-180"/>
<polygon fill="#000000" stroke="#000000" points="668.223,-183.5001 678.2229,-180 668.2229,-176.5001 668.223,-183.5001"/>
</g>
</g>
</svg>
