<?xml version="1.0" encoding="UTF-8" standalone="no"?>
<!DOCTYPE svg PUBLIC "-//W3C//DTD SVG 1.1//EN"
 "http://www.w3.org/Graphics/SVG/1.1/DTD/svg11.dtd">
<!-- Generated by graphviz version 2.40.1 (20161225.0304)
 -->
<!-- Title: dependencies Pages: 1 -->
<svg width="1568pt" height="211pt"
 viewBox="0.00 0.00 1568.00 211.00" xmlns="http://www.w3.org/2000/svg" xmlns:xlink="http://www.w3.org/1999/xlink">
<g id="graph0" class="graph" transform="scale(1 1) rotate(0) translate(4 207)">
<title>dependencies</title>
<polygon fill="#ffffff" stroke="transparent" points="-4,4 -4,-207 1564,-207 1564,4 -4,4"/>
<text text-anchor="start" x="759.0091" y="-42.4" font-family="sans-serif" font-weight="bold" font-size="14.00" fill="#000000">Legend</text>
<polygon fill="#ffffb3" stroke="transparent" points="546,-10 546,-30 566,-30 566,-10 546,-10"/>
<text text-anchor="start" x="569.629" y="-15.4" font-family="sans-serif" font-size="14.00" fill="#000000"> &#160;Declarations</text>
<polygon fill="#8dd3c7" stroke="transparent" points="659,-10 659,-30 679,-30 679,-10 659,-10"/>
<text text-anchor="start" x="682.7251" y="-15.4" font-family="sans-serif" font-size="14.00" fill="#000000"> &#160;Module</text>
<polygon fill="#80b1d3" stroke="transparent" points="745,-10 745,-30 765,-30 765,-10 745,-10"/>
<text text-anchor="start" x="768.7812" y="-15.4" font-family="sans-serif" font-size="14.00" fill="#000000"> &#160;Bootstrap</text>
<polygon fill="#fdb462" stroke="transparent" points="842,-10 842,-30 862,-30 862,-10 842,-10"/>
<text text-anchor="start" x="865.6732" y="-15.4" font-family="sans-serif" font-size="14.00" fill="#000000"> &#160;Providers</text>
<polygon fill="#fb8072" stroke="transparent" points="938,-10 938,-30 958,-30 958,-10 938,-10"/>
<text text-anchor="start" x="961.7258" y="-15.4" font-family="sans-serif" font-size="14.00" fill="#000000"> &#160;Exports</text>
<g id="clust1" class="cluster">
<title>cluster_AccountMayestroModule</title>
<polygon fill="none" stroke="#000000" stroke-dasharray="1,5" points="8,-70 8,-195 1552,-195 1552,-70 8,-70"/>
</g>
<g id="clust2" class="cluster">
<title>cluster_AccountMayestroModule_declarations</title>
<polygon fill="none" stroke="#000000" points="361,-78 361,-130 1544,-130 1544,-78 361,-78"/>
</g>
<g id="clust10" class="cluster">
<title>cluster_AccountMayestroModule_imports</title>
<polygon fill="none" stroke="#000000" points="16,-78 16,-130 353,-130 353,-78 16,-78"/>
</g>
<!-- AccountMayestroComponent -->
<g id="node1" class="node">
<title>AccountMayestroComponent</title>
<polygon fill="#ffffb3" stroke="#000000" points="1535.6288,-122 1354.3712,-122 1354.3712,-86 1535.6288,-86 1535.6288,-122"/>
<text text-anchor="middle" x="1445" y="-99.8" font-family="Times,serif" font-size="14.00" fill="#000000">AccountMayestroComponent</text>
</g>
<!-- AccountMayestroModule -->
<g id="node8" class="node">
<title>AccountMayestroModule</title>
<polygon fill="#8dd3c7" stroke="#000000" points="806.8459,-187 803.8459,-191 782.8459,-191 779.8459,-187 647.1541,-187 647.1541,-151 806.8459,-151 806.8459,-187"/>
<text text-anchor="middle" x="727" y="-164.8" font-family="Times,serif" font-size="14.00" fill="#000000">AccountMayestroModule</text>
</g>
<!-- AccountMayestroComponent&#45;&gt;AccountMayestroModule -->
<g id="edge1" class="edge">
<title>AccountMayestroComponent&#45;&gt;AccountMayestroModule</title>
<path fill="none" stroke="#000000" d="M1445,-122.0109C1445,-144.4852 1445,-180 1445,-180 1445,-180 816.9275,-180 816.9275,-180"/>
<polygon fill="#000000" stroke="#000000" points="816.9276,-176.5001 806.9275,-180 816.9275,-183.5001 816.9276,-176.5001"/>
</g>
<!-- ChangePasswordComponent -->
<g id="node2" class="node">
<title>ChangePasswordComponent</title>
<polygon fill="#ffffb3" stroke="#000000" points="1335.752,-122 1158.248,-122 1158.248,-86 1335.752,-86 1335.752,-122"/>
<text text-anchor="middle" x="1247" y="-99.8" font-family="Times,serif" font-size="14.00" fill="#000000">ChangePasswordComponent</text>
</g>
<!-- ChangePasswordComponent&#45;&gt;AccountMayestroModule -->
<g id="edge2" class="edge">
<title>ChangePasswordComponent&#45;&gt;AccountMayestroModule</title>
<path fill="none" stroke="#000000" d="M1247,-122.1289C1247,-142.5724 1247,-173 1247,-173 1247,-173 817.1104,-173 817.1104,-173"/>
<polygon fill="#000000" stroke="#000000" points="817.1104,-169.5001 807.1104,-173 817.1104,-176.5001 817.1104,-169.5001"/>
</g>
<!-- ForgetPasswordComponent -->
<g id="node3" class="node">
<title>ForgetPasswordComponent</title>
<polygon fill="#ffffb3" stroke="#000000" points="1139.535,-122 968.465,-122 968.465,-86 1139.535,-86 1139.535,-122"/>
<text text-anchor="middle" x="1054" y="-99.8" font-family="Times,serif" font-size="14.00" fill="#000000">ForgetPasswordComponent</text>
</g>
<!-- ForgetPasswordComponent&#45;&gt;AccountMayestroModule -->
<g id="edge3" class="edge">
<title>ForgetPasswordComponent&#45;&gt;AccountMayestroModule</title>
<path fill="none" stroke="#000000" d="M1054,-122.2667C1054,-140.5552 1054,-166 1054,-166 1054,-166 816.9932,-166 816.9932,-166"/>
<polygon fill="#000000" stroke="#000000" points="816.9932,-162.5001 806.9932,-166 816.9932,-169.5001 816.9932,-162.5001"/>
</g>
<!-- HeaderComponent -->
<g id="node4" class="node">
<title>HeaderComponent</title>
<polygon fill="#ffffb3" stroke="#000000" points="949.7437,-122 828.2563,-122 828.2563,-86 949.7437,-86 949.7437,-122"/>
<text text-anchor="middle" x="889" y="-99.8" font-family="Times,serif" font-size="14.00" fill="#000000">HeaderComponent</text>
</g>
<!-- HeaderComponent&#45;&gt;AccountMayestroModule -->
<g id="edge4" class="edge">
<title>HeaderComponent&#45;&gt;AccountMayestroModule</title>
<path fill="none" stroke="#000000" d="M889,-122.0091C889,-138.0494 889,-159 889,-159 889,-159 817.0508,-159 817.0508,-159"/>
<polygon fill="#000000" stroke="#000000" points="817.0508,-155.5001 807.0508,-159 817.0508,-162.5001 817.0508,-155.5001"/>
</g>
<!-- ResetPasswordComponent -->
<g id="node5" class="node">
<title>ResetPasswordComponent</title>
<polygon fill="#ffffb3" stroke="#000000" points="810.087,-122 643.913,-122 643.913,-86 810.087,-86 810.087,-122"/>
<text text-anchor="middle" x="727" y="-99.8" font-family="Times,serif" font-size="14.00" fill="#000000">ResetPasswordComponent</text>
</g>
<!-- ResetPasswordComponent&#45;&gt;AccountMayestroModule -->
<g id="edge5" class="edge">
<title>ResetPasswordComponent&#45;&gt;AccountMayestroModule</title>
<path fill="none" stroke="#000000" d="M727,-122.1061C727,-122.1061 727,-140.991 727,-140.991"/>
<polygon fill="#000000" stroke="#000000" points="723.5001,-140.9909 727,-150.991 730.5001,-140.991 723.5001,-140.9909"/>
</g>
<!-- SigninComponent -->
<g id="node6" class="node">
<title>SigninComponent</title>
<polygon fill="#ffffb3" stroke="#000000" points="625.8962,-122 508.1038,-122 508.1038,-86 625.8962,-86 625.8962,-122"/>
<text text-anchor="middle" x="567" y="-99.8" font-family="Times,serif" font-size="14.00" fill="#000000">SigninComponent</text>
</g>
<!-- SigninComponent&#45;&gt;AccountMayestroModule -->
<g id="edge6" class="edge">
<title>SigninComponent&#45;&gt;AccountMayestroModule</title>
<path fill="none" stroke="#000000" d="M567,-122.0091C567,-138.0494 567,-159 567,-159 567,-159 637,-159 637,-159"/>
<polygon fill="#000000" stroke="#000000" points="637,-162.5001 647,-159 637,-155.5001 637,-162.5001"/>
</g>
<!-- SignupComponent -->
<g id="node7" class="node">
<title>SignupComponent</title>
<polygon fill="#ffffb3" stroke="#000000" points="490.5056,-122 369.4944,-122 369.4944,-86 490.5056,-86 490.5056,-122"/>
<text text-anchor="middle" x="430" y="-99.8" font-family="Times,serif" font-size="14.00" fill="#000000">SignupComponent</text>
</g>
<!-- SignupComponent&#45;&gt;AccountMayestroModule -->
<g id="edge7" class="edge">
<title>SignupComponent&#45;&gt;AccountMayestroModule</title>
<path fill="none" stroke="#000000" d="M430,-122.2667C430,-140.5552 430,-166 430,-166 430,-166 637.0188,-166 637.0188,-166"/>
<polygon fill="#000000" stroke="#000000" points="637.0188,-169.5001 647.0188,-166 637.0187,-162.5001 637.0188,-169.5001"/>
</g>
<!-- AccountMayestroRoutingModule -->
<g id="node9" class="node">
<title>AccountMayestroRoutingModule</title>
<polygon fill="#8dd3c7" stroke="#000000" points="345.4636,-122 342.4636,-126 321.4636,-126 318.4636,-122 140.5364,-122 140.5364,-86 345.4636,-86 345.4636,-122"/>
<text text-anchor="middle" x="243" y="-99.8" font-family="Times,serif" font-size="14.00" fill="#000000">AccountMayestroRoutingModule</text>
</g>
<!-- AccountMayestroRoutingModule&#45;&gt;AccountMayestroModule -->
<g id="edge8" class="edge">
<title>AccountMayestroRoutingModule&#45;&gt;AccountMayestroModule</title>
<path fill="none" stroke="#000000" d="M243,-122.1289C243,-142.5724 243,-173 243,-173 243,-173 637.0772,-173 637.0772,-173"/>
<polygon fill="#000000" stroke="#000000" points="637.0773,-176.5001 647.0772,-173 637.0772,-169.5001 637.0773,-176.5001"/>
</g>
<!-- SharedModule -->
<g id="node10" class="node">
<title>SharedModule</title>
<polygon fill="#8dd3c7" stroke="#000000" points="122.4231,-122 119.4231,-126 98.4231,-126 95.4231,-122 23.5769,-122 23.5769,-86 122.4231,-86 122.4231,-122"/>
<text text-anchor="middle" x="73" y="-99.8" font-family="Times,serif" font-size="14.00" fill="#000000">SharedModule</text>
</g>
<!-- SharedModule&#45;&gt;AccountMayestroModule -->
<g id="edge9" class="edge">
<title>SharedModule&#45;&gt;AccountMayestroModule</title>
<path fill="none" stroke="#000000" d="M73,-122.0109C73,-144.4852 73,-180 73,-180 73,-180 637.1339,-180 637.1339,-180"/>
<polygon fill="#000000" stroke="#000000" points="637.134,-183.5001 647.1339,-180 637.1339,-176.5001 637.134,-183.5001"/>
</g>
</g>
</svg>
