<?xml version="1.0" encoding="UTF-8" standalone="no"?>
<!DOCTYPE svg PUBLIC "-//W3C//DTD SVG 1.1//EN"
 "http://www.w3.org/Graphics/SVG/1.1/DTD/svg11.dtd">
<!-- Generated by graphviz version 2.40.1 (20161225.0304)
 -->
<!-- Title: dependencies Pages: 1 -->
<svg width="2395pt" height="211pt"
 viewBox="0.00 0.00 2395.00 211.00" xmlns="http://www.w3.org/2000/svg" xmlns:xlink="http://www.w3.org/1999/xlink">
<g id="graph0" class="graph" transform="scale(1 1) rotate(0) translate(4 207)">
<title>dependencies</title>
<polygon fill="#ffffff" stroke="transparent" points="-4,4 -4,-207 2391,-207 2391,4 -4,4"/>
<text text-anchor="start" x="1172.5091" y="-42.4" font-family="sans-serif" font-weight="bold" font-size="14.00" fill="#000000">Legend</text>
<polygon fill="#ffffb3" stroke="transparent" points="959.5,-10 959.5,-30 979.5,-30 979.5,-10 959.5,-10"/>
<text text-anchor="start" x="983.129" y="-15.4" font-family="sans-serif" font-size="14.00" fill="#000000"> &#160;Declarations</text>
<polygon fill="#8dd3c7" stroke="transparent" points="1072.5,-10 1072.5,-30 1092.5,-30 1092.5,-10 1072.5,-10"/>
<text text-anchor="start" x="1096.2251" y="-15.4" font-family="sans-serif" font-size="14.00" fill="#000000"> &#160;Module</text>
<polygon fill="#80b1d3" stroke="transparent" points="1158.5,-10 1158.5,-30 1178.5,-30 1178.5,-10 1158.5,-10"/>
<text text-anchor="start" x="1182.2812" y="-15.4" font-family="sans-serif" font-size="14.00" fill="#000000"> &#160;Bootstrap</text>
<polygon fill="#fdb462" stroke="transparent" points="1255.5,-10 1255.5,-30 1275.5,-30 1275.5,-10 1255.5,-10"/>
<text text-anchor="start" x="1279.1732" y="-15.4" font-family="sans-serif" font-size="14.00" fill="#000000"> &#160;Providers</text>
<polygon fill="#fb8072" stroke="transparent" points="1351.5,-10 1351.5,-30 1371.5,-30 1371.5,-10 1351.5,-10"/>
<text text-anchor="start" x="1375.2258" y="-15.4" font-family="sans-serif" font-size="14.00" fill="#000000"> &#160;Exports</text>
<g id="clust1" class="cluster">
<title>cluster_MayestroModule</title>
<polygon fill="none" stroke="#000000" stroke-dasharray="1,5" points="8,-70 8,-195 2379,-195 2379,-70 8,-70"/>
</g>
<g id="clust2" class="cluster">
<title>cluster_MayestroModule_declarations</title>
<polygon fill="none" stroke="#000000" points="314,-78 314,-130 2371,-130 2371,-78 314,-78"/>
</g>
<g id="clust17" class="cluster">
<title>cluster_MayestroModule_imports</title>
<polygon fill="none" stroke="#000000" points="16,-78 16,-130 306,-130 306,-78 16,-78"/>
</g>
<!-- AlbumsComponent -->
<g id="node1" class="node">
<title>AlbumsComponent</title>
<polygon fill="#ffffb3" stroke="#000000" points="2362.6652,-122 2237.3348,-122 2237.3348,-86 2362.6652,-86 2362.6652,-122"/>
<text text-anchor="middle" x="2300" y="-99.8" font-family="Times,serif" font-size="14.00" fill="#000000">AlbumsComponent</text>
</g>
<!-- MayestroModule -->
<g id="node15" class="node">
<title>MayestroModule</title>
<polygon fill="#8dd3c7" stroke="#000000" points="1262.4202,-187 1259.4202,-191 1238.4202,-191 1235.4202,-187 1149.5798,-187 1149.5798,-151 1262.4202,-151 1262.4202,-187"/>
<text text-anchor="middle" x="1206" y="-164.8" font-family="Times,serif" font-size="14.00" fill="#000000">MayestroModule</text>
</g>
<!-- AlbumsComponent&#45;&gt;MayestroModule -->
<g id="edge1" class="edge">
<title>AlbumsComponent&#45;&gt;MayestroModule</title>
<path fill="none" stroke="#000000" d="M2300,-122.3228C2300,-145.6602 2300,-183 2300,-183 2300,-183 1272.5145,-183 1272.5145,-183"/>
<polygon fill="#000000" stroke="#000000" points="1272.5145,-179.5001 1262.5145,-183 1272.5145,-186.5001 1272.5145,-179.5001"/>
</g>
<!-- ArtistsComponent -->
<g id="node2" class="node">
<title>ArtistsComponent</title>
<polygon fill="#ffffb3" stroke="#000000" points="2219.1611,-122 2100.8389,-122 2100.8389,-86 2219.1611,-86 2219.1611,-122"/>
<text text-anchor="middle" x="2160" y="-99.8" font-family="Times,serif" font-size="14.00" fill="#000000">ArtistsComponent</text>
</g>
<!-- ArtistsComponent&#45;&gt;MayestroModule -->
<g id="edge2" class="edge">
<title>ArtistsComponent&#45;&gt;MayestroModule</title>
<path fill="none" stroke="#000000" d="M2160,-122.2921C2160,-144.2057 2160,-178 2160,-178 2160,-178 1272.4673,-178 1272.4673,-178"/>
<polygon fill="#000000" stroke="#000000" points="1272.4673,-174.5001 1262.4673,-178 1272.4672,-181.5001 1272.4673,-174.5001"/>
</g>
<!-- CardComponent -->
<g id="node3" class="node">
<title>CardComponent</title>
<polygon fill="#ffffb3" stroke="#000000" points="2082.0452,-122 1973.9548,-122 1973.9548,-86 2082.0452,-86 2082.0452,-122"/>
<text text-anchor="middle" x="2028" y="-99.8" font-family="Times,serif" font-size="14.00" fill="#000000">CardComponent</text>
</g>
<!-- CardComponent&#45;&gt;MayestroModule -->
<g id="edge3" class="edge">
<title>CardComponent&#45;&gt;MayestroModule</title>
<path fill="none" stroke="#000000" d="M2028,-122.0267C2028,-142.7672 2028,-174 2028,-174 2028,-174 1272.4994,-174 1272.4994,-174"/>
<polygon fill="#000000" stroke="#000000" points="1272.4994,-170.5001 1262.4994,-174 1272.4994,-177.5001 1272.4994,-170.5001"/>
</g>
<!-- HomeComponent -->
<g id="node4" class="node">
<title>HomeComponent</title>
<polygon fill="#ffffb3" stroke="#000000" points="1955.5451,-122 1840.4549,-122 1840.4549,-86 1955.5451,-86 1955.5451,-122"/>
<text text-anchor="middle" x="1898" y="-99.8" font-family="Times,serif" font-size="14.00" fill="#000000">HomeComponent</text>
</g>
<!-- HomeComponent&#45;&gt;MayestroModule -->
<g id="edge4" class="edge">
<title>HomeComponent&#45;&gt;MayestroModule</title>
<path fill="none" stroke="#000000" d="M1898,-122.1061C1898,-141.3391 1898,-169 1898,-169 1898,-169 1272.3359,-169 1272.3359,-169"/>
<polygon fill="#000000" stroke="#000000" points="1272.3359,-165.5001 1262.3359,-169 1272.3358,-172.5001 1272.3359,-165.5001"/>
</g>
<!-- MayestroComponent -->
<g id="node5" class="node">
<title>MayestroComponent</title>
<polygon fill="#ffffb3" stroke="#000000" points="1822.2022,-122 1687.7978,-122 1687.7978,-86 1822.2022,-86 1822.2022,-122"/>
<text text-anchor="middle" x="1755" y="-99.8" font-family="Times,serif" font-size="14.00" fill="#000000">MayestroComponent</text>
</g>
<!-- MayestroComponent&#45;&gt;MayestroModule -->
<g id="edge5" class="edge">
<title>MayestroComponent&#45;&gt;MayestroModule</title>
<path fill="none" stroke="#000000" d="M1755,-122.302C1755,-140.2699 1755,-165 1755,-165 1755,-165 1272.4285,-165 1272.4285,-165"/>
<polygon fill="#000000" stroke="#000000" points="1272.4285,-161.5001 1262.4285,-165 1272.4285,-168.5001 1272.4285,-161.5001"/>
</g>
<!-- MiniCardViewerComponent -->
<g id="node6" class="node">
<title>MiniCardViewerComponent</title>
<polygon fill="#ffffb3" stroke="#000000" points="1669.4636,-122 1492.5364,-122 1492.5364,-86 1669.4636,-86 1669.4636,-122"/>
<text text-anchor="middle" x="1581" y="-99.8" font-family="Times,serif" font-size="14.00" fill="#000000">MiniCardViewerComponent</text>
</g>
<!-- MiniCardViewerComponent&#45;&gt;MayestroModule -->
<g id="edge6" class="edge">
<title>MiniCardViewerComponent&#45;&gt;MayestroModule</title>
<path fill="none" stroke="#000000" d="M1581,-122.027C1581,-138.3976 1581,-160 1581,-160 1581,-160 1272.5473,-160 1272.5473,-160"/>
<polygon fill="#000000" stroke="#000000" points="1272.5473,-156.5001 1262.5473,-160 1272.5473,-163.5001 1272.5473,-156.5001"/>
</g>
<!-- PlayerComponent -->
<g id="node7" class="node">
<title>PlayerComponent</title>
<polygon fill="#ffffb3" stroke="#000000" points="1474.5954,-122 1357.4046,-122 1357.4046,-86 1474.5954,-86 1474.5954,-122"/>
<text text-anchor="middle" x="1416" y="-99.8" font-family="Times,serif" font-size="14.00" fill="#000000">PlayerComponent</text>
</g>
<!-- PlayerComponent&#45;&gt;MayestroModule -->
<g id="edge7" class="edge">
<title>PlayerComponent&#45;&gt;MayestroModule</title>
<path fill="none" stroke="#000000" d="M1416,-122.1871C1416,-137.1824 1416,-156 1416,-156 1416,-156 1272.2761,-156 1272.2761,-156"/>
<polygon fill="#000000" stroke="#000000" points="1272.2762,-152.5001 1262.2761,-156 1272.2761,-159.5001 1272.2762,-152.5001"/>
</g>
<!-- PlaylistComponent -->
<g id="node8" class="node">
<title>PlaylistComponent</title>
<polygon fill="#ffffb3" stroke="#000000" points="1339.8371,-122 1216.1629,-122 1216.1629,-86 1339.8371,-86 1339.8371,-122"/>
<text text-anchor="middle" x="1278" y="-99.8" font-family="Times,serif" font-size="14.00" fill="#000000">PlaylistComponent</text>
</g>
<!-- PlaylistComponent&#45;&gt;MayestroModule -->
<g id="edge8" class="edge">
<title>PlaylistComponent&#45;&gt;MayestroModule</title>
<path fill="none" stroke="#000000" d="M1239.2707,-122.1061C1239.2707,-122.1061 1239.2707,-140.991 1239.2707,-140.991"/>
<polygon fill="#000000" stroke="#000000" points="1235.7708,-140.9909 1239.2707,-150.991 1242.7708,-140.991 1235.7708,-140.9909"/>
</g>
<!-- PlaylistsComponent -->
<g id="node9" class="node">
<title>PlaylistsComponent</title>
<polygon fill="#ffffb3" stroke="#000000" points="1198.2814,-122 1069.7186,-122 1069.7186,-86 1198.2814,-86 1198.2814,-122"/>
<text text-anchor="middle" x="1134" y="-99.8" font-family="Times,serif" font-size="14.00" fill="#000000">PlaylistsComponent</text>
</g>
<!-- PlaylistsComponent&#45;&gt;MayestroModule -->
<g id="edge9" class="edge">
<title>PlaylistsComponent&#45;&gt;MayestroModule</title>
<path fill="none" stroke="#000000" d="M1174.0905,-122.1061C1174.0905,-122.1061 1174.0905,-140.991 1174.0905,-140.991"/>
<polygon fill="#000000" stroke="#000000" points="1170.5905,-140.9909 1174.0905,-150.991 1177.5905,-140.991 1170.5905,-140.9909"/>
</g>
<!-- SearchCardComponent -->
<g id="node10" class="node">
<title>SearchCardComponent</title>
<polygon fill="#ffffb3" stroke="#000000" points="1051.1317,-122 904.8683,-122 904.8683,-86 1051.1317,-86 1051.1317,-122"/>
<text text-anchor="middle" x="978" y="-99.8" font-family="Times,serif" font-size="14.00" fill="#000000">SearchCardComponent</text>
</g>
<!-- SearchCardComponent&#45;&gt;MayestroModule -->
<g id="edge10" class="edge">
<title>SearchCardComponent&#45;&gt;MayestroModule</title>
<path fill="none" stroke="#000000" d="M978,-122.1871C978,-137.1824 978,-156 978,-156 978,-156 1139.6404,-156 1139.6404,-156"/>
<polygon fill="#000000" stroke="#000000" points="1139.6405,-159.5001 1149.6404,-156 1139.6404,-152.5001 1139.6405,-159.5001"/>
</g>
<!-- SearchComponent -->
<g id="node11" class="node">
<title>SearchComponent</title>
<polygon fill="#ffffb3" stroke="#000000" points="886.9201,-122 767.0799,-122 767.0799,-86 886.9201,-86 886.9201,-122"/>
<text text-anchor="middle" x="827" y="-99.8" font-family="Times,serif" font-size="14.00" fill="#000000">SearchComponent</text>
</g>
<!-- SearchComponent&#45;&gt;MayestroModule -->
<g id="edge11" class="edge">
<title>SearchComponent&#45;&gt;MayestroModule</title>
<path fill="none" stroke="#000000" d="M827,-122.027C827,-138.3976 827,-160 827,-160 827,-160 1139.6691,-160 1139.6691,-160"/>
<polygon fill="#000000" stroke="#000000" points="1139.6691,-163.5001 1149.6691,-160 1139.6691,-156.5001 1139.6691,-163.5001"/>
</g>
<!-- SeeAllComponent -->
<g id="node12" class="node">
<title>SeeAllComponent</title>
<polygon fill="#ffffb3" stroke="#000000" points="749.9328,-122 630.0672,-122 630.0672,-86 749.9328,-86 749.9328,-122"/>
<text text-anchor="middle" x="690" y="-99.8" font-family="Times,serif" font-size="14.00" fill="#000000">SeeAllComponent</text>
</g>
<!-- SeeAllComponent&#45;&gt;MayestroModule -->
<g id="edge12" class="edge">
<title>SeeAllComponent&#45;&gt;MayestroModule</title>
<path fill="none" stroke="#000000" d="M690,-122.302C690,-140.2699 690,-165 690,-165 690,-165 1139.3029,-165 1139.3029,-165"/>
<polygon fill="#000000" stroke="#000000" points="1139.303,-168.5001 1149.3029,-165 1139.3029,-161.5001 1139.303,-168.5001"/>
</g>
<!-- SideBarComponent -->
<g id="node13" class="node">
<title>SideBarComponent</title>
<polygon fill="#ffffb3" stroke="#000000" points="612.4327,-122 485.5673,-122 485.5673,-86 612.4327,-86 612.4327,-122"/>
<text text-anchor="middle" x="549" y="-99.8" font-family="Times,serif" font-size="14.00" fill="#000000">SideBarComponent</text>
</g>
<!-- SideBarComponent&#45;&gt;MayestroModule -->
<g id="edge13" class="edge">
<title>SideBarComponent&#45;&gt;MayestroModule</title>
<path fill="none" stroke="#000000" d="M549,-122.1061C549,-141.3391 549,-169 549,-169 549,-169 1139.7005,-169 1139.7005,-169"/>
<polygon fill="#000000" stroke="#000000" points="1139.7006,-172.5001 1149.7005,-169 1139.7005,-165.5001 1139.7006,-172.5001"/>
</g>
<!-- UserProfileComponent -->
<g id="node14" class="node">
<title>UserProfileComponent</title>
<polygon fill="#ffffb3" stroke="#000000" points="467.8585,-122 322.1415,-122 322.1415,-86 467.8585,-86 467.8585,-122"/>
<text text-anchor="middle" x="395" y="-99.8" font-family="Times,serif" font-size="14.00" fill="#000000">UserProfileComponent</text>
</g>
<!-- UserProfileComponent&#45;&gt;MayestroModule -->
<g id="edge14" class="edge">
<title>UserProfileComponent&#45;&gt;MayestroModule</title>
<path fill="none" stroke="#000000" d="M395,-122.0267C395,-142.7672 395,-174 395,-174 395,-174 1139.6159,-174 1139.6159,-174"/>
<polygon fill="#000000" stroke="#000000" points="1139.616,-177.5001 1149.6159,-174 1139.6159,-170.5001 1139.616,-177.5001"/>
</g>
<!-- MayestroRoutingModule -->
<g id="node16" class="node">
<title>MayestroRoutingModule</title>
<polygon fill="#8dd3c7" stroke="#000000" points="297.5379,-122 294.5379,-126 273.5379,-126 270.5379,-122 140.4621,-122 140.4621,-86 297.5379,-86 297.5379,-122"/>
<text text-anchor="middle" x="219" y="-99.8" font-family="Times,serif" font-size="14.00" fill="#000000">MayestroRoutingModule</text>
</g>
<!-- MayestroRoutingModule&#45;&gt;MayestroModule -->
<g id="edge15" class="edge">
<title>MayestroRoutingModule&#45;&gt;MayestroModule</title>
<path fill="none" stroke="#000000" d="M219,-122.2921C219,-144.2057 219,-178 219,-178 219,-178 1139.7486,-178 1139.7486,-178"/>
<polygon fill="#000000" stroke="#000000" points="1139.7487,-181.5001 1149.7486,-178 1139.7486,-174.5001 1139.7487,-181.5001"/>
</g>
<!-- SharedModule -->
<g id="node17" class="node">
<title>SharedModule</title>
<polygon fill="#8dd3c7" stroke="#000000" points="122.4231,-122 119.4231,-126 98.4231,-126 95.4231,-122 23.5769,-122 23.5769,-86 122.4231,-86 122.4231,-122"/>
<text text-anchor="middle" x="73" y="-99.8" font-family="Times,serif" font-size="14.00" fill="#000000">SharedModule</text>
</g>
<!-- SharedModule&#45;&gt;MayestroModule -->
<g id="edge16" class="edge">
<title>SharedModule&#45;&gt;MayestroModule</title>
<path fill="none" stroke="#000000" d="M73,-122.3228C73,-145.6602 73,-183 73,-183 73,-183 1139.4267,-183 1139.4267,-183"/>
<polygon fill="#000000" stroke="#000000" points="1139.4267,-186.5001 1149.4267,-183 1139.4267,-179.5001 1139.4267,-186.5001"/>
</g>
</g>
</svg>
