<?xml version="1.0" encoding="UTF-8" standalone="no"?>
<!DOCTYPE svg PUBLIC "-//W3C//DTD SVG 1.1//EN"
 "http://www.w3.org/Graphics/SVG/1.1/DTD/svg11.dtd">
<!-- Generated by graphviz version 2.40.1 (20161225.0304)
 -->
<!-- Title: dependencies Pages: 1 -->
<svg width="2527pt" height="211pt"
 viewBox="0.00 0.00 2527.00 211.00" xmlns="http://www.w3.org/2000/svg" xmlns:xlink="http://www.w3.org/1999/xlink">
<g id="graph0" class="graph" transform="scale(1 1) rotate(0) translate(4 207)">
<title>dependencies</title>
<polygon fill="#ffffff" stroke="transparent" points="-4,4 -4,-207 2523,-207 2523,4 -4,4"/>
<text text-anchor="start" x="1238.5091" y="-42.4" font-family="sans-serif" font-weight="bold" font-size="14.00" fill="#000000">Legend</text>
<polygon fill="#ffffb3" stroke="transparent" points="1025.5,-10 1025.5,-30 1045.5,-30 1045.5,-10 1025.5,-10"/>
<text text-anchor="start" x="1049.129" y="-15.4" font-family="sans-serif" font-size="14.00" fill="#000000"> &#160;Declarations</text>
<polygon fill="#8dd3c7" stroke="transparent" points="1138.5,-10 1138.5,-30 1158.5,-30 1158.5,-10 1138.5,-10"/>
<text text-anchor="start" x="1162.2251" y="-15.4" font-family="sans-serif" font-size="14.00" fill="#000000"> &#160;Module</text>
<polygon fill="#80b1d3" stroke="transparent" points="1224.5,-10 1224.5,-30 1244.5,-30 1244.5,-10 1224.5,-10"/>
<text text-anchor="start" x="1248.2812" y="-15.4" font-family="sans-serif" font-size="14.00" fill="#000000"> &#160;Bootstrap</text>
<polygon fill="#fdb462" stroke="transparent" points="1321.5,-10 1321.5,-30 1341.5,-30 1341.5,-10 1321.5,-10"/>
<text text-anchor="start" x="1345.1732" y="-15.4" font-family="sans-serif" font-size="14.00" fill="#000000"> &#160;Providers</text>
<polygon fill="#fb8072" stroke="transparent" points="1417.5,-10 1417.5,-30 1437.5,-30 1437.5,-10 1417.5,-10"/>
<text text-anchor="start" x="1441.2258" y="-15.4" font-family="sans-serif" font-size="14.00" fill="#000000"> &#160;Exports</text>
<g id="clust1" class="cluster">
<title>cluster_MayestroModule</title>
<polygon fill="none" stroke="#000000" stroke-dasharray="1,5" points="8,-70 8,-195 2511,-195 2511,-70 8,-70"/>
</g>
<g id="clust2" class="cluster">
<title>cluster_MayestroModule_declarations</title>
<polygon fill="none" stroke="#000000" points="314,-78 314,-130 2503,-130 2503,-78 314,-78"/>
</g>
<g id="clust18" class="cluster">
<title>cluster_MayestroModule_imports</title>
<polygon fill="none" stroke="#000000" points="16,-78 16,-130 306,-130 306,-78 16,-78"/>
</g>
<!-- AlbumsComponent -->
<g id="node1" class="node">
<title>AlbumsComponent</title>
<polygon fill="#ffffb3" stroke="#000000" points="2494.6652,-122 2369.3348,-122 2369.3348,-86 2494.6652,-86 2494.6652,-122"/>
<text text-anchor="middle" x="2432" y="-99.8" font-family="Times,serif" font-size="14.00" fill="#000000">AlbumsComponent</text>
</g>
<!-- MayestroModule -->
<g id="node16" class="node">
<title>MayestroModule</title>
<polygon fill="#8dd3c7" stroke="#000000" points="1322.4202,-187 1319.4202,-191 1298.4202,-191 1295.4202,-187 1209.5798,-187 1209.5798,-151 1322.4202,-151 1322.4202,-187"/>
<text text-anchor="middle" x="1266" y="-164.8" font-family="Times,serif" font-size="14.00" fill="#000000">MayestroModule</text>
</g>
<!-- AlbumsComponent&#45;&gt;MayestroModule -->
<g id="edge1" class="edge">
<title>AlbumsComponent&#45;&gt;MayestroModule</title>
<path fill="none" stroke="#000000" d="M2432,-122.3228C2432,-145.6602 2432,-183 2432,-183 2432,-183 1332.2386,-183 1332.2386,-183"/>
<polygon fill="#000000" stroke="#000000" points="1332.2386,-179.5001 1322.2386,-183 1332.2386,-186.5001 1332.2386,-179.5001"/>
</g>
<!-- ArtistsComponent -->
<g id="node2" class="node">
<title>ArtistsComponent</title>
<polygon fill="#ffffb3" stroke="#000000" points="2351.1611,-122 2232.8389,-122 2232.8389,-86 2351.1611,-86 2351.1611,-122"/>
<text text-anchor="middle" x="2292" y="-99.8" font-family="Times,serif" font-size="14.00" fill="#000000">ArtistsComponent</text>
</g>
<!-- ArtistsComponent&#45;&gt;MayestroModule -->
<g id="edge2" class="edge">
<title>ArtistsComponent&#45;&gt;MayestroModule</title>
<path fill="none" stroke="#000000" d="M2292,-122.1554C2292,-144.3519 2292,-179 2292,-179 2292,-179 1332.2567,-179 1332.2567,-179"/>
<polygon fill="#000000" stroke="#000000" points="1332.2568,-175.5001 1322.2567,-179 1332.2567,-182.5001 1332.2568,-175.5001"/>
</g>
<!-- CardComponent -->
<g id="node3" class="node">
<title>CardComponent</title>
<polygon fill="#ffffb3" stroke="#000000" points="2214.0452,-122 2105.9548,-122 2105.9548,-86 2214.0452,-86 2214.0452,-122"/>
<text text-anchor="middle" x="2160" y="-99.8" font-family="Times,serif" font-size="14.00" fill="#000000">CardComponent</text>
</g>
<!-- CardComponent&#45;&gt;MayestroModule -->
<g id="edge3" class="edge">
<title>CardComponent&#45;&gt;MayestroModule</title>
<path fill="none" stroke="#000000" d="M2160,-122.2843C2160,-143.3211 2160,-175 2160,-175 2160,-175 1332.2624,-175 1332.2624,-175"/>
<polygon fill="#000000" stroke="#000000" points="1332.2624,-171.5001 1322.2624,-175 1332.2623,-178.5001 1332.2624,-171.5001"/>
</g>
<!-- HomeComponent -->
<g id="node4" class="node">
<title>HomeComponent</title>
<polygon fill="#ffffb3" stroke="#000000" points="2087.5451,-122 1972.4549,-122 1972.4549,-86 2087.5451,-86 2087.5451,-122"/>
<text text-anchor="middle" x="2030" y="-99.8" font-family="Times,serif" font-size="14.00" fill="#000000">HomeComponent</text>
</g>
<!-- HomeComponent&#45;&gt;MayestroModule -->
<g id="edge4" class="edge">
<title>HomeComponent&#45;&gt;MayestroModule</title>
<path fill="none" stroke="#000000" d="M2030,-122.308C2030,-142.1455 2030,-171 2030,-171 2030,-171 1332.489,-171 1332.489,-171"/>
<polygon fill="#000000" stroke="#000000" points="1332.489,-167.5001 1322.489,-171 1332.489,-174.5001 1332.489,-167.5001"/>
</g>
<!-- MayestroComponent -->
<g id="node5" class="node">
<title>MayestroComponent</title>
<polygon fill="#ffffb3" stroke="#000000" points="1954.2022,-122 1819.7978,-122 1819.7978,-86 1954.2022,-86 1954.2022,-122"/>
<text text-anchor="middle" x="1887" y="-99.8" font-family="Times,serif" font-size="14.00" fill="#000000">MayestroComponent</text>
</g>
<!-- MayestroComponent&#45;&gt;MayestroModule -->
<g id="edge5" class="edge">
<title>MayestroComponent&#45;&gt;MayestroModule</title>
<path fill="none" stroke="#000000" d="M1887,-122.2222C1887,-140.8285 1887,-167 1887,-167 1887,-167 1332.4801,-167 1332.4801,-167"/>
<polygon fill="#000000" stroke="#000000" points="1332.4801,-163.5001 1322.4801,-167 1332.4801,-170.5001 1332.4801,-163.5001"/>
</g>
<!-- MiniCardViewerComponent -->
<g id="node6" class="node">
<title>MiniCardViewerComponent</title>
<polygon fill="#ffffb3" stroke="#000000" points="1801.4636,-122 1624.5364,-122 1624.5364,-86 1801.4636,-86 1801.4636,-122"/>
<text text-anchor="middle" x="1713" y="-99.8" font-family="Times,serif" font-size="14.00" fill="#000000">MiniCardViewerComponent</text>
</g>
<!-- MiniCardViewerComponent&#45;&gt;MayestroModule -->
<g id="edge6" class="edge">
<title>MiniCardViewerComponent&#45;&gt;MayestroModule</title>
<path fill="none" stroke="#000000" d="M1713,-122.0225C1713,-139.3734 1713,-163 1713,-163 1713,-163 1332.6129,-163 1332.6129,-163"/>
<polygon fill="#000000" stroke="#000000" points="1332.6129,-159.5001 1322.6129,-163 1332.6128,-166.5001 1332.6129,-159.5001"/>
</g>
<!-- PlayerComponent -->
<g id="node7" class="node">
<title>PlayerComponent</title>
<polygon fill="#ffffb3" stroke="#000000" points="1606.5954,-122 1489.4046,-122 1489.4046,-86 1606.5954,-86 1606.5954,-122"/>
<text text-anchor="middle" x="1548" y="-99.8" font-family="Times,serif" font-size="14.00" fill="#000000">PlayerComponent</text>
</g>
<!-- PlayerComponent&#45;&gt;MayestroModule -->
<g id="edge7" class="edge">
<title>PlayerComponent&#45;&gt;MayestroModule</title>
<path fill="none" stroke="#000000" d="M1548,-122.0091C1548,-138.0494 1548,-159 1548,-159 1548,-159 1332.3891,-159 1332.3891,-159"/>
<polygon fill="#000000" stroke="#000000" points="1332.3892,-155.5001 1322.3891,-159 1332.3891,-162.5001 1332.3892,-155.5001"/>
</g>
<!-- PlaylistComponent -->
<g id="node8" class="node">
<title>PlaylistComponent</title>
<polygon fill="#ffffb3" stroke="#000000" points="1471.8371,-122 1348.1629,-122 1348.1629,-86 1471.8371,-86 1471.8371,-122"/>
<text text-anchor="middle" x="1410" y="-99.8" font-family="Times,serif" font-size="14.00" fill="#000000">PlaylistComponent</text>
</g>
<!-- PlaylistComponent&#45;&gt;MayestroModule -->
<g id="edge8" class="edge">
<title>PlaylistComponent&#45;&gt;MayestroModule</title>
<path fill="none" stroke="#000000" d="M1410,-122.1243C1410,-136.7832 1410,-155 1410,-155 1410,-155 1332.4993,-155 1332.4993,-155"/>
<polygon fill="#000000" stroke="#000000" points="1332.4993,-151.5001 1322.4993,-155 1332.4993,-158.5001 1332.4993,-151.5001"/>
</g>
<!-- PlaylistsComponent -->
<g id="node9" class="node">
<title>PlaylistsComponent</title>
<polygon fill="#ffffb3" stroke="#000000" points="1330.2814,-122 1201.7186,-122 1201.7186,-86 1330.2814,-86 1330.2814,-122"/>
<text text-anchor="middle" x="1266" y="-99.8" font-family="Times,serif" font-size="14.00" fill="#000000">PlaylistsComponent</text>
</g>
<!-- PlaylistsComponent&#45;&gt;MayestroModule -->
<g id="edge9" class="edge">
<title>PlaylistsComponent&#45;&gt;MayestroModule</title>
<path fill="none" stroke="#000000" d="M1266,-122.1061C1266,-122.1061 1266,-140.991 1266,-140.991"/>
<polygon fill="#000000" stroke="#000000" points="1262.5001,-140.9909 1266,-150.991 1269.5001,-140.991 1262.5001,-140.9909"/>
</g>
<!-- SearchCardComponent -->
<g id="node10" class="node">
<title>SearchCardComponent</title>
<polygon fill="#ffffb3" stroke="#000000" points="1183.1317,-122 1036.8683,-122 1036.8683,-86 1183.1317,-86 1183.1317,-122"/>
<text text-anchor="middle" x="1110" y="-99.8" font-family="Times,serif" font-size="14.00" fill="#000000">SearchCardComponent</text>
</g>
<!-- SearchCardComponent&#45;&gt;MayestroModule -->
<g id="edge10" class="edge">
<title>SearchCardComponent&#45;&gt;MayestroModule</title>
<path fill="none" stroke="#000000" d="M1110,-122.1243C1110,-136.7832 1110,-155 1110,-155 1110,-155 1199.6804,-155 1199.6804,-155"/>
<polygon fill="#000000" stroke="#000000" points="1199.6805,-158.5001 1209.6804,-155 1199.6804,-151.5001 1199.6805,-158.5001"/>
</g>
<!-- SearchComponent -->
<g id="node11" class="node">
<title>SearchComponent</title>
<polygon fill="#ffffb3" stroke="#000000" points="1018.9201,-122 899.0799,-122 899.0799,-86 1018.9201,-86 1018.9201,-122"/>
<text text-anchor="middle" x="959" y="-99.8" font-family="Times,serif" font-size="14.00" fill="#000000">SearchComponent</text>
</g>
<!-- SearchComponent&#45;&gt;MayestroModule -->
<g id="edge11" class="edge">
<title>SearchComponent&#45;&gt;MayestroModule</title>
<path fill="none" stroke="#000000" d="M959,-122.0091C959,-138.0494 959,-159 959,-159 959,-159 1199.6915,-159 1199.6915,-159"/>
<polygon fill="#000000" stroke="#000000" points="1199.6915,-162.5001 1209.6915,-159 1199.6914,-155.5001 1199.6915,-162.5001"/>
</g>
<!-- SeeAllComponent -->
<g id="node12" class="node">
<title>SeeAllComponent</title>
<polygon fill="#ffffb3" stroke="#000000" points="881.9328,-122 762.0672,-122 762.0672,-86 881.9328,-86 881.9328,-122"/>
<text text-anchor="middle" x="822" y="-99.8" font-family="Times,serif" font-size="14.00" fill="#000000">SeeAllComponent</text>
</g>
<!-- SeeAllComponent&#45;&gt;MayestroModule -->
<g id="edge12" class="edge">
<title>SeeAllComponent&#45;&gt;MayestroModule</title>
<path fill="none" stroke="#000000" d="M822,-122.0225C822,-139.3734 822,-163 822,-163 822,-163 1199.7671,-163 1199.7671,-163"/>
<polygon fill="#000000" stroke="#000000" points="1199.7671,-166.5001 1209.7671,-163 1199.7671,-159.5001 1199.7671,-166.5001"/>
</g>
<!-- SideBarComponent -->
<g id="node13" class="node">
<title>SideBarComponent</title>
<polygon fill="#ffffb3" stroke="#000000" points="744.4327,-122 617.5673,-122 617.5673,-86 744.4327,-86 744.4327,-122"/>
<text text-anchor="middle" x="681" y="-99.8" font-family="Times,serif" font-size="14.00" fill="#000000">SideBarComponent</text>
</g>
<!-- SideBarComponent&#45;&gt;MayestroModule -->
<g id="edge13" class="edge">
<title>SideBarComponent&#45;&gt;MayestroModule</title>
<path fill="none" stroke="#000000" d="M681,-122.2222C681,-140.8285 681,-167 681,-167 681,-167 1199.6422,-167 1199.6422,-167"/>
<polygon fill="#000000" stroke="#000000" points="1199.6423,-170.5001 1209.6422,-167 1199.6422,-163.5001 1199.6423,-170.5001"/>
</g>
<!-- TrackComponent -->
<g id="node14" class="node">
<title>TrackComponent</title>
<polygon fill="#ffffb3" stroke="#000000" points="599.9748,-122 486.0252,-122 486.0252,-86 599.9748,-86 599.9748,-122"/>
<text text-anchor="middle" x="543" y="-99.8" font-family="Times,serif" font-size="14.00" fill="#000000">TrackComponent</text>
</g>
<!-- TrackComponent&#45;&gt;MayestroModule -->
<g id="edge14" class="edge">
<title>TrackComponent&#45;&gt;MayestroModule</title>
<path fill="none" stroke="#000000" d="M543,-122.308C543,-142.1455 543,-171 543,-171 543,-171 1199.5685,-171 1199.5685,-171"/>
<polygon fill="#000000" stroke="#000000" points="1199.5686,-174.5001 1209.5685,-171 1199.5685,-167.5001 1199.5686,-174.5001"/>
</g>
<!-- UserProfileComponent -->
<g id="node15" class="node">
<title>UserProfileComponent</title>
<polygon fill="#ffffb3" stroke="#000000" points="467.8585,-122 322.1415,-122 322.1415,-86 467.8585,-86 467.8585,-122"/>
<text text-anchor="middle" x="395" y="-99.8" font-family="Times,serif" font-size="14.00" fill="#000000">UserProfileComponent</text>
</g>
<!-- UserProfileComponent&#45;&gt;MayestroModule -->
<g id="edge15" class="edge">
<title>UserProfileComponent&#45;&gt;MayestroModule</title>
<path fill="none" stroke="#000000" d="M395,-122.2843C395,-143.3211 395,-175 395,-175 395,-175 1199.5224,-175 1199.5224,-175"/>
<polygon fill="#000000" stroke="#000000" points="1199.5224,-178.5001 1209.5224,-175 1199.5223,-171.5001 1199.5224,-178.5001"/>
</g>
<!-- MayestroRoutingModule -->
<g id="node17" class="node">
<title>MayestroRoutingModule</title>
<polygon fill="#8dd3c7" stroke="#000000" points="297.5379,-122 294.5379,-126 273.5379,-126 270.5379,-122 140.4621,-122 140.4621,-86 297.5379,-86 297.5379,-122"/>
<text text-anchor="middle" x="219" y="-99.8" font-family="Times,serif" font-size="14.00" fill="#000000">MayestroRoutingModule</text>
</g>
<!-- MayestroRoutingModule&#45;&gt;MayestroModule -->
<g id="edge16" class="edge">
<title>MayestroRoutingModule&#45;&gt;MayestroModule</title>
<path fill="none" stroke="#000000" d="M219,-122.1554C219,-144.3519 219,-179 219,-179 219,-179 1199.7087,-179 1199.7087,-179"/>
<polygon fill="#000000" stroke="#000000" points="1199.7088,-182.5001 1209.7087,-179 1199.7087,-175.5001 1199.7088,-182.5001"/>
</g>
<!-- SharedModule -->
<g id="node18" class="node">
<title>SharedModule</title>
<polygon fill="#8dd3c7" stroke="#000000" points="122.4231,-122 119.4231,-126 98.4231,-126 95.4231,-122 23.5769,-122 23.5769,-86 122.4231,-86 122.4231,-122"/>
<text text-anchor="middle" x="73" y="-99.8" font-family="Times,serif" font-size="14.00" fill="#000000">SharedModule</text>
</g>
<!-- SharedModule&#45;&gt;MayestroModule -->
<g id="edge17" class="edge">
<title>SharedModule&#45;&gt;MayestroModule</title>
<path fill="none" stroke="#000000" d="M73,-122.3228C73,-145.6602 73,-183 73,-183 73,-183 1199.6611,-183 1199.6611,-183"/>
<polygon fill="#000000" stroke="#000000" points="1199.6612,-186.5001 1209.6611,-183 1199.6611,-179.5001 1199.6612,-186.5001"/>
</g>
</g>
</svg>
