<?xml version="1.0" encoding="UTF-8" standalone="no"?>
<!DOCTYPE svg PUBLIC "-//W3C//DTD SVG 1.1//EN"
 "http://www.w3.org/Graphics/SVG/1.1/DTD/svg11.dtd">
<!-- Generated by graphviz version 2.40.1 (20161225.0304)
 -->
<!-- Title: dependencies Pages: 1 -->
<svg width="3549pt" height="211pt"
 viewBox="0.00 0.00 3549.00 211.00" xmlns="http://www.w3.org/2000/svg" xmlns:xlink="http://www.w3.org/1999/xlink">
<g id="graph0" class="graph" transform="scale(1 1) rotate(0) translate(4 207)">
<title>dependencies</title>
<polygon fill="#ffffff" stroke="transparent" points="-4,4 -4,-207 3545,-207 3545,4 -4,4"/>
<text text-anchor="start" x="1749.5091" y="-42.4" font-family="sans-serif" font-weight="bold" font-size="14.00" fill="#000000">Legend</text>
<polygon fill="#ffffb3" stroke="transparent" points="1536.5,-10 1536.5,-30 1556.5,-30 1556.5,-10 1536.5,-10"/>
<text text-anchor="start" x="1560.129" y="-15.4" font-family="sans-serif" font-size="14.00" fill="#000000"> &#160;Declarations</text>
<polygon fill="#8dd3c7" stroke="transparent" points="1649.5,-10 1649.5,-30 1669.5,-30 1669.5,-10 1649.5,-10"/>
<text text-anchor="start" x="1673.2251" y="-15.4" font-family="sans-serif" font-size="14.00" fill="#000000"> &#160;Module</text>
<polygon fill="#80b1d3" stroke="transparent" points="1735.5,-10 1735.5,-30 1755.5,-30 1755.5,-10 1735.5,-10"/>
<text text-anchor="start" x="1759.2812" y="-15.4" font-family="sans-serif" font-size="14.00" fill="#000000"> &#160;Bootstrap</text>
<polygon fill="#fdb462" stroke="transparent" points="1832.5,-10 1832.5,-30 1852.5,-30 1852.5,-10 1832.5,-10"/>
<text text-anchor="start" x="1856.1732" y="-15.4" font-family="sans-serif" font-size="14.00" fill="#000000"> &#160;Providers</text>
<polygon fill="#fb8072" stroke="transparent" points="1928.5,-10 1928.5,-30 1948.5,-30 1948.5,-10 1928.5,-10"/>
<text text-anchor="start" x="1952.2258" y="-15.4" font-family="sans-serif" font-size="14.00" fill="#000000"> &#160;Exports</text>
<g id="clust1" class="cluster">
<title>cluster_MayestroModule</title>
<polygon fill="none" stroke="#000000" stroke-dasharray="1,5" points="8,-70 8,-195 3533,-195 3533,-70 8,-70"/>
</g>
<g id="clust2" class="cluster">
<title>cluster_MayestroModule_declarations</title>
<polygon fill="none" stroke="#000000" points="490,-78 490,-130 3525,-130 3525,-78 490,-78"/>
</g>
<g id="clust23" class="cluster">
<title>cluster_MayestroModule_imports</title>
<polygon fill="none" stroke="#000000" points="192,-78 192,-130 482,-130 482,-78 192,-78"/>
</g>
<g id="clust26" class="cluster">
<title>cluster_MayestroModule_providers</title>
<polygon fill="none" stroke="#000000" points="16,-78 16,-130 184,-130 184,-78 16,-78"/>
</g>
<!-- AlbumsComponent -->
<g id="node1" class="node">
<title>AlbumsComponent</title>
<polygon fill="#ffffb3" stroke="#000000" points="3516.6652,-122 3391.3348,-122 3391.3348,-86 3516.6652,-86 3516.6652,-122"/>
<text text-anchor="middle" x="3454" y="-99.8" font-family="Times,serif" font-size="14.00" fill="#000000">AlbumsComponent</text>
</g>
<!-- MayestroModule -->
<g id="node21" class="node">
<title>MayestroModule</title>
<polygon fill="#8dd3c7" stroke="#000000" points="1804.4202,-187 1801.4202,-191 1780.4202,-191 1777.4202,-187 1691.5798,-187 1691.5798,-151 1804.4202,-151 1804.4202,-187"/>
<text text-anchor="middle" x="1748" y="-164.8" font-family="Times,serif" font-size="14.00" fill="#000000">MayestroModule</text>
</g>
<!-- AlbumsComponent&#45;&gt;MayestroModule -->
<g id="edge1" class="edge">
<title>AlbumsComponent&#45;&gt;MayestroModule</title>
<path fill="none" stroke="#000000" d="M3454,-122.1532C3454,-145.7566 3454,-184 3454,-184 3454,-184 1814.2758,-184 1814.2758,-184"/>
<polygon fill="#000000" stroke="#000000" points="1814.2758,-180.5001 1804.2758,-184 1814.2757,-187.5001 1814.2758,-180.5001"/>
</g>
<!-- ArtistsComponent -->
<g id="node2" class="node">
<title>ArtistsComponent</title>
<polygon fill="#ffffb3" stroke="#000000" points="3373.1611,-122 3254.8389,-122 3254.8389,-86 3373.1611,-86 3373.1611,-122"/>
<text text-anchor="middle" x="3314" y="-99.8" font-family="Times,serif" font-size="14.00" fill="#000000">ArtistsComponent</text>
</g>
<!-- ArtistsComponent&#45;&gt;MayestroModule -->
<g id="edge2" class="edge">
<title>ArtistsComponent&#45;&gt;MayestroModule</title>
<path fill="none" stroke="#000000" d="M3314,-122.0908C3314,-145.1328 3314,-182 3314,-182 3314,-182 1814.6599,-182 1814.6599,-182"/>
<polygon fill="#000000" stroke="#000000" points="1814.66,-178.5001 1804.6599,-182 1814.6599,-185.5001 1814.66,-178.5001"/>
</g>
<!-- DialogComponent -->
<g id="node3" class="node">
<title>DialogComponent</title>
<polygon fill="#ffffb3" stroke="#000000" points="3236.9356,-122 3117.0644,-122 3117.0644,-86 3236.9356,-86 3236.9356,-122"/>
<text text-anchor="middle" x="3177" y="-99.8" font-family="Times,serif" font-size="14.00" fill="#000000">DialogComponent</text>
</g>
<!-- DialogComponent&#45;&gt;MayestroModule -->
<g id="edge3" class="edge">
<title>DialogComponent&#45;&gt;MayestroModule</title>
<path fill="none" stroke="#000000" d="M3177,-122.2921C3177,-144.2057 3177,-178 3177,-178 3177,-178 1814.4586,-178 1814.4586,-178"/>
<polygon fill="#000000" stroke="#000000" points="1814.4587,-174.5001 1804.4586,-178 1814.4586,-181.5001 1814.4587,-174.5001"/>
</g>
<!-- DownloadComponent -->
<g id="node4" class="node">
<title>DownloadComponent</title>
<polygon fill="#ffffb3" stroke="#000000" points="3098.6512,-122 2959.3488,-122 2959.3488,-86 3098.6512,-86 3098.6512,-122"/>
<text text-anchor="middle" x="3029" y="-99.8" font-family="Times,serif" font-size="14.00" fill="#000000">DownloadComponent</text>
</g>
<!-- DownloadComponent&#45;&gt;MayestroModule -->
<g id="edge4" class="edge">
<title>DownloadComponent&#45;&gt;MayestroModule</title>
<path fill="none" stroke="#000000" d="M3029,-122.2843C3029,-143.3211 3029,-175 3029,-175 3029,-175 1814.2806,-175 1814.2806,-175"/>
<polygon fill="#000000" stroke="#000000" points="1814.2806,-171.5001 1804.2806,-175 1814.2805,-178.5001 1814.2806,-171.5001"/>
</g>
<!-- LikedsongsComponent -->
<g id="node5" class="node">
<title>LikedsongsComponent</title>
<polygon fill="#ffffb3" stroke="#000000" points="2940.8794,-122 2795.1206,-122 2795.1206,-86 2940.8794,-86 2940.8794,-122"/>
<text text-anchor="middle" x="2868" y="-99.8" font-family="Times,serif" font-size="14.00" fill="#000000">LikedsongsComponent</text>
</g>
<!-- LikedsongsComponent&#45;&gt;MayestroModule -->
<g id="edge5" class="edge">
<title>LikedsongsComponent&#45;&gt;MayestroModule</title>
<path fill="none" stroke="#000000" d="M2868,-122.2228C2868,-142.3652 2868,-172 2868,-172 2868,-172 1814.3085,-172 1814.3085,-172"/>
<polygon fill="#000000" stroke="#000000" points="1814.3086,-168.5001 1804.3085,-172 1814.3085,-175.5001 1814.3086,-168.5001"/>
</g>
<!-- MayestroComponent -->
<g id="node6" class="node">
<title>MayestroComponent</title>
<polygon fill="#ffffb3" stroke="#000000" points="2777.2022,-122 2642.7978,-122 2642.7978,-86 2777.2022,-86 2777.2022,-122"/>
<text text-anchor="middle" x="2710" y="-99.8" font-family="Times,serif" font-size="14.00" fill="#000000">MayestroComponent</text>
</g>
<!-- MayestroComponent&#45;&gt;MayestroModule -->
<g id="edge6" class="edge">
<title>MayestroComponent&#45;&gt;MayestroModule</title>
<path fill="none" stroke="#000000" d="M2710,-122.1061C2710,-141.3391 2710,-169 2710,-169 2710,-169 1814.2322,-169 1814.2322,-169"/>
<polygon fill="#000000" stroke="#000000" points="1814.2322,-165.5001 1804.2322,-169 1814.2321,-172.5001 1814.2322,-165.5001"/>
</g>
<!-- MiniCardViewerComponent -->
<g id="node7" class="node">
<title>MiniCardViewerComponent</title>
<polygon fill="#ffffb3" stroke="#000000" points="2624.4636,-122 2447.5364,-122 2447.5364,-86 2624.4636,-86 2624.4636,-122"/>
<text text-anchor="middle" x="2536" y="-99.8" font-family="Times,serif" font-size="14.00" fill="#000000">MiniCardViewerComponent</text>
</g>
<!-- MiniCardViewerComponent&#45;&gt;MayestroModule -->
<g id="edge7" class="edge">
<title>MiniCardViewerComponent&#45;&gt;MayestroModule</title>
<path fill="none" stroke="#000000" d="M2536,-122.2222C2536,-140.8285 2536,-167 2536,-167 2536,-167 1814.3548,-167 1814.3548,-167"/>
<polygon fill="#000000" stroke="#000000" points="1814.3548,-163.5001 1804.3548,-167 1814.3547,-170.5001 1814.3548,-163.5001"/>
</g>
<!-- PlayerComponent -->
<g id="node8" class="node">
<title>PlayerComponent</title>
<polygon fill="#ffffb3" stroke="#000000" points="2429.5954,-122 2312.4046,-122 2312.4046,-86 2429.5954,-86 2429.5954,-122"/>
<text text-anchor="middle" x="2371" y="-99.8" font-family="Times,serif" font-size="14.00" fill="#000000">PlayerComponent</text>
</g>
<!-- PlayerComponent&#45;&gt;MayestroModule -->
<g id="edge8" class="edge">
<title>PlayerComponent&#45;&gt;MayestroModule</title>
<path fill="none" stroke="#000000" d="M2371,-122.0225C2371,-139.3734 2371,-163 2371,-163 2371,-163 1814.3859,-163 1814.3859,-163"/>
<polygon fill="#000000" stroke="#000000" points="1814.3859,-159.5001 1804.3859,-163 1814.3859,-166.5001 1814.3859,-159.5001"/>
</g>
<!-- PlayingQueueComponent -->
<g id="node9" class="node">
<title>PlayingQueueComponent</title>
<polygon fill="#ffffb3" stroke="#000000" points="2294.147,-122 2133.853,-122 2133.853,-86 2294.147,-86 2294.147,-122"/>
<text text-anchor="middle" x="2214" y="-99.8" font-family="Times,serif" font-size="14.00" fill="#000000">PlayingQueueComponent</text>
</g>
<!-- PlayingQueueComponent&#45;&gt;MayestroModule -->
<g id="edge9" class="edge">
<title>PlayingQueueComponent&#45;&gt;MayestroModule</title>
<path fill="none" stroke="#000000" d="M2214,-122.027C2214,-138.3976 2214,-160 2214,-160 2214,-160 1814.2105,-160 1814.2105,-160"/>
<polygon fill="#000000" stroke="#000000" points="1814.2105,-156.5001 1804.2105,-160 1814.2105,-163.5001 1814.2105,-156.5001"/>
</g>
<!-- PlaylistComponent -->
<g id="node10" class="node">
<title>PlaylistComponent</title>
<polygon fill="#ffffb3" stroke="#000000" points="2115.8371,-122 1992.1629,-122 1992.1629,-86 2115.8371,-86 2115.8371,-122"/>
<text text-anchor="middle" x="2054" y="-99.8" font-family="Times,serif" font-size="14.00" fill="#000000">PlaylistComponent</text>
</g>
<!-- PlaylistComponent&#45;&gt;MayestroModule -->
<g id="edge10" class="edge">
<title>PlaylistComponent&#45;&gt;MayestroModule</title>
<path fill="none" stroke="#000000" d="M2054,-122.2396C2054,-137.5706 2054,-157 2054,-157 2054,-157 1814.4817,-157 1814.4817,-157"/>
<polygon fill="#000000" stroke="#000000" points="1814.4818,-153.5001 1804.4817,-157 1814.4817,-160.5001 1814.4818,-153.5001"/>
</g>
<!-- PlaylistsComponent -->
<g id="node11" class="node">
<title>PlaylistsComponent</title>
<polygon fill="#ffffb3" stroke="#000000" points="1974.2814,-122 1845.7186,-122 1845.7186,-86 1974.2814,-86 1974.2814,-122"/>
<text text-anchor="middle" x="1910" y="-99.8" font-family="Times,serif" font-size="14.00" fill="#000000">PlaylistsComponent</text>
</g>
<!-- PlaylistsComponent&#45;&gt;MayestroModule -->
<g id="edge11" class="edge">
<title>PlaylistsComponent&#45;&gt;MayestroModule</title>
<path fill="none" stroke="#000000" d="M1910,-122.0511C1910,-136.373 1910,-154 1910,-154 1910,-154 1814.6597,-154 1814.6597,-154"/>
<polygon fill="#000000" stroke="#000000" points="1814.6598,-150.5001 1804.6597,-154 1814.6597,-157.5001 1814.6598,-150.5001"/>
</g>
<!-- RecentSearchComponent -->
<g id="node12" class="node">
<title>RecentSearchComponent</title>
<polygon fill="#ffffb3" stroke="#000000" points="1827.2907,-122 1668.7093,-122 1668.7093,-86 1827.2907,-86 1827.2907,-122"/>
<text text-anchor="middle" x="1748" y="-99.8" font-family="Times,serif" font-size="14.00" fill="#000000">RecentSearchComponent</text>
</g>
<!-- RecentSearchComponent&#45;&gt;MayestroModule -->
<g id="edge12" class="edge">
<title>RecentSearchComponent&#45;&gt;MayestroModule</title>
<path fill="none" stroke="#000000" d="M1748,-122.1061C1748,-122.1061 1748,-140.991 1748,-140.991"/>
<polygon fill="#000000" stroke="#000000" points="1744.5001,-140.9909 1748,-150.991 1751.5001,-140.991 1744.5001,-140.9909"/>
</g>
<!-- SearchCardComponent -->
<g id="node13" class="node">
<title>SearchCardComponent</title>
<polygon fill="#ffffb3" stroke="#000000" points="1651.1317,-122 1504.8683,-122 1504.8683,-86 1651.1317,-86 1651.1317,-122"/>
<text text-anchor="middle" x="1578" y="-99.8" font-family="Times,serif" font-size="14.00" fill="#000000">SearchCardComponent</text>
</g>
<!-- SearchCardComponent&#45;&gt;MayestroModule -->
<g id="edge13" class="edge">
<title>SearchCardComponent&#45;&gt;MayestroModule</title>
<path fill="none" stroke="#000000" d="M1578,-122.0511C1578,-136.373 1578,-154 1578,-154 1578,-154 1681.3925,-154 1681.3925,-154"/>
<polygon fill="#000000" stroke="#000000" points="1681.3925,-157.5001 1691.3925,-154 1681.3924,-150.5001 1681.3925,-157.5001"/>
</g>
<!-- SearchComponent -->
<g id="node14" class="node">
<title>SearchComponent</title>
<polygon fill="#ffffb3" stroke="#000000" points="1486.9201,-122 1367.0799,-122 1367.0799,-86 1486.9201,-86 1486.9201,-122"/>
<text text-anchor="middle" x="1427" y="-99.8" font-family="Times,serif" font-size="14.00" fill="#000000">SearchComponent</text>
</g>
<!-- SearchComponent&#45;&gt;MayestroModule -->
<g id="edge14" class="edge">
<title>SearchComponent&#45;&gt;MayestroModule</title>
<path fill="none" stroke="#000000" d="M1427,-122.2396C1427,-137.5706 1427,-157 1427,-157 1427,-157 1681.7187,-157 1681.7187,-157"/>
<polygon fill="#000000" stroke="#000000" points="1681.7188,-160.5001 1691.7187,-157 1681.7187,-153.5001 1681.7188,-160.5001"/>
</g>
<!-- SeeAllComponent -->
<g id="node15" class="node">
<title>SeeAllComponent</title>
<polygon fill="#ffffb3" stroke="#000000" points="1349.9328,-122 1230.0672,-122 1230.0672,-86 1349.9328,-86 1349.9328,-122"/>
<text text-anchor="middle" x="1290" y="-99.8" font-family="Times,serif" font-size="14.00" fill="#000000">SeeAllComponent</text>
</g>
<!-- SeeAllComponent&#45;&gt;MayestroModule -->
<g id="edge15" class="edge">
<title>SeeAllComponent&#45;&gt;MayestroModule</title>
<path fill="none" stroke="#000000" d="M1290,-122.027C1290,-138.3976 1290,-160 1290,-160 1290,-160 1681.3809,-160 1681.3809,-160"/>
<polygon fill="#000000" stroke="#000000" points="1681.3809,-163.5001 1691.3809,-160 1681.3808,-156.5001 1681.3809,-163.5001"/>
</g>
<!-- SideBarComponent -->
<g id="node16" class="node">
<title>SideBarComponent</title>
<polygon fill="#ffffb3" stroke="#000000" points="1212.4327,-122 1085.5673,-122 1085.5673,-86 1212.4327,-86 1212.4327,-122"/>
<text text-anchor="middle" x="1149" y="-99.8" font-family="Times,serif" font-size="14.00" fill="#000000">SideBarComponent</text>
</g>
<!-- SideBarComponent&#45;&gt;MayestroModule -->
<g id="edge16" class="edge">
<title>SideBarComponent&#45;&gt;MayestroModule</title>
<path fill="none" stroke="#000000" d="M1149,-122.0225C1149,-139.3734 1149,-163 1149,-163 1149,-163 1681.6475,-163 1681.6475,-163"/>
<polygon fill="#000000" stroke="#000000" points="1681.6476,-166.5001 1691.6475,-163 1681.6475,-159.5001 1681.6476,-166.5001"/>
</g>
<!-- SongsComponent -->
<g id="node17" class="node">
<title>SongsComponent</title>
<polygon fill="#ffffb3" stroke="#000000" points="1067.5604,-122 952.4396,-122 952.4396,-86 1067.5604,-86 1067.5604,-122"/>
<text text-anchor="middle" x="1010" y="-99.8" font-family="Times,serif" font-size="14.00" fill="#000000">SongsComponent</text>
</g>
<!-- SongsComponent&#45;&gt;MayestroModule -->
<g id="edge17" class="edge">
<title>SongsComponent&#45;&gt;MayestroModule</title>
<path fill="none" stroke="#000000" d="M1010,-122.2222C1010,-140.8285 1010,-167 1010,-167 1010,-167 1681.6204,-167 1681.6204,-167"/>
<polygon fill="#000000" stroke="#000000" points="1681.6204,-170.5001 1691.6204,-167 1681.6204,-163.5001 1681.6204,-170.5001"/>
</g>
<!-- TopResultComponent -->
<g id="node18" class="node">
<title>TopResultComponent</title>
<polygon fill="#ffffb3" stroke="#000000" points="933.6624,-122 794.3376,-122 794.3376,-86 933.6624,-86 933.6624,-122"/>
<text text-anchor="middle" x="864" y="-99.8" font-family="Times,serif" font-size="14.00" fill="#000000">TopResultComponent</text>
</g>
<!-- TopResultComponent&#45;&gt;MayestroModule -->
<g id="edge18" class="edge">
<title>TopResultComponent&#45;&gt;MayestroModule</title>
<path fill="none" stroke="#000000" d="M864,-122.1061C864,-141.3391 864,-169 864,-169 864,-169 1681.6946,-169 1681.6946,-169"/>
<polygon fill="#000000" stroke="#000000" points="1681.6946,-172.5001 1691.6946,-169 1681.6945,-165.5001 1681.6946,-172.5001"/>
</g>
<!-- TrackComponent -->
<g id="node19" class="node">
<title>TrackComponent</title>
<polygon fill="#ffffb3" stroke="#000000" points="775.9748,-122 662.0252,-122 662.0252,-86 775.9748,-86 775.9748,-122"/>
<text text-anchor="middle" x="719" y="-99.8" font-family="Times,serif" font-size="14.00" fill="#000000">TrackComponent</text>
</g>
<!-- TrackComponent&#45;&gt;MayestroModule -->
<g id="edge19" class="edge">
<title>TrackComponent&#45;&gt;MayestroModule</title>
<path fill="none" stroke="#000000" d="M719,-122.2228C719,-142.3652 719,-172 719,-172 719,-172 1681.5788,-172 1681.5788,-172"/>
<polygon fill="#000000" stroke="#000000" points="1681.5788,-175.5001 1691.5788,-172 1681.5787,-168.5001 1681.5788,-175.5001"/>
</g>
<!-- UserProfileComponent -->
<g id="node20" class="node">
<title>UserProfileComponent</title>
<polygon fill="#ffffb3" stroke="#000000" points="643.8585,-122 498.1415,-122 498.1415,-86 643.8585,-86 643.8585,-122"/>
<text text-anchor="middle" x="571" y="-99.8" font-family="Times,serif" font-size="14.00" fill="#000000">UserProfileComponent</text>
</g>
<!-- UserProfileComponent&#45;&gt;MayestroModule -->
<g id="edge20" class="edge">
<title>UserProfileComponent&#45;&gt;MayestroModule</title>
<path fill="none" stroke="#000000" d="M571,-122.2843C571,-143.3211 571,-175 571,-175 571,-175 1681.6274,-175 1681.6274,-175"/>
<polygon fill="#000000" stroke="#000000" points="1681.6274,-178.5001 1691.6274,-175 1681.6273,-171.5001 1681.6274,-178.5001"/>
</g>
<!-- MayestroRoutingModule -->
<g id="node22" class="node">
<title>MayestroRoutingModule</title>
<polygon fill="#8dd3c7" stroke="#000000" points="473.5379,-122 470.5379,-126 449.5379,-126 446.5379,-122 316.4621,-122 316.4621,-86 473.5379,-86 473.5379,-122"/>
<text text-anchor="middle" x="395" y="-99.8" font-family="Times,serif" font-size="14.00" fill="#000000">MayestroRoutingModule</text>
</g>
<!-- MayestroRoutingModule&#45;&gt;MayestroModule -->
<g id="edge21" class="edge">
<title>MayestroRoutingModule&#45;&gt;MayestroModule</title>
<path fill="none" stroke="#000000" d="M395,-122.2921C395,-144.2057 395,-178 395,-178 395,-178 1681.5858,-178 1681.5858,-178"/>
<polygon fill="#000000" stroke="#000000" points="1681.5859,-181.5001 1691.5858,-178 1681.5858,-174.5001 1681.5859,-181.5001"/>
</g>
<!-- SharedModule -->
<g id="node23" class="node">
<title>SharedModule</title>
<polygon fill="#8dd3c7" stroke="#000000" points="298.4231,-122 295.4231,-126 274.4231,-126 271.4231,-122 199.5769,-122 199.5769,-86 298.4231,-86 298.4231,-122"/>
<text text-anchor="middle" x="249" y="-99.8" font-family="Times,serif" font-size="14.00" fill="#000000">SharedModule</text>
</g>
<!-- SharedModule&#45;&gt;MayestroModule -->
<g id="edge22" class="edge">
<title>SharedModule&#45;&gt;MayestroModule</title>
<path fill="none" stroke="#000000" d="M249,-122.0908C249,-145.1328 249,-182 249,-182 249,-182 1681.5214,-182 1681.5214,-182"/>
<polygon fill="#000000" stroke="#000000" points="1681.5214,-185.5001 1691.5214,-182 1681.5213,-178.5001 1681.5214,-185.5001"/>
</g>
<!-- MayestroService -->
<g id="node24" class="node">
<title>MayestroService</title>
<ellipse fill="#fdb462" stroke="#000000" cx="100" cy="-104" rx="76.4208" ry="18"/>
<text text-anchor="middle" x="100" y="-99.8" font-family="Times,serif" font-size="14.00" fill="#000000">MayestroService</text>
</g>
<!-- MayestroService&#45;&gt;MayestroModule -->
<g id="edge23" class="edge">
<title>MayestroService&#45;&gt;MayestroModule</title>
<path fill="none" stroke="#000000" d="M100,-122.1532C100,-145.7566 100,-184 100,-184 100,-184 1681.7489,-184 1681.7489,-184"/>
<polygon fill="#000000" stroke="#000000" points="1681.7489,-187.5001 1691.7489,-184 1681.7488,-180.5001 1681.7489,-187.5001"/>
</g>
</g>
</svg>
