<?xml version="1.0" encoding="UTF-8" standalone="no"?>
<!DOCTYPE svg PUBLIC "-//W3C//DTD SVG 1.1//EN"
 "http://www.w3.org/Graphics/SVG/1.1/DTD/svg11.dtd">
<!-- Generated by graphviz version 2.40.1 (20161225.0304)
 -->
<!-- Title: dependencies Pages: 1 -->
<svg width="684pt" height="211pt"
 viewBox="0.00 0.00 684.00 211.00" xmlns="http://www.w3.org/2000/svg" xmlns:xlink="http://www.w3.org/1999/xlink">
<g id="graph0" class="graph" transform="scale(1 1) rotate(0) translate(4 207)">
<title>dependencies</title>
<polygon fill="#ffffff" stroke="transparent" points="-4,4 -4,-207 680,-207 680,4 -4,4"/>
<text text-anchor="start" x="317.0091" y="-42.4" font-family="sans-serif" font-weight="bold" font-size="14.00" fill="#000000">Legend</text>
<polygon fill="#ffffb3" stroke="transparent" points="104,-10 104,-30 124,-30 124,-10 104,-10"/>
<text text-anchor="start" x="127.629" y="-15.4" font-family="sans-serif" font-size="14.00" fill="#000000"> &#160;Declarations</text>
<polygon fill="#8dd3c7" stroke="transparent" points="217,-10 217,-30 237,-30 237,-10 217,-10"/>
<text text-anchor="start" x="240.7251" y="-15.4" font-family="sans-serif" font-size="14.00" fill="#000000"> &#160;Module</text>
<polygon fill="#80b1d3" stroke="transparent" points="303,-10 303,-30 323,-30 323,-10 303,-10"/>
<text text-anchor="start" x="326.7812" y="-15.4" font-family="sans-serif" font-size="14.00" fill="#000000"> &#160;Bootstrap</text>
<polygon fill="#fdb462" stroke="transparent" points="400,-10 400,-30 420,-30 420,-10 400,-10"/>
<text text-anchor="start" x="423.6732" y="-15.4" font-family="sans-serif" font-size="14.00" fill="#000000"> &#160;Providers</text>
<polygon fill="#fb8072" stroke="transparent" points="496,-10 496,-30 516,-30 516,-10 496,-10"/>
<text text-anchor="start" x="519.7258" y="-15.4" font-family="sans-serif" font-size="14.00" fill="#000000"> &#160;Exports</text>
<g id="clust1" class="cluster">
<title>cluster_OpenMayestroModule</title>
<polygon fill="none" stroke="#000000" stroke-dasharray="1,5" points="8,-70 8,-195 668,-195 668,-70 8,-70"/>
</g>
<g id="clust2" class="cluster">
<title>cluster_OpenMayestroModule_declarations</title>
<polygon fill="none" stroke="#000000" points="344,-78 344,-130 660,-130 660,-78 344,-78"/>
</g>
<g id="clust5" class="cluster">
<title>cluster_OpenMayestroModule_imports</title>
<polygon fill="none" stroke="#000000" points="16,-78 16,-130 336,-130 336,-78 16,-78"/>
</g>
<!-- FooterComponent -->
<g id="node1" class="node">
<title>FooterComponent</title>
<polygon fill="#ffffb3" stroke="#000000" points="651.8809,-122 534.1191,-122 534.1191,-86 651.8809,-86 651.8809,-122"/>
<text text-anchor="middle" x="593" y="-99.8" font-family="Times,serif" font-size="14.00" fill="#000000">FooterComponent</text>
</g>
<!-- OpenMayestroModule -->
<g id="node3" class="node">
<title>OpenMayestroModule</title>
<polygon fill="#8dd3c7" stroke="#000000" points="405.2408,-187 402.2408,-191 381.2408,-191 378.2408,-187 262.7592,-187 262.7592,-151 405.2408,-151 405.2408,-187"/>
<text text-anchor="middle" x="334" y="-164.8" font-family="Times,serif" font-size="14.00" fill="#000000">OpenMayestroModule</text>
</g>
<!-- FooterComponent&#45;&gt;OpenMayestroModule -->
<g id="edge1" class="edge">
<title>FooterComponent&#45;&gt;OpenMayestroModule</title>
<path fill="none" stroke="#000000" d="M593,-122.1061C593,-141.3391 593,-169 593,-169 593,-169 415.4585,-169 415.4585,-169"/>
<polygon fill="#000000" stroke="#000000" points="415.4585,-165.5001 405.4585,-169 415.4585,-172.5001 415.4585,-165.5001"/>
</g>
<!-- OpenMayestroComponent -->
<g id="node2" class="node">
<title>OpenMayestroComponent</title>
<polygon fill="#ffffb3" stroke="#000000" points="516.0239,-122 351.9761,-122 351.9761,-86 516.0239,-86 516.0239,-122"/>
<text text-anchor="middle" x="434" y="-99.8" font-family="Times,serif" font-size="14.00" fill="#000000">OpenMayestroComponent</text>
</g>
<!-- OpenMayestroComponent&#45;&gt;OpenMayestroModule -->
<g id="edge2" class="edge">
<title>OpenMayestroComponent&#45;&gt;OpenMayestroModule</title>
<path fill="none" stroke="#000000" d="M378.5544,-122.1061C378.5544,-122.1061 378.5544,-140.991 378.5544,-140.991"/>
<polygon fill="#000000" stroke="#000000" points="375.0544,-140.9909 378.5544,-150.991 382.0544,-140.991 375.0544,-140.9909"/>
</g>
<!-- OpenMayestroRoutingModule -->
<g id="node4" class="node">
<title>OpenMayestroRoutingModule</title>
<polygon fill="#8dd3c7" stroke="#000000" points="327.8585,-122 324.8585,-126 303.8585,-126 300.8585,-122 140.1415,-122 140.1415,-86 327.8585,-86 327.8585,-122"/>
<text text-anchor="middle" x="234" y="-99.8" font-family="Times,serif" font-size="14.00" fill="#000000">OpenMayestroRoutingModule</text>
</g>
<!-- OpenMayestroRoutingModule&#45;&gt;OpenMayestroModule -->
<g id="edge3" class="edge">
<title>OpenMayestroRoutingModule&#45;&gt;OpenMayestroModule</title>
<path fill="none" stroke="#000000" d="M295.2795,-122.1061C295.2795,-122.1061 295.2795,-140.991 295.2795,-140.991"/>
<polygon fill="#000000" stroke="#000000" points="291.7795,-140.9909 295.2795,-150.991 298.7795,-140.991 291.7795,-140.9909"/>
</g>
<!-- SharedModule -->
<g id="node5" class="node">
<title>SharedModule</title>
<polygon fill="#8dd3c7" stroke="#000000" points="122.4231,-122 119.4231,-126 98.4231,-126 95.4231,-122 23.5769,-122 23.5769,-86 122.4231,-86 122.4231,-122"/>
<text text-anchor="middle" x="73" y="-99.8" font-family="Times,serif" font-size="14.00" fill="#000000">SharedModule</text>
</g>
<!-- SharedModule&#45;&gt;OpenMayestroModule -->
<g id="edge4" class="edge">
<title>SharedModule&#45;&gt;OpenMayestroModule</title>
<path fill="none" stroke="#000000" d="M73,-122.1061C73,-141.3391 73,-169 73,-169 73,-169 252.6806,-169 252.6806,-169"/>
<polygon fill="#000000" stroke="#000000" points="252.6806,-172.5001 262.6806,-169 252.6806,-165.5001 252.6806,-172.5001"/>
</g>
</g>
</svg>
