<?xml version="1.0" encoding="UTF-8" standalone="no"?>
<!DOCTYPE svg PUBLIC "-//W3C//DTD SVG 1.1//EN"
 "http://www.w3.org/Graphics/SVG/1.1/DTD/svg11.dtd">
<!-- Generated by graphviz version 2.40.1 (20161225.0304)
 -->
<!-- Title: dependencies Pages: 1 -->
<svg width="1746pt" height="211pt"
 viewBox="0.00 0.00 1746.00 211.00" xmlns="http://www.w3.org/2000/svg" xmlns:xlink="http://www.w3.org/1999/xlink">
<g id="graph0" class="graph" transform="scale(1 1) rotate(0) translate(4 207)">
<title>dependencies</title>
<polygon fill="#ffffff" stroke="transparent" points="-4,4 -4,-207 1742,-207 1742,4 -4,4"/>
<text text-anchor="start" x="848.0091" y="-42.4" font-family="sans-serif" font-weight="bold" font-size="14.00" fill="#000000">Legend</text>
<polygon fill="#ffffb3" stroke="transparent" points="635,-10 635,-30 655,-30 655,-10 635,-10"/>
<text text-anchor="start" x="658.629" y="-15.4" font-family="sans-serif" font-size="14.00" fill="#000000"> &#160;Declarations</text>
<polygon fill="#8dd3c7" stroke="transparent" points="748,-10 748,-30 768,-30 768,-10 748,-10"/>
<text text-anchor="start" x="771.7251" y="-15.4" font-family="sans-serif" font-size="14.00" fill="#000000"> &#160;Module</text>
<polygon fill="#80b1d3" stroke="transparent" points="834,-10 834,-30 854,-30 854,-10 834,-10"/>
<text text-anchor="start" x="857.7812" y="-15.4" font-family="sans-serif" font-size="14.00" fill="#000000"> &#160;Bootstrap</text>
<polygon fill="#fdb462" stroke="transparent" points="931,-10 931,-30 951,-30 951,-10 931,-10"/>
<text text-anchor="start" x="954.6732" y="-15.4" font-family="sans-serif" font-size="14.00" fill="#000000"> &#160;Providers</text>
<polygon fill="#fb8072" stroke="transparent" points="1027,-10 1027,-30 1047,-30 1047,-10 1027,-10"/>
<text text-anchor="start" x="1050.7258" y="-15.4" font-family="sans-serif" font-size="14.00" fill="#000000"> &#160;Exports</text>
<g id="clust1" class="cluster">
<title>cluster_AccountMayestroModule</title>
<polygon fill="none" stroke="#000000" stroke-dasharray="1,5" points="8,-70 8,-195 1730,-195 1730,-70 8,-70"/>
</g>
<g id="clust2" class="cluster">
<title>cluster_AccountMayestroModule_declarations</title>
<polygon fill="none" stroke="#000000" points="361,-78 361,-130 1722,-130 1722,-78 361,-78"/>
</g>
<g id="clust11" class="cluster">
<title>cluster_AccountMayestroModule_imports</title>
<polygon fill="none" stroke="#000000" points="16,-78 16,-130 353,-130 353,-78 16,-78"/>
</g>
<!-- AccountMayestroComponent -->
<g id="node1" class="node">
<title>AccountMayestroComponent</title>
<polygon fill="#ffffb3" stroke="#000000" points="1713.6288,-122 1532.3712,-122 1532.3712,-86 1713.6288,-86 1713.6288,-122"/>
<text text-anchor="middle" x="1623" y="-99.8" font-family="Times,serif" font-size="14.00" fill="#000000">AccountMayestroComponent</text>
</g>
<!-- AccountMayestroModule -->
<g id="node9" class="node">
<title>AccountMayestroModule</title>
<polygon fill="#8dd3c7" stroke="#000000" points="896.8459,-187 893.8459,-191 872.8459,-191 869.8459,-187 737.1541,-187 737.1541,-151 896.8459,-151 896.8459,-187"/>
<text text-anchor="middle" x="817" y="-164.8" font-family="Times,serif" font-size="14.00" fill="#000000">AccountMayestroModule</text>
</g>
<!-- AccountMayestroComponent&#45;&gt;AccountMayestroModule -->
<g id="edge1" class="edge">
<title>AccountMayestroComponent&#45;&gt;AccountMayestroModule</title>
<path fill="none" stroke="#000000" d="M1623,-122.0109C1623,-144.4852 1623,-180 1623,-180 1623,-180 906.8583,-180 906.8583,-180"/>
<polygon fill="#000000" stroke="#000000" points="906.8583,-176.5001 896.8583,-180 906.8582,-183.5001 906.8583,-176.5001"/>
</g>
<!-- ChangePasswordComponent -->
<g id="node2" class="node">
<title>ChangePasswordComponent</title>
<polygon fill="#ffffb3" stroke="#000000" points="1513.752,-122 1336.248,-122 1336.248,-86 1513.752,-86 1513.752,-122"/>
<text text-anchor="middle" x="1425" y="-99.8" font-family="Times,serif" font-size="14.00" fill="#000000">ChangePasswordComponent</text>
</g>
<!-- ChangePasswordComponent&#45;&gt;AccountMayestroModule -->
<g id="edge2" class="edge">
<title>ChangePasswordComponent&#45;&gt;AccountMayestroModule</title>
<path fill="none" stroke="#000000" d="M1425,-122.1289C1425,-142.5724 1425,-173 1425,-173 1425,-173 907.1106,-173 907.1106,-173"/>
<polygon fill="#000000" stroke="#000000" points="907.1106,-169.5001 897.1106,-173 907.1106,-176.5001 907.1106,-169.5001"/>
</g>
<!-- ForgetPasswordComponent -->
<g id="node3" class="node">
<title>ForgetPasswordComponent</title>
<polygon fill="#ffffb3" stroke="#000000" points="1317.535,-122 1146.465,-122 1146.465,-86 1317.535,-86 1317.535,-122"/>
<text text-anchor="middle" x="1232" y="-99.8" font-family="Times,serif" font-size="14.00" fill="#000000">ForgetPasswordComponent</text>
</g>
<!-- ForgetPasswordComponent&#45;&gt;AccountMayestroModule -->
<g id="edge3" class="edge">
<title>ForgetPasswordComponent&#45;&gt;AccountMayestroModule</title>
<path fill="none" stroke="#000000" d="M1232,-122.2667C1232,-140.5552 1232,-166 1232,-166 1232,-166 907.0162,-166 907.0162,-166"/>
<polygon fill="#000000" stroke="#000000" points="907.0162,-162.5001 897.0162,-166 907.0161,-169.5001 907.0162,-162.5001"/>
</g>
<!-- HeaderComponent -->
<g id="node4" class="node">
<title>HeaderComponent</title>
<polygon fill="#ffffb3" stroke="#000000" points="1127.7437,-122 1006.2563,-122 1006.2563,-86 1127.7437,-86 1127.7437,-122"/>
<text text-anchor="middle" x="1067" y="-99.8" font-family="Times,serif" font-size="14.00" fill="#000000">HeaderComponent</text>
</g>
<!-- HeaderComponent&#45;&gt;AccountMayestroModule -->
<g id="edge4" class="edge">
<title>HeaderComponent&#45;&gt;AccountMayestroModule</title>
<path fill="none" stroke="#000000" d="M1067,-122.0091C1067,-138.0494 1067,-159 1067,-159 1067,-159 907.1331,-159 907.1331,-159"/>
<polygon fill="#000000" stroke="#000000" points="907.1332,-155.5001 897.1331,-159 907.1331,-162.5001 907.1332,-155.5001"/>
</g>
<!-- PrivacyPolicyComponent -->
<g id="node5" class="node">
<title>PrivacyPolicyComponent</title>
<polygon fill="#ffffb3" stroke="#000000" points="987.8738,-122 828.1262,-122 828.1262,-86 987.8738,-86 987.8738,-122"/>
<text text-anchor="middle" x="908" y="-99.8" font-family="Times,serif" font-size="14.00" fill="#000000">PrivacyPolicyComponent</text>
</g>
<!-- PrivacyPolicyComponent&#45;&gt;AccountMayestroModule -->
<g id="edge5" class="edge">
<title>PrivacyPolicyComponent&#45;&gt;AccountMayestroModule</title>
<path fill="none" stroke="#000000" d="M862.493,-122.1061C862.493,-122.1061 862.493,-140.991 862.493,-140.991"/>
<polygon fill="#000000" stroke="#000000" points="858.9931,-140.9909 862.493,-150.991 865.9931,-140.991 858.9931,-140.9909"/>
</g>
<!-- ResetPasswordComponent -->
<g id="node6" class="node">
<title>ResetPasswordComponent</title>
<polygon fill="#ffffb3" stroke="#000000" points="810.087,-122 643.913,-122 643.913,-86 810.087,-86 810.087,-122"/>
<text text-anchor="middle" x="727" y="-99.8" font-family="Times,serif" font-size="14.00" fill="#000000">ResetPasswordComponent</text>
</g>
<!-- ResetPasswordComponent&#45;&gt;AccountMayestroModule -->
<g id="edge6" class="edge">
<title>ResetPasswordComponent&#45;&gt;AccountMayestroModule</title>
<path fill="none" stroke="#000000" d="M773.5603,-122.1061C773.5603,-122.1061 773.5603,-140.991 773.5603,-140.991"/>
<polygon fill="#000000" stroke="#000000" points="770.0604,-140.9909 773.5603,-150.991 777.0604,-140.991 770.0604,-140.9909"/>
</g>
<!-- SigninComponent -->
<g id="node7" class="node">
<title>SigninComponent</title>
<polygon fill="#ffffb3" stroke="#000000" points="625.8962,-122 508.1038,-122 508.1038,-86 625.8962,-86 625.8962,-122"/>
<text text-anchor="middle" x="567" y="-99.8" font-family="Times,serif" font-size="14.00" fill="#000000">SigninComponent</text>
</g>
<!-- SigninComponent&#45;&gt;AccountMayestroModule -->
<g id="edge7" class="edge">
<title>SigninComponent&#45;&gt;AccountMayestroModule</title>
<path fill="none" stroke="#000000" d="M567,-122.0091C567,-138.0494 567,-159 567,-159 567,-159 726.8669,-159 726.8669,-159"/>
<polygon fill="#000000" stroke="#000000" points="726.8669,-162.5001 736.8669,-159 726.8668,-155.5001 726.8669,-162.5001"/>
</g>
<!-- SignupComponent -->
<g id="node8" class="node">
<title>SignupComponent</title>
<polygon fill="#ffffb3" stroke="#000000" points="490.5056,-122 369.4944,-122 369.4944,-86 490.5056,-86 490.5056,-122"/>
<text text-anchor="middle" x="430" y="-99.8" font-family="Times,serif" font-size="14.00" fill="#000000">SignupComponent</text>
</g>
<!-- SignupComponent&#45;&gt;AccountMayestroModule -->
<g id="edge8" class="edge">
<title>SignupComponent&#45;&gt;AccountMayestroModule</title>
<path fill="none" stroke="#000000" d="M430,-122.2667C430,-140.5552 430,-166 430,-166 430,-166 726.8133,-166 726.8133,-166"/>
<polygon fill="#000000" stroke="#000000" points="726.8134,-169.5001 736.8133,-166 726.8133,-162.5001 726.8134,-169.5001"/>
</g>
<!-- AccountMayestroRoutingModule -->
<g id="node10" class="node">
<title>AccountMayestroRoutingModule</title>
<polygon fill="#8dd3c7" stroke="#000000" points="345.4636,-122 342.4636,-126 321.4636,-126 318.4636,-122 140.5364,-122 140.5364,-86 345.4636,-86 345.4636,-122"/>
<text text-anchor="middle" x="243" y="-99.8" font-family="Times,serif" font-size="14.00" fill="#000000">AccountMayestroRoutingModule</text>
</g>
<!-- AccountMayestroRoutingModule&#45;&gt;AccountMayestroModule -->
<g id="edge9" class="edge">
<title>AccountMayestroRoutingModule&#45;&gt;AccountMayestroModule</title>
<path fill="none" stroke="#000000" d="M243,-122.1289C243,-142.5724 243,-173 243,-173 243,-173 726.8858,-173 726.8858,-173"/>
<polygon fill="#000000" stroke="#000000" points="726.8858,-176.5001 736.8858,-173 726.8857,-169.5001 726.8858,-176.5001"/>
</g>
<!-- SharedModule -->
<g id="node11" class="node">
<title>SharedModule</title>
<polygon fill="#8dd3c7" stroke="#000000" points="122.4231,-122 119.4231,-126 98.4231,-126 95.4231,-122 23.5769,-122 23.5769,-86 122.4231,-86 122.4231,-122"/>
<text text-anchor="middle" x="73" y="-99.8" font-family="Times,serif" font-size="14.00" fill="#000000">SharedModule</text>
</g>
<!-- SharedModule&#45;&gt;AccountMayestroModule -->
<g id="edge10" class="edge">
<title>SharedModule&#45;&gt;AccountMayestroModule</title>
<path fill="none" stroke="#000000" d="M73,-122.0109C73,-144.4852 73,-180 73,-180 73,-180 727.0258,-180 727.0258,-180"/>
<polygon fill="#000000" stroke="#000000" points="727.0259,-183.5001 737.0258,-180 727.0258,-176.5001 727.0259,-183.5001"/>
</g>
</g>
</svg>
