<?xml version="1.0" encoding="UTF-8" standalone="no"?>
<!DOCTYPE svg PUBLIC "-//W3C//DTD SVG 1.1//EN"
 "http://www.w3.org/Graphics/SVG/1.1/DTD/svg11.dtd">
<!-- Generated by graphviz version 2.40.1 (20161225.0304)
 -->
<!-- Title: dependencies Pages: 1 -->
<svg width="1988pt" height="211pt"
 viewBox="0.00 0.00 1988.00 211.00" xmlns="http://www.w3.org/2000/svg" xmlns:xlink="http://www.w3.org/1999/xlink">
<g id="graph0" class="graph" transform="scale(1 1) rotate(0) translate(4 207)">
<title>dependencies</title>
<polygon fill="#ffffff" stroke="transparent" points="-4,4 -4,-207 1984,-207 1984,4 -4,4"/>
<text text-anchor="start" x="969.0091" y="-42.4" font-family="sans-serif" font-weight="bold" font-size="14.00" fill="#000000">Legend</text>
<polygon fill="#ffffb3" stroke="transparent" points="756,-10 756,-30 776,-30 776,-10 756,-10"/>
<text text-anchor="start" x="779.629" y="-15.4" font-family="sans-serif" font-size="14.00" fill="#000000"> &#160;Declarations</text>
<polygon fill="#8dd3c7" stroke="transparent" points="869,-10 869,-30 889,-30 889,-10 869,-10"/>
<text text-anchor="start" x="892.7251" y="-15.4" font-family="sans-serif" font-size="14.00" fill="#000000"> &#160;Module</text>
<polygon fill="#80b1d3" stroke="transparent" points="955,-10 955,-30 975,-30 975,-10 955,-10"/>
<text text-anchor="start" x="978.7812" y="-15.4" font-family="sans-serif" font-size="14.00" fill="#000000"> &#160;Bootstrap</text>
<polygon fill="#fdb462" stroke="transparent" points="1052,-10 1052,-30 1072,-30 1072,-10 1052,-10"/>
<text text-anchor="start" x="1075.6732" y="-15.4" font-family="sans-serif" font-size="14.00" fill="#000000"> &#160;Providers</text>
<polygon fill="#fb8072" stroke="transparent" points="1148,-10 1148,-30 1168,-30 1168,-10 1148,-10"/>
<text text-anchor="start" x="1171.7258" y="-15.4" font-family="sans-serif" font-size="14.00" fill="#000000"> &#160;Exports</text>
<g id="clust1" class="cluster">
<title>cluster_AccountMayestroModule</title>
<polygon fill="none" stroke="#000000" stroke-dasharray="1,5" points="8,-70 8,-195 1972,-195 1972,-70 8,-70"/>
</g>
<g id="clust2" class="cluster">
<title>cluster_AccountMayestroModule_declarations</title>
<polygon fill="none" stroke="#000000" points="603,-78 603,-130 1964,-130 1964,-78 603,-78"/>
</g>
<g id="clust11" class="cluster">
<title>cluster_AccountMayestroModule_imports</title>
<polygon fill="none" stroke="#000000" points="258,-78 258,-130 595,-130 595,-78 258,-78"/>
</g>
<g id="clust14" class="cluster">
<title>cluster_AccountMayestroModule_providers</title>
<polygon fill="none" stroke="#000000" points="16,-78 16,-130 250,-130 250,-78 16,-78"/>
</g>
<!-- AccountMayestroComponent -->
<g id="node1" class="node">
<title>AccountMayestroComponent</title>
<polygon fill="#ffffb3" stroke="#000000" points="1955.6288,-122 1774.3712,-122 1774.3712,-86 1955.6288,-86 1955.6288,-122"/>
<text text-anchor="middle" x="1865" y="-99.8" font-family="Times,serif" font-size="14.00" fill="#000000">AccountMayestroComponent</text>
</g>
<!-- AccountMayestroModule -->
<g id="node9" class="node">
<title>AccountMayestroModule</title>
<polygon fill="#8dd3c7" stroke="#000000" points="1048.8459,-187 1045.8459,-191 1024.8459,-191 1021.8459,-187 889.1541,-187 889.1541,-151 1048.8459,-151 1048.8459,-187"/>
<text text-anchor="middle" x="969" y="-164.8" font-family="Times,serif" font-size="14.00" fill="#000000">AccountMayestroModule</text>
</g>
<!-- AccountMayestroComponent&#45;&gt;AccountMayestroModule -->
<g id="edge1" class="edge">
<title>AccountMayestroComponent&#45;&gt;AccountMayestroModule</title>
<path fill="none" stroke="#000000" d="M1865,-122.0908C1865,-145.1328 1865,-182 1865,-182 1865,-182 1058.9079,-182 1058.9079,-182"/>
<polygon fill="#000000" stroke="#000000" points="1058.9079,-178.5001 1048.9079,-182 1058.9078,-185.5001 1058.9079,-178.5001"/>
</g>
<!-- ChangePasswordComponent -->
<g id="node2" class="node">
<title>ChangePasswordComponent</title>
<polygon fill="#ffffb3" stroke="#000000" points="1755.752,-122 1578.248,-122 1578.248,-86 1755.752,-86 1755.752,-122"/>
<text text-anchor="middle" x="1667" y="-99.8" font-family="Times,serif" font-size="14.00" fill="#000000">ChangePasswordComponent</text>
</g>
<!-- ChangePasswordComponent&#45;&gt;AccountMayestroModule -->
<g id="edge2" class="edge">
<title>ChangePasswordComponent&#45;&gt;AccountMayestroModule</title>
<path fill="none" stroke="#000000" d="M1667,-122.2843C1667,-143.3211 1667,-175 1667,-175 1667,-175 1059.0695,-175 1059.0695,-175"/>
<polygon fill="#000000" stroke="#000000" points="1059.0695,-171.5001 1049.0695,-175 1059.0694,-178.5001 1059.0695,-171.5001"/>
</g>
<!-- ForgetPasswordComponent -->
<g id="node3" class="node">
<title>ForgetPasswordComponent</title>
<polygon fill="#ffffb3" stroke="#000000" points="1559.535,-122 1388.465,-122 1388.465,-86 1559.535,-86 1559.535,-122"/>
<text text-anchor="middle" x="1474" y="-99.8" font-family="Times,serif" font-size="14.00" fill="#000000">ForgetPasswordComponent</text>
</g>
<!-- ForgetPasswordComponent&#45;&gt;AccountMayestroModule -->
<g id="edge3" class="edge">
<title>ForgetPasswordComponent&#45;&gt;AccountMayestroModule</title>
<path fill="none" stroke="#000000" d="M1474,-122.1061C1474,-141.3391 1474,-169 1474,-169 1474,-169 1059.0188,-169 1059.0188,-169"/>
<polygon fill="#000000" stroke="#000000" points="1059.0188,-165.5001 1049.0188,-169 1059.0187,-172.5001 1059.0188,-165.5001"/>
</g>
<!-- HeaderComponent -->
<g id="node4" class="node">
<title>HeaderComponent</title>
<polygon fill="#ffffb3" stroke="#000000" points="1369.7437,-122 1248.2563,-122 1248.2563,-86 1369.7437,-86 1369.7437,-122"/>
<text text-anchor="middle" x="1309" y="-99.8" font-family="Times,serif" font-size="14.00" fill="#000000">HeaderComponent</text>
</g>
<!-- HeaderComponent&#45;&gt;AccountMayestroModule -->
<g id="edge4" class="edge">
<title>HeaderComponent&#45;&gt;AccountMayestroModule</title>
<path fill="none" stroke="#000000" d="M1309,-122.0225C1309,-139.3734 1309,-163 1309,-163 1309,-163 1059.1447,-163 1059.1447,-163"/>
<polygon fill="#000000" stroke="#000000" points="1059.1447,-159.5001 1049.1447,-163 1059.1447,-166.5001 1059.1447,-159.5001"/>
</g>
<!-- PrivacyPolicyComponent -->
<g id="node5" class="node">
<title>PrivacyPolicyComponent</title>
<polygon fill="#ffffb3" stroke="#000000" points="1229.8738,-122 1070.1262,-122 1070.1262,-86 1229.8738,-86 1229.8738,-122"/>
<text text-anchor="middle" x="1150" y="-99.8" font-family="Times,serif" font-size="14.00" fill="#000000">PrivacyPolicyComponent</text>
</g>
<!-- PrivacyPolicyComponent&#45;&gt;AccountMayestroModule -->
<g id="edge5" class="edge">
<title>PrivacyPolicyComponent&#45;&gt;AccountMayestroModule</title>
<path fill="none" stroke="#000000" d="M1150,-122.2396C1150,-137.5706 1150,-157 1150,-157 1150,-157 1058.9161,-157 1058.9161,-157"/>
<polygon fill="#000000" stroke="#000000" points="1058.9161,-153.5001 1048.9161,-157 1058.9161,-160.5001 1058.9161,-153.5001"/>
</g>
<!-- ResetPasswordComponent -->
<g id="node6" class="node">
<title>ResetPasswordComponent</title>
<polygon fill="#ffffb3" stroke="#000000" points="1052.087,-122 885.913,-122 885.913,-86 1052.087,-86 1052.087,-122"/>
<text text-anchor="middle" x="969" y="-99.8" font-family="Times,serif" font-size="14.00" fill="#000000">ResetPasswordComponent</text>
</g>
<!-- ResetPasswordComponent&#45;&gt;AccountMayestroModule -->
<g id="edge6" class="edge">
<title>ResetPasswordComponent&#45;&gt;AccountMayestroModule</title>
<path fill="none" stroke="#000000" d="M969,-122.1061C969,-122.1061 969,-140.991 969,-140.991"/>
<polygon fill="#000000" stroke="#000000" points="965.5001,-140.9909 969,-150.991 972.5001,-140.991 965.5001,-140.9909"/>
</g>
<!-- SigninComponent -->
<g id="node7" class="node">
<title>SigninComponent</title>
<polygon fill="#ffffb3" stroke="#000000" points="867.8962,-122 750.1038,-122 750.1038,-86 867.8962,-86 867.8962,-122"/>
<text text-anchor="middle" x="809" y="-99.8" font-family="Times,serif" font-size="14.00" fill="#000000">SigninComponent</text>
</g>
<!-- SigninComponent&#45;&gt;AccountMayestroModule -->
<g id="edge7" class="edge">
<title>SigninComponent&#45;&gt;AccountMayestroModule</title>
<path fill="none" stroke="#000000" d="M809,-122.2396C809,-137.5706 809,-157 809,-157 809,-157 879,-157 879,-157"/>
<polygon fill="#000000" stroke="#000000" points="879,-160.5001 889,-157 879,-153.5001 879,-160.5001"/>
</g>
<!-- SignupComponent -->
<g id="node8" class="node">
<title>SignupComponent</title>
<polygon fill="#ffffb3" stroke="#000000" points="732.5056,-122 611.4944,-122 611.4944,-86 732.5056,-86 732.5056,-122"/>
<text text-anchor="middle" x="672" y="-99.8" font-family="Times,serif" font-size="14.00" fill="#000000">SignupComponent</text>
</g>
<!-- SignupComponent&#45;&gt;AccountMayestroModule -->
<g id="edge8" class="edge">
<title>SignupComponent&#45;&gt;AccountMayestroModule</title>
<path fill="none" stroke="#000000" d="M672,-122.0225C672,-139.3734 672,-163 672,-163 672,-163 879.0188,-163 879.0188,-163"/>
<polygon fill="#000000" stroke="#000000" points="879.0188,-166.5001 889.0188,-163 879.0187,-159.5001 879.0188,-166.5001"/>
</g>
<!-- AccountMayestroRoutingModule -->
<g id="node10" class="node">
<title>AccountMayestroRoutingModule</title>
<polygon fill="#8dd3c7" stroke="#000000" points="587.4636,-122 584.4636,-126 563.4636,-126 560.4636,-122 382.5364,-122 382.5364,-86 587.4636,-86 587.4636,-122"/>
<text text-anchor="middle" x="485" y="-99.8" font-family="Times,serif" font-size="14.00" fill="#000000">AccountMayestroRoutingModule</text>
</g>
<!-- AccountMayestroRoutingModule&#45;&gt;AccountMayestroModule -->
<g id="edge9" class="edge">
<title>AccountMayestroRoutingModule&#45;&gt;AccountMayestroModule</title>
<path fill="none" stroke="#000000" d="M485,-122.1061C485,-141.3391 485,-169 485,-169 485,-169 879.0772,-169 879.0772,-169"/>
<polygon fill="#000000" stroke="#000000" points="879.0773,-172.5001 889.0772,-169 879.0772,-165.5001 879.0773,-172.5001"/>
</g>
<!-- SharedModule -->
<g id="node11" class="node">
<title>SharedModule</title>
<polygon fill="#8dd3c7" stroke="#000000" points="364.4231,-122 361.4231,-126 340.4231,-126 337.4231,-122 265.5769,-122 265.5769,-86 364.4231,-86 364.4231,-122"/>
<text text-anchor="middle" x="315" y="-99.8" font-family="Times,serif" font-size="14.00" fill="#000000">SharedModule</text>
</g>
<!-- SharedModule&#45;&gt;AccountMayestroModule -->
<g id="edge10" class="edge">
<title>SharedModule&#45;&gt;AccountMayestroModule</title>
<path fill="none" stroke="#000000" d="M315,-122.2843C315,-143.3211 315,-175 315,-175 315,-175 879.1339,-175 879.1339,-175"/>
<polygon fill="#000000" stroke="#000000" points="879.134,-178.5001 889.1339,-175 879.1339,-171.5001 879.134,-178.5001"/>
</g>
<!-- AccountMayestroService -->
<g id="node12" class="node">
<title>AccountMayestroService</title>
<ellipse fill="#fdb462" stroke="#000000" cx="133" cy="-104" rx="109.3488" ry="18"/>
<text text-anchor="middle" x="133" y="-99.8" font-family="Times,serif" font-size="14.00" fill="#000000">AccountMayestroService</text>
</g>
<!-- AccountMayestroService&#45;&gt;AccountMayestroModule -->
<g id="edge11" class="edge">
<title>AccountMayestroService&#45;&gt;AccountMayestroModule</title>
<path fill="none" stroke="#000000" d="M133,-122.0908C133,-145.1328 133,-182 133,-182 133,-182 878.8408,-182 878.8408,-182"/>
<polygon fill="#000000" stroke="#000000" points="878.8408,-185.5001 888.8408,-182 878.8408,-178.5001 878.8408,-185.5001"/>
</g>
</g>
</svg>
