<?xml version="1.0" encoding="UTF-8" standalone="no"?>
<!DOCTYPE svg PUBLIC "-//W3C//DTD SVG 1.1//EN"
 "http://www.w3.org/Graphics/SVG/1.1/DTD/svg11.dtd">
<!-- Generated by graphviz version 2.40.1 (20161225.0304)
 -->
<!-- Title: dependencies Pages: 1 -->
<svg width="776pt" height="211pt"
 viewBox="0.00 0.00 776.00 211.00" xmlns="http://www.w3.org/2000/svg" xmlns:xlink="http://www.w3.org/1999/xlink">
<g id="graph0" class="graph" transform="scale(1 1) rotate(0) translate(4 207)">
<title>dependencies</title>
<polygon fill="#ffffff" stroke="transparent" points="-4,4 -4,-207 772,-207 772,4 -4,4"/>
<text text-anchor="start" x="363.0091" y="-42.4" font-family="sans-serif" font-weight="bold" font-size="14.00" fill="#000000">Legend</text>
<polygon fill="#ffffb3" stroke="transparent" points="150,-10 150,-30 170,-30 170,-10 150,-10"/>
<text text-anchor="start" x="173.629" y="-15.4" font-family="sans-serif" font-size="14.00" fill="#000000"> &#160;Declarations</text>
<polygon fill="#8dd3c7" stroke="transparent" points="263,-10 263,-30 283,-30 283,-10 263,-10"/>
<text text-anchor="start" x="286.7251" y="-15.4" font-family="sans-serif" font-size="14.00" fill="#000000"> &#160;Module</text>
<polygon fill="#80b1d3" stroke="transparent" points="349,-10 349,-30 369,-30 369,-10 349,-10"/>
<text text-anchor="start" x="372.7812" y="-15.4" font-family="sans-serif" font-size="14.00" fill="#000000"> &#160;Bootstrap</text>
<polygon fill="#fdb462" stroke="transparent" points="446,-10 446,-30 466,-30 466,-10 446,-10"/>
<text text-anchor="start" x="469.6732" y="-15.4" font-family="sans-serif" font-size="14.00" fill="#000000"> &#160;Providers</text>
<polygon fill="#fb8072" stroke="transparent" points="542,-10 542,-30 562,-30 562,-10 542,-10"/>
<text text-anchor="start" x="565.7258" y="-15.4" font-family="sans-serif" font-size="14.00" fill="#000000"> &#160;Exports</text>
<g id="clust1" class="cluster">
<title>cluster_ConnectModule</title>
<polygon fill="none" stroke="#000000" stroke-dasharray="1,5" points="8,-70 8,-195 760,-195 760,-70 8,-70"/>
</g>
<g id="clust2" class="cluster">
<title>cluster_ConnectModule_declarations</title>
<polygon fill="none" stroke="#000000" points="308,-78 308,-130 752,-130 752,-78 308,-78"/>
</g>
<g id="clust6" class="cluster">
<title>cluster_ConnectModule_imports</title>
<polygon fill="none" stroke="#000000" points="16,-78 16,-130 300,-130 300,-78 16,-78"/>
</g>
<!-- ConnectComponent -->
<g id="node1" class="node">
<title>ConnectComponent</title>
<polygon fill="#ffffb3" stroke="#000000" points="743.9888,-122 616.0112,-122 616.0112,-86 743.9888,-86 743.9888,-122"/>
<text text-anchor="middle" x="680" y="-99.8" font-family="Times,serif" font-size="14.00" fill="#000000">ConnectComponent</text>
</g>
<!-- ConnectModule -->
<g id="node4" class="node">
<title>ConnectModule</title>
<polygon fill="#8dd3c7" stroke="#000000" points="428.2064,-187 425.2064,-191 404.2064,-191 401.2064,-187 321.7936,-187 321.7936,-151 428.2064,-151 428.2064,-187"/>
<text text-anchor="middle" x="375" y="-164.8" font-family="Times,serif" font-size="14.00" fill="#000000">ConnectModule</text>
</g>
<!-- ConnectComponent&#45;&gt;ConnectModule -->
<g id="edge1" class="edge">
<title>ConnectComponent&#45;&gt;ConnectModule</title>
<path fill="none" stroke="#000000" d="M680,-122.2843C680,-143.3211 680,-175 680,-175 680,-175 438.1269,-175 438.1269,-175"/>
<polygon fill="#000000" stroke="#000000" points="438.127,-171.5001 428.1269,-175 438.1269,-178.5001 438.127,-171.5001"/>
</g>
<!-- ConnectingComponent -->
<g id="node2" class="node">
<title>ConnectingComponent</title>
<polygon fill="#ffffb3" stroke="#000000" points="597.8794,-122 452.1206,-122 452.1206,-86 597.8794,-86 597.8794,-122"/>
<text text-anchor="middle" x="525" y="-99.8" font-family="Times,serif" font-size="14.00" fill="#000000">ConnectingComponent</text>
</g>
<!-- ConnectingComponent&#45;&gt;ConnectModule -->
<g id="edge2" class="edge">
<title>ConnectingComponent&#45;&gt;ConnectModule</title>
<path fill="none" stroke="#000000" d="M525,-122.0225C525,-139.3734 525,-163 525,-163 525,-163 438.3067,-163 438.3067,-163"/>
<polygon fill="#000000" stroke="#000000" points="438.3068,-159.5001 428.3067,-163 438.3067,-166.5001 438.3068,-159.5001"/>
</g>
<!-- FooterComponent -->
<g id="node3" class="node">
<title>FooterComponent</title>
<polygon fill="#ffffb3" stroke="#000000" points="433.8809,-122 316.1191,-122 316.1191,-86 433.8809,-86 433.8809,-122"/>
<text text-anchor="middle" x="375" y="-99.8" font-family="Times,serif" font-size="14.00" fill="#000000">FooterComponent</text>
</g>
<!-- FooterComponent&#45;&gt;ConnectModule -->
<g id="edge3" class="edge">
<title>FooterComponent&#45;&gt;ConnectModule</title>
<path fill="none" stroke="#000000" d="M375,-122.1061C375,-122.1061 375,-140.991 375,-140.991"/>
<polygon fill="#000000" stroke="#000000" points="371.5001,-140.9909 375,-150.991 378.5001,-140.991 371.5001,-140.9909"/>
</g>
<!-- ConnectRoutingModule -->
<g id="node5" class="node">
<title>ConnectRoutingModule</title>
<polygon fill="#8dd3c7" stroke="#000000" points="291.8243,-122 288.8243,-126 267.8243,-126 264.8243,-122 140.1757,-122 140.1757,-86 291.8243,-86 291.8243,-122"/>
<text text-anchor="middle" x="216" y="-99.8" font-family="Times,serif" font-size="14.00" fill="#000000">ConnectRoutingModule</text>
</g>
<!-- ConnectRoutingModule&#45;&gt;ConnectModule -->
<g id="edge4" class="edge">
<title>ConnectRoutingModule&#45;&gt;ConnectModule</title>
<path fill="none" stroke="#000000" d="M216,-122.0225C216,-139.3734 216,-163 216,-163 216,-163 311.613,-163 311.613,-163"/>
<polygon fill="#000000" stroke="#000000" points="311.613,-166.5001 321.613,-163 311.6129,-159.5001 311.613,-166.5001"/>
</g>
<!-- SharedModule -->
<g id="node6" class="node">
<title>SharedModule</title>
<polygon fill="#8dd3c7" stroke="#000000" points="122.4231,-122 119.4231,-126 98.4231,-126 95.4231,-122 23.5769,-122 23.5769,-86 122.4231,-86 122.4231,-122"/>
<text text-anchor="middle" x="73" y="-99.8" font-family="Times,serif" font-size="14.00" fill="#000000">SharedModule</text>
</g>
<!-- SharedModule&#45;&gt;ConnectModule -->
<g id="edge5" class="edge">
<title>SharedModule&#45;&gt;ConnectModule</title>
<path fill="none" stroke="#000000" d="M73,-122.2843C73,-143.3211 73,-175 73,-175 73,-175 311.7036,-175 311.7036,-175"/>
<polygon fill="#000000" stroke="#000000" points="311.7037,-178.5001 321.7036,-175 311.7036,-171.5001 311.7037,-178.5001"/>
</g>
</g>
</svg>
