<?xml version="1.0" encoding="UTF-8" standalone="no"?>
<!DOCTYPE svg PUBLIC "-//W3C//DTD SVG 1.1//EN"
 "http://www.w3.org/Graphics/SVG/1.1/DTD/svg11.dtd">
<!-- Generated by graphviz version 2.40.1 (20161225.0304)
 -->
<!-- Title: dependencies Pages: 1 -->
<svg width="7798pt" height="295pt"
 viewBox="0.00 0.00 7798.00 295.00" xmlns="http://www.w3.org/2000/svg" xmlns:xlink="http://www.w3.org/1999/xlink">
<g id="graph0" class="graph" transform="scale(1 1) rotate(0) translate(4 291)">
<title>dependencies</title>
<polygon fill="#ffffff" stroke="transparent" points="-4,4 -4,-291 7794,-291 7794,4 -4,4"/>
<text text-anchor="start" x="3874.0091" y="-42.4" font-family="sans-serif" font-weight="bold" font-size="14.00" fill="#000000">Legend</text>
<polygon fill="#ffffb3" stroke="transparent" points="3661,-10 3661,-30 3681,-30 3681,-10 3661,-10"/>
<text text-anchor="start" x="3684.629" y="-15.4" font-family="sans-serif" font-size="14.00" fill="#000000"> &#160;Declarations</text>
<polygon fill="#8dd3c7" stroke="transparent" points="3774,-10 3774,-30 3794,-30 3794,-10 3774,-10"/>
<text text-anchor="start" x="3797.7251" y="-15.4" font-family="sans-serif" font-size="14.00" fill="#000000"> &#160;Module</text>
<polygon fill="#80b1d3" stroke="transparent" points="3860,-10 3860,-30 3880,-30 3880,-10 3860,-10"/>
<text text-anchor="start" x="3883.7812" y="-15.4" font-family="sans-serif" font-size="14.00" fill="#000000"> &#160;Bootstrap</text>
<polygon fill="#fdb462" stroke="transparent" points="3957,-10 3957,-30 3977,-30 3977,-10 3957,-10"/>
<text text-anchor="start" x="3980.6732" y="-15.4" font-family="sans-serif" font-size="14.00" fill="#000000"> &#160;Providers</text>
<polygon fill="#fb8072" stroke="transparent" points="4053,-10 4053,-30 4073,-30 4073,-10 4053,-10"/>
<text text-anchor="start" x="4076.7258" y="-15.4" font-family="sans-serif" font-size="14.00" fill="#000000"> &#160;Exports</text>
<g id="clust1" class="cluster">
<title>cluster_AccountMayestroModule</title>
<polygon fill="none" stroke="#000000" stroke-dasharray="1,5" points="8,-146 8,-271 1551,-271 1551,-146 8,-146"/>
</g>
<g id="clust2" class="cluster">
<title>cluster_AccountMayestroModule_declarations</title>
<polygon fill="none" stroke="#000000" points="16,-154 16,-206 1198,-206 1198,-154 16,-154"/>
</g>
<g id="clust10" class="cluster">
<title>cluster_AccountMayestroModule_imports</title>
<polygon fill="none" stroke="#000000" points="1206,-154 1206,-206 1543,-206 1543,-154 1206,-154"/>
</g>
<g id="clust20" class="cluster">
<title>cluster_AppModule</title>
<polygon fill="none" stroke="#000000" stroke-dasharray="1,5" points="7492,-70 7492,-279 7782,-279 7782,-70 7492,-70"/>
</g>
<g id="clust21" class="cluster">
<title>cluster_AppModule_declarations</title>
<polygon fill="none" stroke="#000000" points="7652,-78 7652,-130 7774,-130 7774,-78 7652,-78"/>
</g>
<g id="clust23" class="cluster">
<title>cluster_AppModule_imports</title>
<polygon fill="none" stroke="#000000" points="7500,-78 7500,-130 7644,-130 7644,-78 7500,-78"/>
</g>
<g id="clust25" class="cluster">
<title>cluster_AppModule_bootstrap</title>
<polygon fill="none" stroke="#000000" points="7580,-219 7580,-271 7704,-271 7704,-219 7580,-219"/>
</g>
<g id="clust33" class="cluster">
<title>cluster_ArtistModule</title>
<polygon fill="none" stroke="#000000" stroke-dasharray="1,5" points="1559,-146 1559,-271 2886,-271 2886,-146 1559,-146"/>
</g>
<g id="clust34" class="cluster">
<title>cluster_ArtistModule_declarations</title>
<polygon fill="none" stroke="#000000" points="1727,-154 1727,-206 2878,-206 2878,-154 1727,-154"/>
</g>
<g id="clust42" class="cluster">
<title>cluster_ArtistModule_imports</title>
<polygon fill="none" stroke="#000000" points="1567,-154 1567,-206 1719,-206 1719,-154 1567,-154"/>
</g>
<g id="clust52" class="cluster">
<title>cluster_MayestroModule</title>
<polygon fill="none" stroke="#000000" stroke-dasharray="1,5" points="2894,-146 2894,-271 5149,-271 5149,-146 2894,-146"/>
</g>
<g id="clust53" class="cluster">
<title>cluster_MayestroModule_declarations</title>
<polygon fill="none" stroke="#000000" points="3084,-154 3084,-206 5141,-206 5141,-154 3084,-154"/>
</g>
<g id="clust68" class="cluster">
<title>cluster_MayestroModule_imports</title>
<polygon fill="none" stroke="#000000" points="2902,-154 2902,-206 3076,-206 3076,-154 2902,-154"/>
</g>
<g id="clust78" class="cluster">
<title>cluster_OpenMayestroModule</title>
<polygon fill="none" stroke="#000000" stroke-dasharray="1,5" points="5157,-146 5157,-271 7484,-271 7484,-146 5157,-146"/>
</g>
<g id="clust79" class="cluster">
<title>cluster_OpenMayestroModule_declarations</title>
<polygon fill="none" stroke="#000000" points="5517,-154 5517,-206 7476,-206 7476,-154 5517,-154"/>
</g>
<g id="clust92" class="cluster">
<title>cluster_OpenMayestroModule_imports</title>
<polygon fill="none" stroke="#000000" points="5305,-154 5305,-206 5509,-206 5509,-154 5305,-154"/>
</g>
<g id="clust95" class="cluster">
<title>cluster_OpenMayestroModule_providers</title>
<polygon fill="none" stroke="#000000" points="5165,-154 5165,-206 5297,-206 5297,-154 5165,-154"/>
</g>
<g id="clust102" class="cluster">
<title>cluster_SharedModule</title>
<polygon fill="none" stroke="#000000" stroke-dasharray="1,5" points="1199,-70 1199,-138 1763,-138 1763,-70 1199,-70"/>
</g>
<g id="clust103" class="cluster">
<title>cluster_SharedModule_declarations</title>
<polygon fill="none" stroke="#000000" points="1409,-78 1409,-130 1755,-130 1755,-78 1409,-78"/>
</g>
<g id="clust107" class="cluster">
<title>cluster_SharedModule_exports</title>
<polygon fill="none" stroke="#000000" points="1207,-78 1207,-130 1401,-130 1401,-78 1207,-78"/>
</g>
<!-- AccountMayestroComponent -->
<g id="node1" class="node">
<title>AccountMayestroComponent</title>
<polygon fill="#ffffb3" stroke="#000000" points="731.6288,-198 550.3712,-198 550.3712,-162 731.6288,-162 731.6288,-198"/>
<text text-anchor="middle" x="641" y="-175.8" font-family="Times,serif" font-size="14.00" fill="#000000">AccountMayestroComponent</text>
</g>
<!-- AccountMayestroModule -->
<g id="node8" class="node">
<title>AccountMayestroModule</title>
<polygon fill="#8dd3c7" stroke="#000000" points="889.8459,-263 886.8459,-267 865.8459,-267 862.8459,-263 730.1541,-263 730.1541,-227 889.8459,-227 889.8459,-263"/>
<text text-anchor="middle" x="810" y="-240.8" font-family="Times,serif" font-size="14.00" fill="#000000">AccountMayestroModule</text>
</g>
<!-- AccountMayestroComponent&#45;&gt;AccountMayestroModule -->
<g id="edge1" class="edge">
<title>AccountMayestroComponent&#45;&gt;AccountMayestroModule</title>
<path fill="none" stroke="#000000" d="M731.8119,-180C737.2966,-180 740.6557,-180 740.6557,-180 740.6557,-180 740.6557,-216.8939 740.6557,-216.8939"/>
<polygon fill="#000000" stroke="#000000" points="737.1558,-216.8938 740.6557,-226.8939 744.1558,-216.8939 737.1558,-216.8938"/>
</g>
<!-- ChangePasswordComponent -->
<g id="node2" class="node">
<title>ChangePasswordComponent</title>
<polygon fill="#ffffb3" stroke="#000000" points="531.752,-198 354.248,-198 354.248,-162 531.752,-162 531.752,-198"/>
<text text-anchor="middle" x="443" y="-175.8" font-family="Times,serif" font-size="14.00" fill="#000000">ChangePasswordComponent</text>
</g>
<!-- ChangePasswordComponent&#45;&gt;AccountMayestroModule -->
<g id="edge2" class="edge">
<title>ChangePasswordComponent&#45;&gt;AccountMayestroModule</title>
<path fill="none" stroke="#000000" d="M443,-198.027C443,-214.3976 443,-236 443,-236 443,-236 719.9138,-236 719.9138,-236"/>
<polygon fill="#000000" stroke="#000000" points="719.9138,-239.5001 729.9138,-236 719.9138,-232.5001 719.9138,-239.5001"/>
</g>
<!-- ForgetPasswordComponent -->
<g id="node3" class="node">
<title>ForgetPasswordComponent</title>
<polygon fill="#ffffb3" stroke="#000000" points="335.535,-198 164.465,-198 164.465,-162 335.535,-162 335.535,-198"/>
<text text-anchor="middle" x="250" y="-175.8" font-family="Times,serif" font-size="14.00" fill="#000000">ForgetPasswordComponent</text>
</g>
<!-- ForgetPasswordComponent&#45;&gt;AccountMayestroModule -->
<g id="edge3" class="edge">
<title>ForgetPasswordComponent&#45;&gt;AccountMayestroModule</title>
<path fill="none" stroke="#000000" d="M250,-198.1061C250,-217.3391 250,-245 250,-245 250,-245 720.0632,-245 720.0632,-245"/>
<polygon fill="#000000" stroke="#000000" points="720.0633,-248.5001 730.0632,-245 720.0632,-241.5001 720.0633,-248.5001"/>
</g>
<!-- HeaderComponent -->
<g id="node4" class="node">
<title>HeaderComponent</title>
<polygon fill="#ffffb3" stroke="#000000" points="145.7437,-198 24.2563,-198 24.2563,-162 145.7437,-162 145.7437,-198"/>
<text text-anchor="middle" x="85" y="-175.8" font-family="Times,serif" font-size="14.00" fill="#000000">HeaderComponent</text>
</g>
<!-- HeaderComponent&#45;&gt;AccountMayestroModule -->
<g id="edge4" class="edge">
<title>HeaderComponent&#45;&gt;AccountMayestroModule</title>
<path fill="none" stroke="#000000" d="M85,-198.2921C85,-220.2057 85,-254 85,-254 85,-254 719.9906,-254 719.9906,-254"/>
<polygon fill="#000000" stroke="#000000" points="719.9907,-257.5001 729.9906,-254 719.9906,-250.5001 719.9907,-257.5001"/>
</g>
<!-- ResetPasswordComponent -->
<g id="node5" class="node">
<title>ResetPasswordComponent</title>
<polygon fill="#ffffb3" stroke="#000000" points="1190.087,-198 1023.913,-198 1023.913,-162 1190.087,-162 1190.087,-198"/>
<text text-anchor="middle" x="1107" y="-175.8" font-family="Times,serif" font-size="14.00" fill="#000000">ResetPasswordComponent</text>
</g>
<!-- ResetPasswordComponent&#45;&gt;AccountMayestroModule -->
<g id="edge5" class="edge">
<title>ResetPasswordComponent&#45;&gt;AccountMayestroModule</title>
<path fill="none" stroke="#000000" d="M1107,-198.1871C1107,-213.1824 1107,-232 1107,-232 1107,-232 899.9812,-232 899.9812,-232"/>
<polygon fill="#000000" stroke="#000000" points="899.9813,-228.5001 889.9812,-232 899.9812,-235.5001 899.9813,-228.5001"/>
</g>
<!-- SigninComponent -->
<g id="node6" class="node">
<title>SigninComponent</title>
<polygon fill="#ffffb3" stroke="#000000" points="1005.8962,-198 888.1038,-198 888.1038,-162 1005.8962,-162 1005.8962,-198"/>
<text text-anchor="middle" x="947" y="-175.8" font-family="Times,serif" font-size="14.00" fill="#000000">SigninComponent</text>
</g>
<!-- SigninComponent&#45;&gt;AccountMayestroModule -->
<g id="edge6" class="edge">
<title>SigninComponent&#45;&gt;AccountMayestroModule</title>
<path fill="none" stroke="#000000" d="M887.8545,-180C882.6348,-180 879.2774,-180 879.2774,-180 879.2774,-180 879.2774,-216.8939 879.2774,-216.8939"/>
<polygon fill="#000000" stroke="#000000" points="875.7774,-216.8938 879.2774,-226.8939 882.7774,-216.8939 875.7774,-216.8938"/>
</g>
<!-- SignupComponent -->
<g id="node7" class="node">
<title>SignupComponent</title>
<polygon fill="#ffffb3" stroke="#000000" points="870.5056,-198 749.4944,-198 749.4944,-162 870.5056,-162 870.5056,-198"/>
<text text-anchor="middle" x="810" y="-175.8" font-family="Times,serif" font-size="14.00" fill="#000000">SignupComponent</text>
</g>
<!-- SignupComponent&#45;&gt;AccountMayestroModule -->
<g id="edge7" class="edge">
<title>SignupComponent&#45;&gt;AccountMayestroModule</title>
<path fill="none" stroke="#000000" d="M810,-198.1061C810,-198.1061 810,-216.991 810,-216.991"/>
<polygon fill="#000000" stroke="#000000" points="806.5001,-216.9909 810,-226.991 813.5001,-216.991 806.5001,-216.9909"/>
</g>
<!-- AccountMayestroRoutingModule -->
<g id="node9" class="node">
<title>AccountMayestroRoutingModule</title>
<polygon fill="#8dd3c7" stroke="#000000" points="1418.4636,-198 1415.4636,-202 1394.4636,-202 1391.4636,-198 1213.5364,-198 1213.5364,-162 1418.4636,-162 1418.4636,-198"/>
<text text-anchor="middle" x="1316" y="-175.8" font-family="Times,serif" font-size="14.00" fill="#000000">AccountMayestroRoutingModule</text>
</g>
<!-- AccountMayestroRoutingModule&#45;&gt;AccountMayestroModule -->
<g id="edge8" class="edge">
<title>AccountMayestroRoutingModule&#45;&gt;AccountMayestroModule</title>
<path fill="none" stroke="#000000" d="M1316,-198.027C1316,-214.3976 1316,-236 1316,-236 1316,-236 899.898,-236 899.898,-236"/>
<polygon fill="#000000" stroke="#000000" points="899.898,-232.5001 889.898,-236 899.898,-239.5001 899.898,-232.5001"/>
</g>
<!-- SharedModule -->
<g id="node10" class="node">
<title>SharedModule</title>
<polygon fill="#8dd3c7" stroke="#000000" points="1535.4231,-198 1532.4231,-202 1511.4231,-202 1508.4231,-198 1436.5769,-198 1436.5769,-162 1535.4231,-162 1535.4231,-198"/>
<text text-anchor="middle" x="1486" y="-175.8" font-family="Times,serif" font-size="14.00" fill="#000000">SharedModule</text>
</g>
<!-- SharedModule&#45;&gt;AccountMayestroModule -->
<g id="edge9" class="edge">
<title>SharedModule&#45;&gt;AccountMayestroModule</title>
<path fill="none" stroke="#000000" d="M1495.8422,-198.302C1495.8422,-216.2699 1495.8422,-241 1495.8422,-241 1495.8422,-241 900.0171,-241 900.0171,-241"/>
<polygon fill="#000000" stroke="#000000" points="900.0171,-237.5001 890.0171,-241 900.0171,-244.5001 900.0171,-237.5001"/>
</g>
<!-- ArtistModule -->
<g id="node22" class="node">
<title>ArtistModule</title>
<polygon fill="#8dd3c7" stroke="#000000" points="2153.9344,-263 2150.9344,-267 2129.9344,-267 2126.9344,-263 2062.0656,-263 2062.0656,-227 2153.9344,-227 2153.9344,-263"/>
<text text-anchor="middle" x="2108" y="-240.8" font-family="Times,serif" font-size="14.00" fill="#000000">ArtistModule</text>
</g>
<!-- SharedModule&#45;&gt;ArtistModule -->
<g id="edge21" class="edge">
<title>SharedModule&#45;&gt;ArtistModule</title>
<path fill="none" stroke="#000000" d="M1515.5267,-198.3228C1515.5267,-221.6602 1515.5267,-259 1515.5267,-259 1515.5267,-259 2052.0026,-259 2052.0026,-259"/>
<polygon fill="#000000" stroke="#000000" points="2052.0026,-262.5001 2062.0026,-259 2052.0026,-255.5001 2052.0026,-262.5001"/>
</g>
<!-- MayestroModule -->
<g id="node38" class="node">
<title>MayestroModule</title>
<polygon fill="#8dd3c7" stroke="#000000" points="3986.4202,-263 3983.4202,-267 3962.4202,-267 3959.4202,-263 3873.5798,-263 3873.5798,-227 3986.4202,-227 3986.4202,-263"/>
<text text-anchor="middle" x="3930" y="-240.8" font-family="Times,serif" font-size="14.00" fill="#000000">MayestroModule</text>
</g>
<!-- SharedModule&#45;&gt;MayestroModule -->
<g id="edge37" class="edge">
<title>SharedModule&#45;&gt;MayestroModule</title>
<path fill="none" stroke="#000000" d="M1456.4733,-198.1097C1456.4733,-207.897 1456.4733,-218 1456.4733,-218 1456.4733,-218 3890.2655,-218 3890.2655,-218 3890.2655,-218 3890.2655,-218.8841 3890.2655,-218.8841"/>
<polygon fill="#000000" stroke="#000000" points="3886.7657,-216.8408 3890.2655,-226.8408 3893.7657,-216.8409 3886.7657,-216.8408"/>
</g>
<!-- OpenMayestroModule -->
<g id="node52" class="node">
<title>OpenMayestroModule</title>
<polygon fill="#8dd3c7" stroke="#000000" points="6268.2408,-263 6265.2408,-267 6244.2408,-267 6241.2408,-263 6125.7592,-263 6125.7592,-227 6268.2408,-227 6268.2408,-263"/>
<text text-anchor="middle" x="6197" y="-240.8" font-family="Times,serif" font-size="14.00" fill="#000000">OpenMayestroModule</text>
</g>
<!-- SharedModule&#45;&gt;OpenMayestroModule -->
<g id="edge51" class="edge">
<title>SharedModule&#45;&gt;OpenMayestroModule</title>
<path fill="none" stroke="#000000" d="M1476.1578,-198.207C1476.1578,-203.5549 1476.1578,-208 1476.1578,-208 1476.1578,-208 6173.2099,-208 6173.2099,-208 6173.2099,-208 6173.2099,-216.9336 6173.2099,-216.9336"/>
<polygon fill="#000000" stroke="#000000" points="6169.71,-216.9335 6173.2099,-226.9336 6176.71,-216.9336 6169.71,-216.9335"/>
</g>
<!-- HomeArtistCardComponent  -->
<g id="node57" class="node">
<title>HomeArtistCardComponent </title>
<polygon fill="#fb8072" stroke="#000000" points="1393.1397,-122 1214.8603,-122 1214.8603,-86 1393.1397,-86 1393.1397,-122"/>
<text text-anchor="middle" x="1304" y="-99.8" font-family="Times,serif" font-size="14.00" fill="#000000">HomeArtistCardComponent </text>
</g>
<!-- SharedModule&#45;&gt;HomeArtistCardComponent  -->
<g id="edge55" class="edge">
<title>SharedModule&#45;&gt;HomeArtistCardComponent </title>
<path fill="none" stroke="#000000" stroke-dasharray="5,2" d="M1469.5963,-161.8903C1469.5963,-152.103 1469.5963,-142 1469.5963,-142 1469.5963,-142 1304,-142 1304,-142 1304,-142 1304,-132.1097 1304,-132.1097"/>
<polygon fill="#000000" stroke="#000000" points="1307.5001,-132.1096 1304,-122.1097 1300.5001,-132.1097 1307.5001,-132.1096"/>
</g>
<!-- AppComponent -->
<g id="node11" class="node">
<title>AppComponent</title>
<polygon fill="#ffffb3" stroke="#000000" points="7765.9399,-122 7660.0601,-122 7660.0601,-86 7765.9399,-86 7765.9399,-122"/>
<text text-anchor="middle" x="7713" y="-99.8" font-family="Times,serif" font-size="14.00" fill="#000000">AppComponent</text>
</g>
<!-- AppModule -->
<g id="node12" class="node">
<title>AppModule</title>
<polygon fill="#8dd3c7" stroke="#000000" points="7683.6571,-198 7680.6571,-202 7659.6571,-202 7656.6571,-198 7600.3429,-198 7600.3429,-162 7683.6571,-162 7683.6571,-198"/>
<text text-anchor="middle" x="7642" y="-175.8" font-family="Times,serif" font-size="14.00" fill="#000000">AppModule</text>
</g>
<!-- AppComponent&#45;&gt;AppModule -->
<g id="edge10" class="edge">
<title>AppComponent&#45;&gt;AppModule</title>
<path fill="none" stroke="#000000" d="M7672.0544,-122.0109C7672.0544,-122.0109 7672.0544,-151.855 7672.0544,-151.855"/>
<polygon fill="#000000" stroke="#000000" points="7668.5544,-151.8549 7672.0544,-161.855 7675.5544,-151.855 7668.5544,-151.8549"/>
</g>
<!-- AppComponent  -->
<g id="node14" class="node">
<title>AppComponent </title>
<polygon fill="#80b1d3" stroke="#000000" points="7696.439,-263 7587.561,-263 7587.561,-227 7696.439,-227 7696.439,-263"/>
<text text-anchor="middle" x="7642" y="-240.8" font-family="Times,serif" font-size="14.00" fill="#000000">AppComponent </text>
</g>
<!-- AppModule&#45;&gt;AppComponent  -->
<g id="edge12" class="edge">
<title>AppModule&#45;&gt;AppComponent </title>
<path fill="none" stroke="#000000" stroke-dasharray="1,5" d="M7642,-198.1061C7642,-198.1061 7642,-216.991 7642,-216.991"/>
<polygon fill="#000000" stroke="#000000" points="7638.5001,-216.9909 7642,-226.991 7645.5001,-216.991 7638.5001,-216.9909"/>
</g>
<!-- AppRoutingModule -->
<g id="node13" class="node">
<title>AppRoutingModule</title>
<polygon fill="#8dd3c7" stroke="#000000" points="7636.2744,-122 7633.2744,-126 7612.2744,-126 7609.2744,-122 7507.7256,-122 7507.7256,-86 7636.2744,-86 7636.2744,-122"/>
<text text-anchor="middle" x="7572" y="-99.8" font-family="Times,serif" font-size="14.00" fill="#000000">AppRoutingModule</text>
</g>
<!-- AppRoutingModule&#45;&gt;AppModule -->
<g id="edge11" class="edge">
<title>AppRoutingModule&#45;&gt;AppModule</title>
<path fill="none" stroke="#000000" d="M7618.2795,-122.0109C7618.2795,-122.0109 7618.2795,-151.855 7618.2795,-151.855"/>
<polygon fill="#000000" stroke="#000000" points="7614.7795,-151.8549 7618.2795,-161.855 7621.7795,-151.855 7614.7795,-151.8549"/>
</g>
<!-- AboutArtistComponent -->
<g id="node15" class="node">
<title>AboutArtistComponent</title>
<polygon fill="#ffffb3" stroke="#000000" points="2344.2134,-198 2195.7866,-198 2195.7866,-162 2344.2134,-162 2344.2134,-198"/>
<text text-anchor="middle" x="2270" y="-175.8" font-family="Times,serif" font-size="14.00" fill="#000000">AboutArtistComponent</text>
</g>
<!-- AboutArtistComponent&#45;&gt;ArtistModule -->
<g id="edge13" class="edge">
<title>AboutArtistComponent&#45;&gt;ArtistModule</title>
<path fill="none" stroke="#000000" d="M2270,-198.0267C2270,-218.7672 2270,-250 2270,-250 2270,-250 2163.9894,-250 2163.9894,-250"/>
<polygon fill="#000000" stroke="#000000" points="2163.9894,-246.5001 2153.9894,-250 2163.9893,-253.5001 2163.9894,-246.5001"/>
</g>
<!-- ArtistCardComponent -->
<g id="node16" class="node">
<title>ArtistCardComponent</title>
<polygon fill="#ffffb3" stroke="#000000" points="2178.4285,-198 2037.5715,-198 2037.5715,-162 2178.4285,-162 2178.4285,-198"/>
<text text-anchor="middle" x="2108" y="-175.8" font-family="Times,serif" font-size="14.00" fill="#000000">ArtistCardComponent</text>
</g>
<!-- ArtistCardComponent&#45;&gt;ArtistModule -->
<g id="edge14" class="edge">
<title>ArtistCardComponent&#45;&gt;ArtistModule</title>
<path fill="none" stroke="#000000" d="M2108,-198.1061C2108,-198.1061 2108,-216.991 2108,-216.991"/>
<polygon fill="#000000" stroke="#000000" points="2104.5001,-216.9909 2108,-226.991 2111.5001,-216.991 2104.5001,-216.9909"/>
</g>
<!-- ArtistComponent -->
<g id="node17" class="node">
<title>ArtistComponent</title>
<polygon fill="#ffffb3" stroke="#000000" points="2019.7162,-198 1906.2838,-198 1906.2838,-162 2019.7162,-162 2019.7162,-198"/>
<text text-anchor="middle" x="1963" y="-175.8" font-family="Times,serif" font-size="14.00" fill="#000000">ArtistComponent</text>
</g>
<!-- ArtistComponent&#45;&gt;ArtistModule -->
<g id="edge15" class="edge">
<title>ArtistComponent&#45;&gt;ArtistModule</title>
<path fill="none" stroke="#000000" d="M1963,-198.1061C1963,-217.3391 1963,-245 1963,-245 1963,-245 2052.1211,-245 2052.1211,-245"/>
<polygon fill="#000000" stroke="#000000" points="2052.1211,-248.5001 2062.1211,-245 2052.1211,-241.5001 2052.1211,-248.5001"/>
</g>
<!-- ArtistHeaderComponent -->
<g id="node18" class="node">
<title>ArtistHeaderComponent</title>
<polygon fill="#ffffb3" stroke="#000000" points="1888.6275,-198 1735.3725,-198 1735.3725,-162 1888.6275,-162 1888.6275,-198"/>
<text text-anchor="middle" x="1812" y="-175.8" font-family="Times,serif" font-size="14.00" fill="#000000">ArtistHeaderComponent</text>
</g>
<!-- ArtistHeaderComponent&#45;&gt;ArtistModule -->
<g id="edge16" class="edge">
<title>ArtistHeaderComponent&#45;&gt;ArtistModule</title>
<path fill="none" stroke="#000000" d="M1812,-198.0267C1812,-218.7672 1812,-250 1812,-250 1812,-250 2052.0748,-250 2052.0748,-250"/>
<polygon fill="#000000" stroke="#000000" points="2052.0748,-253.5001 2062.0748,-250 2052.0747,-246.5001 2052.0748,-253.5001"/>
</g>
<!-- ArtistOverviewComponent -->
<g id="node19" class="node">
<title>ArtistOverviewComponent</title>
<polygon fill="#ffffb3" stroke="#000000" points="2870.4101,-198 2701.5899,-198 2701.5899,-162 2870.4101,-162 2870.4101,-198"/>
<text text-anchor="middle" x="2786" y="-175.8" font-family="Times,serif" font-size="14.00" fill="#000000">ArtistOverviewComponent</text>
</g>
<!-- ArtistOverviewComponent&#45;&gt;ArtistModule -->
<g id="edge17" class="edge">
<title>ArtistOverviewComponent&#45;&gt;ArtistModule</title>
<path fill="none" stroke="#000000" d="M2786,-198.1532C2786,-221.7566 2786,-260 2786,-260 2786,-260 2163.8031,-260 2163.8031,-260"/>
<polygon fill="#000000" stroke="#000000" points="2163.8032,-256.5001 2153.8031,-260 2163.8031,-263.5001 2163.8032,-256.5001"/>
</g>
<!-- ArtistSongComponent -->
<g id="node20" class="node">
<title>ArtistSongComponent</title>
<polygon fill="#ffffb3" stroke="#000000" points="2683.9986,-198 2542.0014,-198 2542.0014,-162 2683.9986,-162 2683.9986,-198"/>
<text text-anchor="middle" x="2613" y="-175.8" font-family="Times,serif" font-size="14.00" fill="#000000">ArtistSongComponent</text>
</g>
<!-- ArtistSongComponent&#45;&gt;ArtistModule -->
<g id="edge18" class="edge">
<title>ArtistSongComponent&#45;&gt;ArtistModule</title>
<path fill="none" stroke="#000000" d="M2613,-198.2479C2613,-221.0179 2613,-257 2613,-257 2613,-257 2164.1541,-257 2164.1541,-257"/>
<polygon fill="#000000" stroke="#000000" points="2164.1542,-253.5001 2154.1541,-257 2164.1541,-260.5001 2164.1542,-253.5001"/>
</g>
<!-- RelatedArtistsComponent -->
<g id="node21" class="node">
<title>RelatedArtistsComponent</title>
<polygon fill="#ffffb3" stroke="#000000" points="2523.9228,-198 2362.0772,-198 2362.0772,-162 2523.9228,-162 2523.9228,-198"/>
<text text-anchor="middle" x="2443" y="-175.8" font-family="Times,serif" font-size="14.00" fill="#000000">RelatedArtistsComponent</text>
</g>
<!-- RelatedArtistsComponent&#45;&gt;ArtistModule -->
<g id="edge19" class="edge">
<title>RelatedArtistsComponent&#45;&gt;ArtistModule</title>
<path fill="none" stroke="#000000" d="M2443,-198.2921C2443,-220.2057 2443,-254 2443,-254 2443,-254 2163.8779,-254 2163.8779,-254"/>
<polygon fill="#000000" stroke="#000000" points="2163.8779,-250.5001 2153.8779,-254 2163.8779,-257.5001 2163.8779,-250.5001"/>
</g>
<!-- ArtistRoutingModule -->
<g id="node23" class="node">
<title>ArtistRoutingModule</title>
<polygon fill="#8dd3c7" stroke="#000000" points="1711.0519,-198 1708.0519,-202 1687.0519,-202 1684.0519,-198 1574.9481,-198 1574.9481,-162 1711.0519,-162 1711.0519,-198"/>
<text text-anchor="middle" x="1643" y="-175.8" font-family="Times,serif" font-size="14.00" fill="#000000">ArtistRoutingModule</text>
</g>
<!-- ArtistRoutingModule&#45;&gt;ArtistModule -->
<g id="edge20" class="edge">
<title>ArtistRoutingModule&#45;&gt;ArtistModule</title>
<path fill="none" stroke="#000000" d="M1643,-198.2921C1643,-220.2057 1643,-254 1643,-254 1643,-254 2052.1414,-254 2052.1414,-254"/>
<polygon fill="#000000" stroke="#000000" points="2052.1415,-257.5001 2062.1414,-254 2052.1414,-250.5001 2052.1415,-257.5001"/>
</g>
<!-- AlbumsComponent -->
<g id="node24" class="node">
<title>AlbumsComponent</title>
<polygon fill="#ffffb3" stroke="#000000" points="3614.6652,-198 3489.3348,-198 3489.3348,-162 3614.6652,-162 3614.6652,-198"/>
<text text-anchor="middle" x="3552" y="-175.8" font-family="Times,serif" font-size="14.00" fill="#000000">AlbumsComponent</text>
</g>
<!-- AlbumsComponent&#45;&gt;MayestroModule -->
<g id="edge22" class="edge">
<title>AlbumsComponent&#45;&gt;MayestroModule</title>
<path fill="none" stroke="#000000" d="M3552,-198.2819C3552,-213.9478 3552,-234 3552,-234 3552,-234 3863.4096,-234 3863.4096,-234"/>
<polygon fill="#000000" stroke="#000000" points="3863.4096,-237.5001 3873.4096,-234 3863.4095,-230.5001 3863.4096,-237.5001"/>
</g>
<!-- ArtistsComponent -->
<g id="node25" class="node">
<title>ArtistsComponent</title>
<polygon fill="#ffffb3" stroke="#000000" points="3471.1611,-198 3352.8389,-198 3352.8389,-162 3471.1611,-162 3471.1611,-198"/>
<text text-anchor="middle" x="3412" y="-175.8" font-family="Times,serif" font-size="14.00" fill="#000000">ArtistsComponent</text>
</g>
<!-- ArtistsComponent&#45;&gt;MayestroModule -->
<g id="edge23" class="edge">
<title>ArtistsComponent&#45;&gt;MayestroModule</title>
<path fill="none" stroke="#000000" d="M3412,-198.0352C3412,-214.7344 3412,-237 3412,-237 3412,-237 3863.5788,-237 3863.5788,-237"/>
<polygon fill="#000000" stroke="#000000" points="3863.5789,-240.5001 3873.5788,-237 3863.5788,-233.5001 3863.5789,-240.5001"/>
</g>
<!-- CardComponent -->
<g id="node26" class="node">
<title>CardComponent</title>
<polygon fill="#ffffb3" stroke="#000000" points="3334.0452,-198 3225.9548,-198 3225.9548,-162 3334.0452,-162 3334.0452,-198"/>
<text text-anchor="middle" x="3280" y="-175.8" font-family="Times,serif" font-size="14.00" fill="#000000">CardComponent</text>
</g>
<!-- CardComponent&#45;&gt;MayestroModule -->
<g id="edge24" class="edge">
<title>CardComponent&#45;&gt;MayestroModule</title>
<path fill="none" stroke="#000000" d="M3280,-198.302C3280,-216.2699 3280,-241 3280,-241 3280,-241 3863.7366,-241 3863.7366,-241"/>
<polygon fill="#000000" stroke="#000000" points="3863.7366,-244.5001 3873.7366,-241 3863.7366,-237.5001 3863.7366,-244.5001"/>
</g>
<!-- HomeComponent -->
<g id="node27" class="node">
<title>HomeComponent</title>
<polygon fill="#ffffb3" stroke="#000000" points="3207.5451,-198 3092.4549,-198 3092.4549,-162 3207.5451,-162 3207.5451,-198"/>
<text text-anchor="middle" x="3150" y="-175.8" font-family="Times,serif" font-size="14.00" fill="#000000">HomeComponent</text>
</g>
<!-- HomeComponent&#45;&gt;MayestroModule -->
<g id="edge25" class="edge">
<title>HomeComponent&#45;&gt;MayestroModule</title>
<path fill="none" stroke="#000000" d="M3150,-198.1686C3150,-217.0898 3150,-244 3150,-244 3150,-244 3863.5905,-244 3863.5905,-244"/>
<polygon fill="#000000" stroke="#000000" points="3863.5906,-247.5001 3873.5905,-244 3863.5905,-240.5001 3863.5906,-247.5001"/>
</g>
<!-- MayestroComponent -->
<g id="node28" class="node">
<title>MayestroComponent</title>
<polygon fill="#ffffb3" stroke="#000000" points="5133.2022,-198 4998.7978,-198 4998.7978,-162 5133.2022,-162 5133.2022,-198"/>
<text text-anchor="middle" x="5066" y="-175.8" font-family="Times,serif" font-size="14.00" fill="#000000">MayestroComponent</text>
</g>
<!-- MayestroComponent&#45;&gt;MayestroModule -->
<g id="edge26" class="edge">
<title>MayestroComponent&#45;&gt;MayestroModule</title>
<path fill="none" stroke="#000000" d="M5066,-198.1061C5066,-217.3391 5066,-245 5066,-245 5066,-245 3996.3344,-245 3996.3344,-245"/>
<polygon fill="#000000" stroke="#000000" points="3996.3345,-241.5001 3986.3344,-245 3996.3344,-248.5001 3996.3345,-241.5001"/>
</g>
<!-- MiniCardViewerComponent -->
<g id="node29" class="node">
<title>MiniCardViewerComponent</title>
<polygon fill="#ffffb3" stroke="#000000" points="4980.4636,-198 4803.5364,-198 4803.5364,-162 4980.4636,-162 4980.4636,-198"/>
<text text-anchor="middle" x="4892" y="-175.8" font-family="Times,serif" font-size="14.00" fill="#000000">MiniCardViewerComponent</text>
</g>
<!-- MiniCardViewerComponent&#45;&gt;MayestroModule -->
<g id="edge27" class="edge">
<title>MiniCardViewerComponent&#45;&gt;MayestroModule</title>
<path fill="none" stroke="#000000" d="M4892,-198.2222C4892,-216.8285 4892,-243 4892,-243 4892,-243 3996.2322,-243 3996.2322,-243"/>
<polygon fill="#000000" stroke="#000000" points="3996.2322,-239.5001 3986.2322,-243 3996.2321,-246.5001 3996.2322,-239.5001"/>
</g>
<!-- PlayerComponent -->
<g id="node30" class="node">
<title>PlayerComponent</title>
<polygon fill="#ffffb3" stroke="#000000" points="4785.5954,-198 4668.4046,-198 4668.4046,-162 4785.5954,-162 4785.5954,-198"/>
<text text-anchor="middle" x="4727" y="-175.8" font-family="Times,serif" font-size="14.00" fill="#000000">PlayerComponent</text>
</g>
<!-- PlayerComponent&#45;&gt;MayestroModule -->
<g id="edge28" class="edge">
<title>PlayerComponent&#45;&gt;MayestroModule</title>
<path fill="none" stroke="#000000" d="M4727,-198.002C4727,-215.6754 4727,-240 4727,-240 4727,-240 3996.361,-240 3996.361,-240"/>
<polygon fill="#000000" stroke="#000000" points="3996.3611,-236.5001 3986.361,-240 3996.361,-243.5001 3996.3611,-236.5001"/>
</g>
<!-- PlaylistComponent -->
<g id="node31" class="node">
<title>PlaylistComponent</title>
<polygon fill="#ffffb3" stroke="#000000" points="4650.8371,-198 4527.1629,-198 4527.1629,-162 4650.8371,-162 4650.8371,-198"/>
<text text-anchor="middle" x="4589" y="-175.8" font-family="Times,serif" font-size="14.00" fill="#000000">PlaylistComponent</text>
</g>
<!-- PlaylistComponent&#45;&gt;MayestroModule -->
<g id="edge29" class="edge">
<title>PlaylistComponent&#45;&gt;MayestroModule</title>
<path fill="none" stroke="#000000" d="M4589,-198.0336C4589,-215.0597 4589,-238 4589,-238 4589,-238 3996.4709,-238 3996.4709,-238"/>
<polygon fill="#000000" stroke="#000000" points="3996.4709,-234.5001 3986.4709,-238 3996.4708,-241.5001 3996.4709,-234.5001"/>
</g>
<!-- PlaylistsComponent -->
<g id="node32" class="node">
<title>PlaylistsComponent</title>
<polygon fill="#ffffb3" stroke="#000000" points="4509.2814,-198 4380.7186,-198 4380.7186,-162 4509.2814,-162 4509.2814,-198"/>
<text text-anchor="middle" x="4445" y="-175.8" font-family="Times,serif" font-size="14.00" fill="#000000">PlaylistsComponent</text>
</g>
<!-- PlaylistsComponent&#45;&gt;MayestroModule -->
<g id="edge30" class="edge">
<title>PlaylistsComponent&#45;&gt;MayestroModule</title>
<path fill="none" stroke="#000000" d="M4445,-198.0091C4445,-214.0494 4445,-235 4445,-235 4445,-235 3996.5872,-235 3996.5872,-235"/>
<polygon fill="#000000" stroke="#000000" points="3996.5872,-231.5001 3986.5872,-235 3996.5872,-238.5001 3996.5872,-231.5001"/>
</g>
<!-- SearchCardComponent -->
<g id="node33" class="node">
<title>SearchCardComponent</title>
<polygon fill="#ffffb3" stroke="#000000" points="4362.1317,-198 4215.8683,-198 4215.8683,-162 4362.1317,-162 4362.1317,-198"/>
<text text-anchor="middle" x="4289" y="-175.8" font-family="Times,serif" font-size="14.00" fill="#000000">SearchCardComponent</text>
</g>
<!-- SearchCardComponent&#45;&gt;MayestroModule -->
<g id="edge31" class="edge">
<title>SearchCardComponent&#45;&gt;MayestroModule</title>
<path fill="none" stroke="#000000" d="M4289,-198.2396C4289,-213.5706 4289,-233 4289,-233 4289,-233 3996.4887,-233 3996.4887,-233"/>
<polygon fill="#000000" stroke="#000000" points="3996.4887,-229.5001 3986.4887,-233 3996.4886,-236.5001 3996.4887,-229.5001"/>
</g>
<!-- SearchComponent -->
<g id="node34" class="node">
<title>SearchComponent</title>
<polygon fill="#ffffb3" stroke="#000000" points="4197.9201,-198 4078.0799,-198 4078.0799,-162 4197.9201,-162 4197.9201,-198"/>
<text text-anchor="middle" x="4138" y="-175.8" font-family="Times,serif" font-size="14.00" fill="#000000">SearchComponent</text>
</g>
<!-- SearchComponent&#45;&gt;MayestroModule -->
<g id="edge32" class="edge">
<title>SearchComponent&#45;&gt;MayestroModule</title>
<path fill="none" stroke="#000000" d="M4138,-198.0511C4138,-212.373 4138,-230 4138,-230 4138,-230 3996.2878,-230 3996.2878,-230"/>
<polygon fill="#000000" stroke="#000000" points="3996.2878,-226.5001 3986.2878,-230 3996.2878,-233.5001 3996.2878,-226.5001"/>
</g>
<!-- SeeAllComponent -->
<g id="node35" class="node">
<title>SeeAllComponent</title>
<polygon fill="#ffffb3" stroke="#000000" points="4060.9328,-198 3941.0672,-198 3941.0672,-162 4060.9328,-162 4060.9328,-198"/>
<text text-anchor="middle" x="4001" y="-175.8" font-family="Times,serif" font-size="14.00" fill="#000000">SeeAllComponent</text>
</g>
<!-- SeeAllComponent&#45;&gt;MayestroModule -->
<g id="edge33" class="edge">
<title>SeeAllComponent&#45;&gt;MayestroModule</title>
<path fill="none" stroke="#000000" d="M3963.7469,-198.1061C3963.7469,-198.1061 3963.7469,-216.991 3963.7469,-216.991"/>
<polygon fill="#000000" stroke="#000000" points="3960.2469,-216.9909 3963.7469,-226.991 3967.2469,-216.991 3960.2469,-216.9909"/>
</g>
<!-- SideBarComponent -->
<g id="node36" class="node">
<title>SideBarComponent</title>
<polygon fill="#ffffb3" stroke="#000000" points="3923.4327,-198 3796.5673,-198 3796.5673,-162 3923.4327,-162 3923.4327,-198"/>
<text text-anchor="middle" x="3860" y="-175.8" font-family="Times,serif" font-size="14.00" fill="#000000">SideBarComponent</text>
</g>
<!-- SideBarComponent&#45;&gt;MayestroModule -->
<g id="edge34" class="edge">
<title>SideBarComponent&#45;&gt;MayestroModule</title>
<path fill="none" stroke="#000000" d="M3906.7408,-198.1061C3906.7408,-198.1061 3906.7408,-216.991 3906.7408,-216.991"/>
<polygon fill="#000000" stroke="#000000" points="3903.2409,-216.9909 3906.7408,-226.991 3910.2409,-216.991 3903.2409,-216.9909"/>
</g>
<!-- UserProfileComponent -->
<g id="node37" class="node">
<title>UserProfileComponent</title>
<polygon fill="#ffffb3" stroke="#000000" points="3778.8585,-198 3633.1415,-198 3633.1415,-162 3778.8585,-162 3778.8585,-198"/>
<text text-anchor="middle" x="3706" y="-175.8" font-family="Times,serif" font-size="14.00" fill="#000000">UserProfileComponent</text>
</g>
<!-- UserProfileComponent&#45;&gt;MayestroModule -->
<g id="edge35" class="edge">
<title>UserProfileComponent&#45;&gt;MayestroModule</title>
<path fill="none" stroke="#000000" d="M3706,-198.1243C3706,-212.7832 3706,-231 3706,-231 3706,-231 3863.7645,-231 3863.7645,-231"/>
<polygon fill="#000000" stroke="#000000" points="3863.7645,-234.5001 3873.7645,-231 3863.7644,-227.5001 3863.7645,-234.5001"/>
</g>
<!-- MayestroRoutingModule -->
<g id="node39" class="node">
<title>MayestroRoutingModule</title>
<polygon fill="#8dd3c7" stroke="#000000" points="3067.5379,-198 3064.5379,-202 3043.5379,-202 3040.5379,-198 2910.4621,-198 2910.4621,-162 3067.5379,-162 3067.5379,-198"/>
<text text-anchor="middle" x="2989" y="-175.8" font-family="Times,serif" font-size="14.00" fill="#000000">MayestroRoutingModule</text>
</g>
<!-- MayestroRoutingModule&#45;&gt;MayestroModule -->
<g id="edge36" class="edge">
<title>MayestroRoutingModule&#45;&gt;MayestroModule</title>
<path fill="none" stroke="#000000" d="M2989,-198.308C2989,-218.1455 2989,-247 2989,-247 2989,-247 3863.6053,-247 3863.6053,-247"/>
<polygon fill="#000000" stroke="#000000" points="3863.6053,-250.5001 3873.6053,-247 3863.6052,-243.5001 3863.6053,-250.5001"/>
</g>
<!-- ChangePlanComponent -->
<g id="node40" class="node">
<title>ChangePlanComponent</title>
<polygon fill="#ffffb3" stroke="#000000" points="5809.486,-198 5660.514,-198 5660.514,-162 5809.486,-162 5809.486,-198"/>
<text text-anchor="middle" x="5735" y="-175.8" font-family="Times,serif" font-size="14.00" fill="#000000">ChangePlanComponent</text>
</g>
<!-- ChangePlanComponent&#45;&gt;OpenMayestroModule -->
<g id="edge38" class="edge">
<title>ChangePlanComponent&#45;&gt;OpenMayestroModule</title>
<path fill="none" stroke="#000000" d="M5735,-198.0449C5735,-219.6623 5735,-253 5735,-253 5735,-253 6115.5724,-253 6115.5724,-253"/>
<polygon fill="#000000" stroke="#000000" points="6115.5724,-256.5001 6125.5724,-253 6115.5723,-249.5001 6115.5724,-256.5001"/>
</g>
<!-- FooterComponent -->
<g id="node41" class="node">
<title>FooterComponent</title>
<polygon fill="#ffffb3" stroke="#000000" points="5642.8809,-198 5525.1191,-198 5525.1191,-162 5642.8809,-162 5642.8809,-198"/>
<text text-anchor="middle" x="5584" y="-175.8" font-family="Times,serif" font-size="14.00" fill="#000000">FooterComponent</text>
</g>
<!-- FooterComponent&#45;&gt;OpenMayestroModule -->
<g id="edge39" class="edge">
<title>FooterComponent&#45;&gt;OpenMayestroModule</title>
<path fill="none" stroke="#000000" d="M5584,-198.0109C5584,-220.4852 5584,-256 5584,-256 5584,-256 6115.4814,-256 6115.4814,-256"/>
<polygon fill="#000000" stroke="#000000" points="6115.4814,-259.5001 6125.4814,-256 6115.4814,-252.5001 6115.4814,-259.5001"/>
</g>
<!-- GetPremiumComponent -->
<g id="node42" class="node">
<title>GetPremiumComponent</title>
<polygon fill="#ffffb3" stroke="#000000" points="7468.3739,-198 7315.6261,-198 7315.6261,-162 7468.3739,-162 7468.3739,-198"/>
<text text-anchor="middle" x="7392" y="-175.8" font-family="Times,serif" font-size="14.00" fill="#000000">GetPremiumComponent</text>
</g>
<!-- GetPremiumComponent&#45;&gt;OpenMayestroModule -->
<g id="edge40" class="edge">
<title>GetPremiumComponent&#45;&gt;OpenMayestroModule</title>
<path fill="none" stroke="#000000" d="M7392,-198.3228C7392,-221.6602 7392,-259 7392,-259 7392,-259 6278.6171,-259 6278.6171,-259"/>
<polygon fill="#000000" stroke="#000000" points="6278.6172,-255.5001 6268.6171,-259 6278.6171,-262.5001 6278.6172,-255.5001"/>
</g>
<!-- GetPremiumHeaderComponent -->
<g id="node43" class="node">
<title>GetPremiumHeaderComponent</title>
<polygon fill="#ffffb3" stroke="#000000" points="7297.785,-198 7104.215,-198 7104.215,-162 7297.785,-162 7297.785,-198"/>
<text text-anchor="middle" x="7201" y="-175.8" font-family="Times,serif" font-size="14.00" fill="#000000">GetPremiumHeaderComponent</text>
</g>
<!-- GetPremiumHeaderComponent&#45;&gt;OpenMayestroModule -->
<g id="edge41" class="edge">
<title>GetPremiumHeaderComponent&#45;&gt;OpenMayestroModule</title>
<path fill="none" stroke="#000000" d="M7201,-198.2921C7201,-220.2057 7201,-254 7201,-254 7201,-254 6278.4003,-254 6278.4003,-254"/>
<polygon fill="#000000" stroke="#000000" points="6278.4004,-250.5001 6268.4003,-254 6278.4003,-257.5001 6278.4004,-250.5001"/>
</g>
<!-- NotificationComponent -->
<g id="node44" class="node">
<title>NotificationComponent</title>
<polygon fill="#ffffb3" stroke="#000000" points="7086.4818,-198 6937.5182,-198 6937.5182,-162 7086.4818,-162 7086.4818,-198"/>
<text text-anchor="middle" x="7012" y="-175.8" font-family="Times,serif" font-size="14.00" fill="#000000">NotificationComponent</text>
</g>
<!-- NotificationComponent&#45;&gt;OpenMayestroModule -->
<g id="edge42" class="edge">
<title>NotificationComponent&#45;&gt;OpenMayestroModule</title>
<path fill="none" stroke="#000000" d="M7012,-198.0267C7012,-218.7672 7012,-250 7012,-250 7012,-250 6278.2555,-250 6278.2555,-250"/>
<polygon fill="#000000" stroke="#000000" points="6278.2555,-246.5001 6268.2555,-250 6278.2554,-253.5001 6278.2555,-246.5001"/>
</g>
<!-- OpenMayestroComponent -->
<g id="node45" class="node">
<title>OpenMayestroComponent</title>
<polygon fill="#ffffb3" stroke="#000000" points="6919.0239,-198 6754.9761,-198 6754.9761,-162 6919.0239,-162 6919.0239,-198"/>
<text text-anchor="middle" x="6837" y="-175.8" font-family="Times,serif" font-size="14.00" fill="#000000">OpenMayestroComponent</text>
</g>
<!-- OpenMayestroComponent&#45;&gt;OpenMayestroModule -->
<g id="edge43" class="edge">
<title>OpenMayestroComponent&#45;&gt;OpenMayestroModule</title>
<path fill="none" stroke="#000000" d="M6837,-198.1061C6837,-217.3391 6837,-245 6837,-245 6837,-245 6278.2446,-245 6278.2446,-245"/>
<polygon fill="#000000" stroke="#000000" points="6278.2446,-241.5001 6268.2446,-245 6278.2446,-248.5001 6278.2446,-241.5001"/>
</g>
<!-- OverviewComponent -->
<g id="node46" class="node">
<title>OverviewComponent</title>
<polygon fill="#ffffb3" stroke="#000000" points="6736.0268,-198 6599.9732,-198 6599.9732,-162 6736.0268,-162 6736.0268,-198"/>
<text text-anchor="middle" x="6668" y="-175.8" font-family="Times,serif" font-size="14.00" fill="#000000">OverviewComponent</text>
</g>
<!-- OverviewComponent&#45;&gt;OpenMayestroModule -->
<g id="edge44" class="edge">
<title>OverviewComponent&#45;&gt;OpenMayestroModule</title>
<path fill="none" stroke="#000000" d="M6668,-198.302C6668,-216.2699 6668,-241 6668,-241 6668,-241 6278.2789,-241 6278.2789,-241"/>
<polygon fill="#000000" stroke="#000000" points="6278.279,-237.5001 6268.2789,-241 6278.2789,-244.5001 6278.279,-237.5001"/>
</g>
<!-- PremiumComponent -->
<g id="node47" class="node">
<title>PremiumComponent</title>
<polygon fill="#ffffb3" stroke="#000000" points="6581.1624,-198 6448.8376,-198 6448.8376,-162 6581.1624,-162 6581.1624,-198"/>
<text text-anchor="middle" x="6515" y="-175.8" font-family="Times,serif" font-size="14.00" fill="#000000">PremiumComponent</text>
</g>
<!-- PremiumComponent&#45;&gt;OpenMayestroModule -->
<g id="edge45" class="edge">
<title>PremiumComponent&#45;&gt;OpenMayestroModule</title>
<path fill="none" stroke="#000000" d="M6515,-198.027C6515,-214.3976 6515,-236 6515,-236 6515,-236 6278.3654,-236 6278.3654,-236"/>
<polygon fill="#000000" stroke="#000000" points="6278.3654,-232.5001 6268.3654,-236 6278.3654,-239.5001 6278.3654,-232.5001"/>
</g>
<!-- ProfileComponent -->
<g id="node48" class="node">
<title>ProfileComponent</title>
<polygon fill="#ffffb3" stroke="#000000" points="6430.9328,-198 6311.0672,-198 6311.0672,-162 6430.9328,-162 6430.9328,-198"/>
<text text-anchor="middle" x="6371" y="-175.8" font-family="Times,serif" font-size="14.00" fill="#000000">ProfileComponent</text>
</g>
<!-- ProfileComponent&#45;&gt;OpenMayestroModule -->
<g id="edge46" class="edge">
<title>ProfileComponent&#45;&gt;OpenMayestroModule</title>
<path fill="none" stroke="#000000" d="M6371,-198.1871C6371,-213.1824 6371,-232 6371,-232 6371,-232 6278.2745,-232 6278.2745,-232"/>
<polygon fill="#000000" stroke="#000000" points="6278.2745,-228.5001 6268.2745,-232 6278.2745,-235.5001 6278.2745,-228.5001"/>
</g>
<!-- SetDevicePasswordComponent -->
<g id="node49" class="node">
<title>SetDevicePasswordComponent</title>
<polygon fill="#ffffb3" stroke="#000000" points="6293.0154,-198 6100.9846,-198 6100.9846,-162 6293.0154,-162 6293.0154,-198"/>
<text text-anchor="middle" x="6197" y="-175.8" font-family="Times,serif" font-size="14.00" fill="#000000">SetDevicePasswordComponent</text>
</g>
<!-- SetDevicePasswordComponent&#45;&gt;OpenMayestroModule -->
<g id="edge47" class="edge">
<title>SetDevicePasswordComponent&#45;&gt;OpenMayestroModule</title>
<path fill="none" stroke="#000000" d="M6220.7901,-198.1061C6220.7901,-198.1061 6220.7901,-216.991 6220.7901,-216.991"/>
<polygon fill="#000000" stroke="#000000" points="6217.2902,-216.9909 6220.7901,-226.991 6224.2902,-216.991 6217.2902,-216.9909"/>
</g>
<!-- SidebarComponent -->
<g id="node50" class="node">
<title>SidebarComponent</title>
<polygon fill="#ffffb3" stroke="#000000" points="6083.0954,-198 5958.9046,-198 5958.9046,-162 6083.0954,-162 6083.0954,-198"/>
<text text-anchor="middle" x="6021" y="-175.8" font-family="Times,serif" font-size="14.00" fill="#000000">SidebarComponent</text>
</g>
<!-- SidebarComponent&#45;&gt;OpenMayestroModule -->
<g id="edge48" class="edge">
<title>SidebarComponent&#45;&gt;OpenMayestroModule</title>
<path fill="none" stroke="#000000" d="M6021,-198.2228C6021,-218.3652 6021,-248 6021,-248 6021,-248 6115.6678,-248 6115.6678,-248"/>
<polygon fill="#000000" stroke="#000000" points="6115.6678,-251.5001 6125.6678,-248 6115.6677,-244.5001 6115.6678,-251.5001"/>
</g>
<!-- TrackComponent -->
<g id="node51" class="node">
<title>TrackComponent</title>
<polygon fill="#ffffb3" stroke="#000000" points="5940.9748,-198 5827.0252,-198 5827.0252,-162 5940.9748,-162 5940.9748,-198"/>
<text text-anchor="middle" x="5884" y="-175.8" font-family="Times,serif" font-size="14.00" fill="#000000">TrackComponent</text>
</g>
<!-- TrackComponent&#45;&gt;OpenMayestroModule -->
<g id="edge49" class="edge">
<title>TrackComponent&#45;&gt;OpenMayestroModule</title>
<path fill="none" stroke="#000000" d="M5884,-198.2843C5884,-219.3211 5884,-251 5884,-251 5884,-251 6115.5838,-251 6115.5838,-251"/>
<polygon fill="#000000" stroke="#000000" points="6115.5838,-254.5001 6125.5838,-251 6115.5838,-247.5001 6115.5838,-254.5001"/>
</g>
<!-- OpenMayestroRoutingModule -->
<g id="node53" class="node">
<title>OpenMayestroRoutingModule</title>
<polygon fill="#8dd3c7" stroke="#000000" points="5500.8585,-198 5497.8585,-202 5476.8585,-202 5473.8585,-198 5313.1415,-198 5313.1415,-162 5500.8585,-162 5500.8585,-198"/>
<text text-anchor="middle" x="5407" y="-175.8" font-family="Times,serif" font-size="14.00" fill="#000000">OpenMayestroRoutingModule</text>
</g>
<!-- OpenMayestroRoutingModule&#45;&gt;OpenMayestroModule -->
<g id="edge50" class="edge">
<title>OpenMayestroRoutingModule&#45;&gt;OpenMayestroModule</title>
<path fill="none" stroke="#000000" d="M5407,-198.0908C5407,-221.1328 5407,-258 5407,-258 5407,-258 6115.4994,-258 6115.4994,-258"/>
<polygon fill="#000000" stroke="#000000" points="6115.4995,-261.5001 6125.4994,-258 6115.4994,-254.5001 6115.4995,-261.5001"/>
</g>
<!-- UserService -->
<g id="node54" class="node">
<title>UserService</title>
<ellipse fill="#fdb462" stroke="#000000" cx="5231" cy="-180" rx="58.4415" ry="18"/>
<text text-anchor="middle" x="5231" y="-175.8" font-family="Times,serif" font-size="14.00" fill="#000000">UserService</text>
</g>
<!-- UserService&#45;&gt;OpenMayestroModule -->
<g id="edge52" class="edge">
<title>UserService&#45;&gt;OpenMayestroModule</title>
<path fill="none" stroke="#000000" d="M5231,-198.3802C5231,-222.2785 5231,-261 5231,-261 5231,-261 6115.5754,-261 6115.5754,-261"/>
<polygon fill="#000000" stroke="#000000" points="6115.5755,-264.5001 6125.5754,-261 6115.5754,-257.5001 6115.5755,-264.5001"/>
</g>
<!-- HomeArtistCardComponent -->
<g id="node55" class="node">
<title>HomeArtistCardComponent</title>
<polygon fill="#ffffb3" stroke="#000000" points="1747.14,-122 1572.86,-122 1572.86,-86 1747.14,-86 1747.14,-122"/>
<text text-anchor="middle" x="1660" y="-99.8" font-family="Times,serif" font-size="14.00" fill="#000000">HomeArtistCardComponent</text>
</g>
<!-- HomeArtistCardComponent&#45;&gt;SharedModule -->
<g id="edge53" class="edge">
<title>HomeArtistCardComponent&#45;&gt;SharedModule</title>
<path fill="none" stroke="#000000" d="M1572.7397,-104C1567.2478,-104 1563.8682,-104 1563.8682,-104 1563.8682,-104 1563.8682,-180 1563.8682,-180 1563.8682,-180 1545.3151,-180 1545.3151,-180"/>
<polygon fill="#000000" stroke="#000000" points="1545.3151,-176.5001 1535.3151,-180 1545.315,-183.5001 1545.3151,-176.5001"/>
</g>
<!-- NotFoundComponent -->
<g id="node56" class="node">
<title>NotFoundComponent</title>
<polygon fill="#ffffb3" stroke="#000000" points="1555.1122,-122 1416.8878,-122 1416.8878,-86 1555.1122,-86 1555.1122,-122"/>
<text text-anchor="middle" x="1486" y="-99.8" font-family="Times,serif" font-size="14.00" fill="#000000">NotFoundComponent</text>
</g>
<!-- NotFoundComponent&#45;&gt;SharedModule -->
<g id="edge54" class="edge">
<title>NotFoundComponent&#45;&gt;SharedModule</title>
<path fill="none" stroke="#000000" d="M1502.4037,-122.0109C1502.4037,-122.0109 1502.4037,-151.855 1502.4037,-151.855"/>
<polygon fill="#000000" stroke="#000000" points="1498.9038,-151.8549 1502.4037,-161.855 1505.9038,-151.855 1498.9038,-151.8549"/>
</g>
</g>
</svg>
