<?xml version="1.0" encoding="UTF-8" standalone="no"?>
<!DOCTYPE svg PUBLIC "-//W3C//DTD SVG 1.1//EN"
 "http://www.w3.org/Graphics/SVG/1.1/DTD/svg11.dtd">
<!-- Generated by graphviz version 2.40.1 (20161225.0304)
 -->
<!-- Title: dependencies Pages: 1 -->
<svg width="3509pt" height="284pt"
 viewBox="0.00 0.00 3509.00 284.00" xmlns="http://www.w3.org/2000/svg" xmlns:xlink="http://www.w3.org/1999/xlink">
<g id="graph0" class="graph" transform="scale(1 1) rotate(0) translate(4 280)">
<title>dependencies</title>
<polygon fill="#ffffff" stroke="transparent" points="-4,4 -4,-280 3505,-280 3505,4 -4,4"/>
<text text-anchor="start" x="1729.5091" y="-42.4" font-family="sans-serif" font-weight="bold" font-size="14.00" fill="#000000">Legend</text>
<polygon fill="#ffffb3" stroke="transparent" points="1516.5,-10 1516.5,-30 1536.5,-30 1536.5,-10 1516.5,-10"/>
<text text-anchor="start" x="1540.129" y="-15.4" font-family="sans-serif" font-size="14.00" fill="#000000"> &#160;Declarations</text>
<polygon fill="#8dd3c7" stroke="transparent" points="1629.5,-10 1629.5,-30 1649.5,-30 1649.5,-10 1629.5,-10"/>
<text text-anchor="start" x="1653.2251" y="-15.4" font-family="sans-serif" font-size="14.00" fill="#000000"> &#160;Module</text>
<polygon fill="#80b1d3" stroke="transparent" points="1715.5,-10 1715.5,-30 1735.5,-30 1735.5,-10 1715.5,-10"/>
<text text-anchor="start" x="1739.2812" y="-15.4" font-family="sans-serif" font-size="14.00" fill="#000000"> &#160;Bootstrap</text>
<polygon fill="#fdb462" stroke="transparent" points="1812.5,-10 1812.5,-30 1832.5,-30 1832.5,-10 1812.5,-10"/>
<text text-anchor="start" x="1836.1732" y="-15.4" font-family="sans-serif" font-size="14.00" fill="#000000"> &#160;Providers</text>
<polygon fill="#fb8072" stroke="transparent" points="1908.5,-10 1908.5,-30 1928.5,-30 1928.5,-10 1908.5,-10"/>
<text text-anchor="start" x="1932.2258" y="-15.4" font-family="sans-serif" font-size="14.00" fill="#000000"> &#160;Exports</text>
<g id="clust1" class="cluster">
<title>cluster_AccountMayestroModule</title>
<polygon fill="none" stroke="#000000" stroke-dasharray="1,5" points="8,-70 8,-195 1552,-195 1552,-70 8,-70"/>
</g>
<g id="clust2" class="cluster">
<title>cluster_AccountMayestroModule_declarations</title>
<polygon fill="none" stroke="#000000" points="16,-78 16,-130 1199,-130 1199,-78 16,-78"/>
</g>
<g id="clust10" class="cluster">
<title>cluster_AccountMayestroModule_imports</title>
<polygon fill="none" stroke="#000000" points="1207,-78 1207,-130 1544,-130 1544,-78 1207,-78"/>
</g>
<g id="clust20" class="cluster">
<title>cluster_AppModule</title>
<polygon fill="none" stroke="#000000" stroke-dasharray="1,5" points="3203,-70 3203,-268 3493,-268 3493,-70 3203,-70"/>
</g>
<g id="clust21" class="cluster">
<title>cluster_AppModule_declarations</title>
<polygon fill="none" stroke="#000000" points="3363,-78 3363,-130 3485,-130 3485,-78 3363,-78"/>
</g>
<g id="clust23" class="cluster">
<title>cluster_AppModule_imports</title>
<polygon fill="none" stroke="#000000" points="3211,-78 3211,-130 3355,-130 3355,-78 3211,-78"/>
</g>
<g id="clust25" class="cluster">
<title>cluster_AppModule_bootstrap</title>
<polygon fill="none" stroke="#000000" points="3291,-208 3291,-260 3415,-260 3415,-208 3291,-208"/>
</g>
<g id="clust33" class="cluster">
<title>cluster_MayestroModule</title>
<polygon fill="none" stroke="#000000" stroke-dasharray="1,5" points="1560,-70 1560,-195 2643,-195 2643,-70 1560,-70"/>
</g>
<g id="clust34" class="cluster">
<title>cluster_MayestroModule_declarations</title>
<polygon fill="none" stroke="#000000" points="1750,-78 1750,-130 2635,-130 2635,-78 1750,-78"/>
</g>
<g id="clust41" class="cluster">
<title>cluster_MayestroModule_imports</title>
<polygon fill="none" stroke="#000000" points="1568,-78 1568,-130 1742,-130 1742,-78 1568,-78"/>
</g>
<g id="clust51" class="cluster">
<title>cluster_OpenMayestroModule</title>
<polygon fill="none" stroke="#000000" stroke-dasharray="1,5" points="2651,-70 2651,-195 3195,-195 3195,-70 2651,-70"/>
</g>
<g id="clust52" class="cluster">
<title>cluster_OpenMayestroModule_declarations</title>
<polygon fill="none" stroke="#000000" points="2871,-78 2871,-130 3187,-130 3187,-78 2871,-78"/>
</g>
<g id="clust55" class="cluster">
<title>cluster_OpenMayestroModule_imports</title>
<polygon fill="none" stroke="#000000" points="2659,-78 2659,-130 2863,-130 2863,-78 2659,-78"/>
</g>
<!-- AccountMayestroComponent -->
<g id="node1" class="node">
<title>AccountMayestroComponent</title>
<polygon fill="#ffffb3" stroke="#000000" points="1190.6288,-122 1009.3712,-122 1009.3712,-86 1190.6288,-86 1190.6288,-122"/>
<text text-anchor="middle" x="1100" y="-99.8" font-family="Times,serif" font-size="14.00" fill="#000000">AccountMayestroComponent</text>
</g>
<!-- AccountMayestroModule -->
<g id="node8" class="node">
<title>AccountMayestroModule</title>
<polygon fill="#8dd3c7" stroke="#000000" points="788.8459,-187 785.8459,-191 764.8459,-191 761.8459,-187 629.1541,-187 629.1541,-151 788.8459,-151 788.8459,-187"/>
<text text-anchor="middle" x="709" y="-164.8" font-family="Times,serif" font-size="14.00" fill="#000000">AccountMayestroModule</text>
</g>
<!-- AccountMayestroComponent&#45;&gt;AccountMayestroModule -->
<g id="edge1" class="edge">
<title>AccountMayestroComponent&#45;&gt;AccountMayestroModule</title>
<path fill="none" stroke="#000000" d="M1100,-122.0267C1100,-142.7672 1100,-174 1100,-174 1100,-174 799.0682,-174 799.0682,-174"/>
<polygon fill="#000000" stroke="#000000" points="799.0682,-170.5001 789.0682,-174 799.0682,-177.5001 799.0682,-170.5001"/>
</g>
<!-- ChangePasswordComponent -->
<g id="node2" class="node">
<title>ChangePasswordComponent</title>
<polygon fill="#ffffb3" stroke="#000000" points="990.752,-122 813.248,-122 813.248,-86 990.752,-86 990.752,-122"/>
<text text-anchor="middle" x="902" y="-99.8" font-family="Times,serif" font-size="14.00" fill="#000000">ChangePasswordComponent</text>
</g>
<!-- ChangePasswordComponent&#45;&gt;AccountMayestroModule -->
<g id="edge2" class="edge">
<title>ChangePasswordComponent&#45;&gt;AccountMayestroModule</title>
<path fill="none" stroke="#000000" d="M902,-122.1061C902,-141.3391 902,-169 902,-169 902,-169 798.8937,-169 798.8937,-169"/>
<polygon fill="#000000" stroke="#000000" points="798.8937,-165.5001 788.8937,-169 798.8936,-172.5001 798.8937,-165.5001"/>
</g>
<!-- ForgetPasswordComponent -->
<g id="node3" class="node">
<title>ForgetPasswordComponent</title>
<polygon fill="#ffffb3" stroke="#000000" points="794.535,-122 623.465,-122 623.465,-86 794.535,-86 794.535,-122"/>
<text text-anchor="middle" x="709" y="-99.8" font-family="Times,serif" font-size="14.00" fill="#000000">ForgetPasswordComponent</text>
</g>
<!-- ForgetPasswordComponent&#45;&gt;AccountMayestroModule -->
<g id="edge3" class="edge">
<title>ForgetPasswordComponent&#45;&gt;AccountMayestroModule</title>
<path fill="none" stroke="#000000" d="M709,-122.1061C709,-122.1061 709,-140.991 709,-140.991"/>
<polygon fill="#000000" stroke="#000000" points="705.5001,-140.9909 709,-150.991 712.5001,-140.991 705.5001,-140.9909"/>
</g>
<!-- HeaderComponent -->
<g id="node4" class="node">
<title>HeaderComponent</title>
<polygon fill="#ffffb3" stroke="#000000" points="604.7437,-122 483.2563,-122 483.2563,-86 604.7437,-86 604.7437,-122"/>
<text text-anchor="middle" x="544" y="-99.8" font-family="Times,serif" font-size="14.00" fill="#000000">HeaderComponent</text>
</g>
<!-- HeaderComponent&#45;&gt;AccountMayestroModule -->
<g id="edge4" class="edge">
<title>HeaderComponent&#45;&gt;AccountMayestroModule</title>
<path fill="none" stroke="#000000" d="M544,-122.0091C544,-138.0494 544,-159 544,-159 544,-159 618.9167,-159 618.9167,-159"/>
<polygon fill="#000000" stroke="#000000" points="618.9167,-162.5001 628.9167,-159 618.9166,-155.5001 618.9167,-162.5001"/>
</g>
<!-- ResetPasswordComponent -->
<g id="node5" class="node">
<title>ResetPasswordComponent</title>
<polygon fill="#ffffb3" stroke="#000000" points="465.087,-122 298.913,-122 298.913,-86 465.087,-86 465.087,-122"/>
<text text-anchor="middle" x="382" y="-99.8" font-family="Times,serif" font-size="14.00" fill="#000000">ResetPasswordComponent</text>
</g>
<!-- ResetPasswordComponent&#45;&gt;AccountMayestroModule -->
<g id="edge5" class="edge">
<title>ResetPasswordComponent&#45;&gt;AccountMayestroModule</title>
<path fill="none" stroke="#000000" d="M382,-122.2667C382,-140.5552 382,-166 382,-166 382,-166 619.0068,-166 619.0068,-166"/>
<polygon fill="#000000" stroke="#000000" points="619.0068,-169.5001 629.0068,-166 619.0068,-162.5001 619.0068,-169.5001"/>
</g>
<!-- SigninComponent -->
<g id="node6" class="node">
<title>SigninComponent</title>
<polygon fill="#ffffb3" stroke="#000000" points="280.8962,-122 163.1038,-122 163.1038,-86 280.8962,-86 280.8962,-122"/>
<text text-anchor="middle" x="222" y="-99.8" font-family="Times,serif" font-size="14.00" fill="#000000">SigninComponent</text>
</g>
<!-- SigninComponent&#45;&gt;AccountMayestroModule -->
<g id="edge6" class="edge">
<title>SigninComponent&#45;&gt;AccountMayestroModule</title>
<path fill="none" stroke="#000000" d="M222,-122.1289C222,-142.5724 222,-173 222,-173 222,-173 619.1272,-173 619.1272,-173"/>
<polygon fill="#000000" stroke="#000000" points="619.1272,-176.5001 629.1272,-173 619.1272,-169.5001 619.1272,-176.5001"/>
</g>
<!-- SignupComponent -->
<g id="node7" class="node">
<title>SignupComponent</title>
<polygon fill="#ffffb3" stroke="#000000" points="145.5056,-122 24.4944,-122 24.4944,-86 145.5056,-86 145.5056,-122"/>
<text text-anchor="middle" x="85" y="-99.8" font-family="Times,serif" font-size="14.00" fill="#000000">SignupComponent</text>
</g>
<!-- SignupComponent&#45;&gt;AccountMayestroModule -->
<g id="edge7" class="edge">
<title>SignupComponent&#45;&gt;AccountMayestroModule</title>
<path fill="none" stroke="#000000" d="M85,-122.0109C85,-144.4852 85,-180 85,-180 85,-180 619.0185,-180 619.0185,-180"/>
<polygon fill="#000000" stroke="#000000" points="619.0185,-183.5001 629.0185,-180 619.0185,-176.5001 619.0185,-183.5001"/>
</g>
<!-- AccountMayestroRoutingModule -->
<g id="node9" class="node">
<title>AccountMayestroRoutingModule</title>
<polygon fill="#8dd3c7" stroke="#000000" points="1419.4636,-122 1416.4636,-126 1395.4636,-126 1392.4636,-122 1214.5364,-122 1214.5364,-86 1419.4636,-86 1419.4636,-122"/>
<text text-anchor="middle" x="1317" y="-99.8" font-family="Times,serif" font-size="14.00" fill="#000000">AccountMayestroRoutingModule</text>
</g>
<!-- AccountMayestroRoutingModule&#45;&gt;AccountMayestroModule -->
<g id="edge8" class="edge">
<title>AccountMayestroRoutingModule&#45;&gt;AccountMayestroModule</title>
<path fill="none" stroke="#000000" d="M1317,-122.2921C1317,-144.2057 1317,-178 1317,-178 1317,-178 799.1106,-178 799.1106,-178"/>
<polygon fill="#000000" stroke="#000000" points="799.1106,-174.5001 789.1106,-178 799.1106,-181.5001 799.1106,-174.5001"/>
</g>
<!-- SharedModule -->
<g id="node10" class="node">
<title>SharedModule</title>
<polygon fill="#8dd3c7" stroke="#000000" points="1536.4231,-122 1533.4231,-126 1512.4231,-126 1509.4231,-122 1437.5769,-122 1437.5769,-86 1536.4231,-86 1536.4231,-122"/>
<text text-anchor="middle" x="1487" y="-99.8" font-family="Times,serif" font-size="14.00" fill="#000000">SharedModule</text>
</g>
<!-- SharedModule&#45;&gt;AccountMayestroModule -->
<g id="edge9" class="edge">
<title>SharedModule&#45;&gt;AccountMayestroModule</title>
<path fill="none" stroke="#000000" d="M1487,-122.3228C1487,-145.6602 1487,-183 1487,-183 1487,-183 798.9661,-183 798.9661,-183"/>
<polygon fill="#000000" stroke="#000000" points="798.9661,-179.5001 788.9661,-183 798.966,-186.5001 798.9661,-179.5001"/>
</g>
<!-- MayestroModule -->
<g id="node21" class="node">
<title>MayestroModule</title>
<polygon fill="#8dd3c7" stroke="#000000" points="2099.4202,-187 2096.4202,-191 2075.4202,-191 2072.4202,-187 1986.5798,-187 1986.5798,-151 2099.4202,-151 2099.4202,-187"/>
<text text-anchor="middle" x="2043" y="-164.8" font-family="Times,serif" font-size="14.00" fill="#000000">MayestroModule</text>
</g>
<!-- SharedModule&#45;&gt;MayestroModule -->
<g id="edge20" class="edge">
<title>SharedModule&#45;&gt;MayestroModule</title>
<path fill="none" stroke="#000000" d="M1511.6056,-122.302C1511.6056,-140.2699 1511.6056,-165 1511.6056,-165 1511.6056,-165 1976.6346,-165 1976.6346,-165"/>
<polygon fill="#000000" stroke="#000000" points="1976.6346,-168.5001 1986.6346,-165 1976.6345,-161.5001 1976.6346,-168.5001"/>
</g>
<!-- OpenMayestroModule -->
<g id="node25" class="node">
<title>OpenMayestroModule</title>
<polygon fill="#8dd3c7" stroke="#000000" points="2932.2408,-187 2929.2408,-191 2908.2408,-191 2905.2408,-187 2789.7592,-187 2789.7592,-151 2932.2408,-151 2932.2408,-187"/>
<text text-anchor="middle" x="2861" y="-164.8" font-family="Times,serif" font-size="14.00" fill="#000000">OpenMayestroModule</text>
</g>
<!-- SharedModule&#45;&gt;OpenMayestroModule -->
<g id="edge24" class="edge">
<title>SharedModule&#45;&gt;OpenMayestroModule</title>
<path fill="none" stroke="#000000" d="M1462.3945,-122.0449C1462.3945,-129.749 1462.3945,-137 1462.3945,-137 1462.3945,-137 2811.3962,-137 2811.3962,-137 2811.3962,-137 2811.3962,-140.7566 2811.3962,-140.7566"/>
<polygon fill="#000000" stroke="#000000" points="2807.8963,-140.7566 2811.3962,-150.7566 2814.8963,-140.7566 2807.8963,-140.7566"/>
</g>
<!-- AppComponent -->
<g id="node11" class="node">
<title>AppComponent</title>
<polygon fill="#ffffb3" stroke="#000000" points="3476.9399,-122 3371.0601,-122 3371.0601,-86 3476.9399,-86 3476.9399,-122"/>
<text text-anchor="middle" x="3424" y="-99.8" font-family="Times,serif" font-size="14.00" fill="#000000">AppComponent</text>
</g>
<!-- AppModule -->
<g id="node12" class="node">
<title>AppModule</title>
<polygon fill="#8dd3c7" stroke="#000000" points="3394.6571,-187 3391.6571,-191 3370.6571,-191 3367.6571,-187 3311.3429,-187 3311.3429,-151 3394.6571,-151 3394.6571,-187"/>
<text text-anchor="middle" x="3353" y="-164.8" font-family="Times,serif" font-size="14.00" fill="#000000">AppModule</text>
</g>
<!-- AppComponent&#45;&gt;AppModule -->
<g id="edge10" class="edge">
<title>AppComponent&#45;&gt;AppModule</title>
<path fill="none" stroke="#000000" d="M3383.0544,-122.1061C3383.0544,-122.1061 3383.0544,-140.991 3383.0544,-140.991"/>
<polygon fill="#000000" stroke="#000000" points="3379.5544,-140.9909 3383.0544,-150.991 3386.5544,-140.991 3379.5544,-140.9909"/>
</g>
<!-- AppComponent  -->
<g id="node14" class="node">
<title>AppComponent </title>
<polygon fill="#80b1d3" stroke="#000000" points="3407.439,-252 3298.561,-252 3298.561,-216 3407.439,-216 3407.439,-252"/>
<text text-anchor="middle" x="3353" y="-229.8" font-family="Times,serif" font-size="14.00" fill="#000000">AppComponent </text>
</g>
<!-- AppModule&#45;&gt;AppComponent  -->
<g id="edge12" class="edge">
<title>AppModule&#45;&gt;AppComponent </title>
<path fill="none" stroke="#000000" stroke-dasharray="1,5" d="M3353,-187.1061C3353,-187.1061 3353,-205.991 3353,-205.991"/>
<polygon fill="#000000" stroke="#000000" points="3349.5001,-205.9909 3353,-215.991 3356.5001,-205.991 3349.5001,-205.9909"/>
</g>
<!-- AppRoutingModule -->
<g id="node13" class="node">
<title>AppRoutingModule</title>
<polygon fill="#8dd3c7" stroke="#000000" points="3347.2744,-122 3344.2744,-126 3323.2744,-126 3320.2744,-122 3218.7256,-122 3218.7256,-86 3347.2744,-86 3347.2744,-122"/>
<text text-anchor="middle" x="3283" y="-99.8" font-family="Times,serif" font-size="14.00" fill="#000000">AppRoutingModule</text>
</g>
<!-- AppRoutingModule&#45;&gt;AppModule -->
<g id="edge11" class="edge">
<title>AppRoutingModule&#45;&gt;AppModule</title>
<path fill="none" stroke="#000000" d="M3329.2795,-122.1061C3329.2795,-122.1061 3329.2795,-140.991 3329.2795,-140.991"/>
<polygon fill="#000000" stroke="#000000" points="3325.7795,-140.9909 3329.2795,-150.991 3332.7795,-140.991 3325.7795,-140.9909"/>
</g>
<!-- CardComponent -->
<g id="node15" class="node">
<title>CardComponent</title>
<polygon fill="#ffffb3" stroke="#000000" points="2627.0452,-122 2518.9548,-122 2518.9548,-86 2627.0452,-86 2627.0452,-122"/>
<text text-anchor="middle" x="2573" y="-99.8" font-family="Times,serif" font-size="14.00" fill="#000000">CardComponent</text>
</g>
<!-- CardComponent&#45;&gt;MayestroModule -->
<g id="edge13" class="edge">
<title>CardComponent&#45;&gt;MayestroModule</title>
<path fill="none" stroke="#000000" d="M2573,-122.2921C2573,-144.2057 2573,-178 2573,-178 2573,-178 2109.2175,-178 2109.2175,-178"/>
<polygon fill="#000000" stroke="#000000" points="2109.2176,-174.5001 2099.2175,-178 2109.2175,-181.5001 2109.2176,-174.5001"/>
</g>
<!-- HomeComponent -->
<g id="node16" class="node">
<title>HomeComponent</title>
<polygon fill="#ffffb3" stroke="#000000" points="2500.5451,-122 2385.4549,-122 2385.4549,-86 2500.5451,-86 2500.5451,-122"/>
<text text-anchor="middle" x="2443" y="-99.8" font-family="Times,serif" font-size="14.00" fill="#000000">HomeComponent</text>
</g>
<!-- HomeComponent&#45;&gt;MayestroModule -->
<g id="edge14" class="edge">
<title>HomeComponent&#45;&gt;MayestroModule</title>
<path fill="none" stroke="#000000" d="M2443,-122.1061C2443,-141.3391 2443,-169 2443,-169 2443,-169 2109.4619,-169 2109.4619,-169"/>
<polygon fill="#000000" stroke="#000000" points="2109.4619,-165.5001 2099.4619,-169 2109.4618,-172.5001 2109.4619,-165.5001"/>
</g>
<!-- MayestroComponent -->
<g id="node17" class="node">
<title>MayestroComponent</title>
<polygon fill="#ffffb3" stroke="#000000" points="2367.2022,-122 2232.7978,-122 2232.7978,-86 2367.2022,-86 2367.2022,-122"/>
<text text-anchor="middle" x="2300" y="-99.8" font-family="Times,serif" font-size="14.00" fill="#000000">MayestroComponent</text>
</g>
<!-- MayestroComponent&#45;&gt;MayestroModule -->
<g id="edge15" class="edge">
<title>MayestroComponent&#45;&gt;MayestroModule</title>
<path fill="none" stroke="#000000" d="M2300,-122.027C2300,-138.3976 2300,-160 2300,-160 2300,-160 2109.3997,-160 2109.3997,-160"/>
<polygon fill="#000000" stroke="#000000" points="2109.3998,-156.5001 2099.3997,-160 2109.3997,-163.5001 2109.3998,-156.5001"/>
</g>
<!-- MiniCardViewerComponent -->
<g id="node18" class="node">
<title>MiniCardViewerComponent</title>
<polygon fill="#ffffb3" stroke="#000000" points="2214.4636,-122 2037.5364,-122 2037.5364,-86 2214.4636,-86 2214.4636,-122"/>
<text text-anchor="middle" x="2126" y="-99.8" font-family="Times,serif" font-size="14.00" fill="#000000">MiniCardViewerComponent</text>
</g>
<!-- MiniCardViewerComponent&#45;&gt;MayestroModule -->
<g id="edge16" class="edge">
<title>MiniCardViewerComponent&#45;&gt;MayestroModule</title>
<path fill="none" stroke="#000000" d="M2068.364,-122.1061C2068.364,-122.1061 2068.364,-140.991 2068.364,-140.991"/>
<polygon fill="#000000" stroke="#000000" points="2064.864,-140.9909 2068.364,-150.991 2071.864,-140.991 2064.864,-140.9909"/>
</g>
<!-- PlayerComponent -->
<g id="node19" class="node">
<title>PlayerComponent</title>
<polygon fill="#ffffb3" stroke="#000000" points="2019.5954,-122 1902.4046,-122 1902.4046,-86 2019.5954,-86 2019.5954,-122"/>
<text text-anchor="middle" x="1961" y="-99.8" font-family="Times,serif" font-size="14.00" fill="#000000">PlayerComponent</text>
</g>
<!-- PlayerComponent&#45;&gt;MayestroModule -->
<g id="edge17" class="edge">
<title>PlayerComponent&#45;&gt;MayestroModule</title>
<path fill="none" stroke="#000000" d="M2003.169,-122.1061C2003.169,-122.1061 2003.169,-140.991 2003.169,-140.991"/>
<polygon fill="#000000" stroke="#000000" points="1999.6691,-140.9909 2003.169,-150.991 2006.6691,-140.991 1999.6691,-140.9909"/>
</g>
<!-- SideBarComponent -->
<g id="node20" class="node">
<title>SideBarComponent</title>
<polygon fill="#ffffb3" stroke="#000000" points="1884.4327,-122 1757.5673,-122 1757.5673,-86 1884.4327,-86 1884.4327,-122"/>
<text text-anchor="middle" x="1821" y="-99.8" font-family="Times,serif" font-size="14.00" fill="#000000">SideBarComponent</text>
</g>
<!-- SideBarComponent&#45;&gt;MayestroModule -->
<g id="edge18" class="edge">
<title>SideBarComponent&#45;&gt;MayestroModule</title>
<path fill="none" stroke="#000000" d="M1821,-122.1871C1821,-137.1824 1821,-156 1821,-156 1821,-156 1976.693,-156 1976.693,-156"/>
<polygon fill="#000000" stroke="#000000" points="1976.6931,-159.5001 1986.693,-156 1976.693,-152.5001 1976.6931,-159.5001"/>
</g>
<!-- MayestroRoutingModule -->
<g id="node22" class="node">
<title>MayestroRoutingModule</title>
<polygon fill="#8dd3c7" stroke="#000000" points="1733.5379,-122 1730.5379,-126 1709.5379,-126 1706.5379,-122 1576.4621,-122 1576.4621,-86 1733.5379,-86 1733.5379,-122"/>
<text text-anchor="middle" x="1655" y="-99.8" font-family="Times,serif" font-size="14.00" fill="#000000">MayestroRoutingModule</text>
</g>
<!-- MayestroRoutingModule&#45;&gt;MayestroModule -->
<g id="edge19" class="edge">
<title>MayestroRoutingModule&#45;&gt;MayestroModule</title>
<path fill="none" stroke="#000000" d="M1655,-122.027C1655,-138.3976 1655,-160 1655,-160 1655,-160 1976.5815,-160 1976.5815,-160"/>
<polygon fill="#000000" stroke="#000000" points="1976.5815,-163.5001 1986.5815,-160 1976.5814,-156.5001 1976.5815,-163.5001"/>
</g>
<!-- FooterComponent -->
<g id="node23" class="node">
<title>FooterComponent</title>
<polygon fill="#ffffb3" stroke="#000000" points="3178.8809,-122 3061.1191,-122 3061.1191,-86 3178.8809,-86 3178.8809,-122"/>
<text text-anchor="middle" x="3120" y="-99.8" font-family="Times,serif" font-size="14.00" fill="#000000">FooterComponent</text>
</g>
<!-- FooterComponent&#45;&gt;OpenMayestroModule -->
<g id="edge21" class="edge">
<title>FooterComponent&#45;&gt;OpenMayestroModule</title>
<path fill="none" stroke="#000000" d="M3120,-122.1061C3120,-141.3391 3120,-169 3120,-169 3120,-169 2942.4585,-169 2942.4585,-169"/>
<polygon fill="#000000" stroke="#000000" points="2942.4585,-165.5001 2932.4585,-169 2942.4585,-172.5001 2942.4585,-165.5001"/>
</g>
<!-- OpenMayestroComponent -->
<g id="node24" class="node">
<title>OpenMayestroComponent</title>
<polygon fill="#ffffb3" stroke="#000000" points="3043.0239,-122 2878.9761,-122 2878.9761,-86 3043.0239,-86 3043.0239,-122"/>
<text text-anchor="middle" x="2961" y="-99.8" font-family="Times,serif" font-size="14.00" fill="#000000">OpenMayestroComponent</text>
</g>
<!-- OpenMayestroComponent&#45;&gt;OpenMayestroModule -->
<g id="edge22" class="edge">
<title>OpenMayestroComponent&#45;&gt;OpenMayestroModule</title>
<path fill="none" stroke="#000000" d="M2905.5544,-122.1061C2905.5544,-122.1061 2905.5544,-140.991 2905.5544,-140.991"/>
<polygon fill="#000000" stroke="#000000" points="2902.0544,-140.9909 2905.5544,-150.991 2909.0544,-140.991 2902.0544,-140.9909"/>
</g>
<!-- OpenMayestroRoutingModule -->
<g id="node26" class="node">
<title>OpenMayestroRoutingModule</title>
<polygon fill="#8dd3c7" stroke="#000000" points="2854.8585,-122 2851.8585,-126 2830.8585,-126 2827.8585,-122 2667.1415,-122 2667.1415,-86 2854.8585,-86 2854.8585,-122"/>
<text text-anchor="middle" x="2761" y="-99.8" font-family="Times,serif" font-size="14.00" fill="#000000">OpenMayestroRoutingModule</text>
</g>
<!-- OpenMayestroRoutingModule&#45;&gt;OpenMayestroModule -->
<g id="edge23" class="edge">
<title>OpenMayestroRoutingModule&#45;&gt;OpenMayestroModule</title>
<path fill="none" stroke="#000000" d="M2833.1627,-122.1061C2833.1627,-122.1061 2833.1627,-140.991 2833.1627,-140.991"/>
<polygon fill="#000000" stroke="#000000" points="2829.6628,-140.9909 2833.1627,-150.991 2836.6628,-140.991 2829.6628,-140.9909"/>
</g>
</g>
</svg>
